{"glyphs":{"0":{"ha":663,"x_min":44,"x_max":618,"o":"m 333 -18 q 184 19 250 -18 q 81 123 118 57 q 44 272 44 189 q 82 418 44 354 q 185 518 119 482 q 335 554 251 554 q 481 517 417 554 q 582 415 546 481 q 618 268 618 350 q 582 121 618 186 q 481 19 546 56 q 333 -18 415 -18 m 349 4 q 465 70 425 4 q 504 250 504 136 q 452 461 504 390 q 321 532 400 532 q 200 464 243 532 q 157 285 157 396 q 209 82 157 160 q 349 4 261 4 z "},"1":{"ha":461,"x_min":64,"x_max":397,"o":"m 183 424 q 176 486 183 467 q 144 513 168 506 q 68 519 121 519 q 64 528 64 519 q 68 536 64 536 q 135 535 110 536 l 231 533 l 326 535 q 393 536 350 536 q 397 528 397 536 q 393 519 397 519 q 319 512 343 519 q 287 485 296 504 q 278 424 278 465 l 278 113 q 285 50 278 69 q 317 24 293 31 q 393 17 340 17 q 397 8 397 17 q 393 0 397 0 q 326 1 351 0 l 231 3 l 135 1 q 68 0 111 0 q 64 8 64 0 q 68 17 64 17 q 142 24 118 17 q 174 51 165 32 q 183 113 183 71 l 183 424 z "},"2":{"ha":558,"x_min":46,"x_max":521,"o":"m 51 26 q 235 190 172 128 q 326 299 299 251 q 354 393 354 346 q 322 484 354 449 q 239 519 290 519 q 147 475 185 519 q 82 344 110 431 q 76 343 82 343 q 65 347 64 343 l 122 567 q 128 569 122 569 q 135 567 132 569 q 138 564 139 565 q 136 549 136 558 q 157 526 136 526 q 199 536 169 526 q 303 554 258 554 q 417 517 375 554 q 458 418 458 479 q 424 316 458 365 q 336 221 389 267 q 175 92 283 175 q 172 85 169 88 q 181 82 174 82 q 379 86 321 82 q 466 107 438 90 q 504 165 494 124 q 511 168 504 168 q 521 164 521 168 l 497 15 q 494 5 497 10 q 485 0 490 0 l 61 0 q 50 10 54 0 q 51 26 46 21 z "},"3":{"ha":543,"x_min":42,"x_max":490,"o":"m 79 -382 q 70 -376 74 -383 q 72 -367 67 -368 q 304 -219 233 -312 q 375 -31 375 -125 q 335 98 375 47 q 219 149 296 149 q 154 140 182 149 q 147 147 150 139 q 150 157 144 156 q 299 234 254 183 q 344 372 344 285 q 317 481 344 442 q 236 521 290 521 q 60 358 113 521 q 54 357 60 357 q 43 363 42 357 l 94 565 q 100 568 97 568 q 108 566 104 568 q 111 563 113 564 q 108 547 108 551 q 132 524 108 524 q 176 535 147 524 q 231 549 208 544 q 282 554 254 554 q 405 508 360 554 q 450 396 450 461 q 394 249 450 315 q 247 165 339 183 l 261 185 q 432 126 374 183 q 490 -14 490 68 q 445 -151 490 -82 q 308 -282 400 -221 q 79 -382 215 -343 z "},"4":{"ha":629,"x_min":28,"x_max":583,"o":"m 43 11 q 32 17 36 11 q 33 28 28 22 l 446 550 q 454 553 449 553 q 463 551 458 553 q 467 544 467 549 l 467 -206 q 456 -225 467 -219 l 382 -261 q 374 -264 374 -264 q 369 -253 369 -264 l 369 422 l 433 469 l 108 64 q 106 57 104 60 q 115 54 108 54 q 496 60 268 54 l 578 63 q 583 38 583 63 q 581 13 583 25 q 576 1 579 1 q 360 9 471 7 q 43 11 250 11 z "},"5":{"ha":568,"x_min":79,"x_max":496,"o":"m 108 272 q 399 203 307 272 q 492 13 492 133 q 451 -131 492 -67 q 324 -256 411 -196 q 94 -382 238 -317 l 93 -382 q 84 -376 88 -382 q 86 -367 81 -369 q 317 -196 250 -282 q 383 -11 383 -110 q 309 168 383 104 q 94 232 235 232 q 83 237 88 232 q 81 249 79 242 l 125 496 q 129 508 126 506 q 143 511 132 510 q 378 540 318 532 q 455 558 438 549 q 479 588 472 567 q 488 591 481 592 q 494 585 496 590 l 467 467 q 453 446 461 450 q 428 442 446 442 l 165 436 q 144 415 147 436 l 113 242 l 108 272 z "},"6":{"ha":646,"x_min":61,"x_max":601,"o":"m 419 396 q 556 344 511 396 q 601 221 601 293 q 563 101 601 156 q 460 14 525 46 q 319 -18 396 -18 q 131 63 200 -18 q 61 289 61 143 q 121 543 61 418 q 292 767 181 668 q 556 918 404 865 q 564 913 561 919 q 563 903 567 906 q 345 747 435 843 q 211 537 256 650 q 167 311 167 424 q 219 97 167 183 q 358 11 271 11 q 458 57 421 11 q 496 183 496 103 q 463 304 496 258 q 364 350 429 350 q 302 337 331 350 q 238 293 274 324 q 233 292 236 292 q 225 296 229 292 q 222 303 221 300 q 419 396 300 396 z "},"7":{"ha":596,"x_min":26,"x_max":546,"o":"m 232 -300 q 203 -333 224 -324 l 119 -382 l 118 -382 q 112 -378 115 -382 q 110 -372 108 -375 l 478 440 q 471 450 482 450 q 189 444 268 450 q 84 421 110 439 q 44 356 58 403 q 38 353 42 353 q 30 355 33 353 q 28 360 26 357 l 81 574 q 90 576 82 576 q 97 572 99 575 q 96 558 96 567 q 109 540 96 544 q 163 536 122 536 l 531 536 q 541 530 536 536 q 543 518 546 524 l 232 -300 z "},"8":{"ha":679,"x_min":61,"x_max":633,"o":"m 393 478 q 443 551 426 515 q 460 629 460 588 q 424 733 460 693 q 335 772 389 772 q 260 746 289 772 q 232 674 232 719 q 256 599 232 632 q 316 542 281 567 q 415 481 351 517 q 530 410 486 442 q 603 332 574 378 q 633 225 633 286 q 593 101 633 157 q 485 14 553 46 q 336 -18 417 -18 q 192 13 254 -18 q 95 97 129 44 q 61 210 61 149 q 131 381 61 303 q 303 493 201 460 l 311 482 q 206 386 243 449 q 168 246 168 324 q 194 129 168 183 q 267 42 221 75 q 374 8 314 8 q 492 56 446 8 q 539 178 539 104 q 510 282 539 239 q 440 353 481 325 q 325 422 400 381 q 227 483 264 457 q 165 546 190 510 q 140 628 140 582 q 174 722 140 683 q 258 778 207 760 q 360 797 308 797 q 460 776 417 797 q 528 721 504 754 q 551 651 551 688 q 512 556 551 604 q 401 469 472 507 l 393 478 z "},"9":{"ha":646,"x_min":44,"x_max":585,"o":"m 240 149 q 129 177 174 149 q 65 249 85 206 q 44 339 44 293 q 78 450 44 401 q 169 526 111 499 q 300 554 228 554 q 508 467 432 554 q 585 233 585 379 q 526 -17 585 107 q 354 -239 467 -142 q 90 -382 242 -336 q 83 -376 86 -383 q 85 -367 79 -369 q 301 -219 211 -314 q 435 -12 390 -124 q 479 207 479 100 q 459 354 479 281 q 394 478 439 428 q 279 528 349 528 q 183 485 217 528 q 150 368 150 443 q 185 242 150 290 q 290 193 221 193 q 349 204 324 193 q 410 242 375 215 q 414 243 411 243 q 422 239 418 243 q 424 232 425 235 q 240 149 356 149 z "}," ":{"ha":325,"x_min":0,"x_max":0,"o":""},"A":{"ha":981,"x_min":-7,"x_max":985,"o":"m 276 393 l 654 393 l 664 363 l 260 363 l 276 393 m 978 17 q 985 8 985 17 q 978 0 985 0 q 896 3 951 0 q 813 6 838 6 q 733 3 781 6 q 663 0 686 0 q 657 8 657 0 q 663 17 657 17 q 731 26 710 17 q 751 58 751 35 q 731 124 751 82 l 432 744 l 476 811 l 206 183 q 186 106 186 136 q 221 39 186 61 q 321 17 256 17 q 328 8 328 17 q 321 0 328 0 q 249 3 296 0 q 157 6 196 6 q 71 3 121 6 q -1 0 26 0 q -7 8 -7 0 q -1 17 -7 17 q 65 32 38 17 q 117 85 92 47 q 174 196 142 122 l 469 878 q 479 883 471 882 q 489 878 488 883 l 822 190 q 903 53 871 89 q 978 17 936 17 z "},"Á":{"ha":981,"x_min":-7,"x_max":985,"o":"m 276 393 l 654 393 l 664 363 l 260 363 l 276 393 m 978 17 q 985 8 985 17 q 978 0 985 0 q 896 3 951 0 q 813 6 838 6 q 733 3 781 6 q 663 0 686 0 q 657 8 657 0 q 663 17 657 17 q 731 26 710 17 q 751 58 751 35 q 731 124 751 82 l 432 744 l 476 811 l 206 183 q 186 106 186 136 q 221 39 186 61 q 321 17 256 17 q 328 8 328 17 q 321 0 328 0 q 249 3 296 0 q 157 6 196 6 q 71 3 121 6 q -1 0 26 0 q -7 8 -7 0 q -1 17 -7 17 q 65 32 38 17 q 117 85 92 47 q 174 196 142 122 l 469 878 q 479 883 471 882 q 489 878 488 883 l 822 190 q 903 53 871 89 q 978 17 936 17 m 343 942 q 335 948 338 942 q 338 957 333 954 q 419 1006 378 979 q 469 1040 460 1033 l 549 1092 q 586 1086 554 1096 q 642 1064 618 1076 q 653 1050 665 1051 q 344 942 489 1008 l 343 942 z "},"Ă":{"ha":981,"x_min":-7,"x_max":985,"o":"m 276 393 l 654 393 l 664 363 l 260 363 l 276 393 m 978 17 q 985 8 985 17 q 978 0 985 0 q 896 3 951 0 q 813 6 838 6 q 733 3 781 6 q 663 0 686 0 q 657 8 657 0 q 663 17 657 17 q 731 26 710 17 q 751 58 751 35 q 731 124 751 82 l 432 744 l 476 811 l 206 183 q 186 106 186 136 q 221 39 186 61 q 321 17 256 17 q 328 8 328 17 q 321 0 328 0 q 249 3 296 0 q 157 6 196 6 q 71 3 121 6 q -1 0 26 0 q -7 8 -7 0 q -1 17 -7 17 q 65 32 38 17 q 117 85 92 47 q 174 196 142 122 l 469 878 q 479 883 471 882 q 489 878 488 883 l 822 190 q 903 53 871 89 q 978 17 936 17 m 479 958 q 380 999 417 958 q 336 1115 343 1040 q 343 1121 336 1121 q 351 1118 350 1121 q 395 1059 358 1085 q 479 1033 432 1033 q 562 1059 525 1033 q 606 1118 599 1085 q 615 1121 607 1121 q 621 1115 622 1121 q 578 999 614 1040 q 479 958 542 958 z "},"Ắ":{"ha":981,"x_min":-7,"x_max":985,"o":"m 276 393 l 654 393 l 664 363 l 260 363 l 276 393 m 978 17 q 985 8 985 17 q 978 0 985 0 q 896 3 951 0 q 813 6 838 6 q 733 3 781 6 q 663 0 686 0 q 657 8 657 0 q 663 17 657 17 q 731 26 710 17 q 751 58 751 35 q 731 124 751 82 l 432 744 l 476 811 l 206 183 q 186 106 186 136 q 221 39 186 61 q 321 17 256 17 q 328 8 328 17 q 321 0 328 0 q 249 3 296 0 q 157 6 196 6 q 71 3 121 6 q -1 0 26 0 q -7 8 -7 0 q -1 17 -7 17 q 65 32 38 17 q 117 85 92 47 q 174 196 142 122 l 469 878 q 479 883 471 882 q 489 878 488 883 l 822 190 q 903 53 871 89 q 978 17 936 17 m 479 943 q 380 983 417 943 q 336 1099 343 1022 q 342 1105 335 1104 q 351 1101 350 1106 q 395 1042 358 1068 q 479 1017 432 1017 q 562 1042 525 1017 q 606 1101 599 1068 q 615 1105 607 1106 q 621 1099 622 1104 q 578 983 614 1022 q 479 943 542 943 m 399 1092 q 392 1097 394 1092 q 393 1106 390 1103 q 490 1243 442 1165 q 526 1240 494 1250 q 583 1217 558 1231 q 596 1200 608 1204 q 498 1154 542 1179 q 403 1093 454 1129 l 399 1092 z "},"Ặ":{"ha":981,"x_min":-7,"x_max":985,"o":"m 276 393 l 654 393 l 664 363 l 260 363 l 276 393 m 978 17 q 985 8 985 17 q 978 0 985 0 q 896 3 951 0 q 813 6 838 6 q 733 3 781 6 q 663 0 686 0 q 657 8 657 0 q 663 17 657 17 q 731 26 710 17 q 751 58 751 35 q 731 124 751 82 l 432 744 l 476 811 l 206 183 q 186 106 186 136 q 221 39 186 61 q 321 17 256 17 q 328 8 328 17 q 321 0 328 0 q 249 3 296 0 q 157 6 196 6 q 71 3 121 6 q -1 0 26 0 q -7 8 -7 0 q -1 17 -7 17 q 65 32 38 17 q 117 85 92 47 q 174 196 142 122 l 469 878 q 479 883 471 882 q 489 878 488 883 l 822 190 q 903 53 871 89 q 978 17 936 17 m 493 -271 q 443 -253 461 -271 q 425 -204 425 -236 q 443 -157 425 -174 q 493 -140 461 -140 q 541 -157 524 -140 q 558 -204 558 -174 q 542 -253 558 -236 q 493 -271 525 -271 m 479 958 q 380 999 417 958 q 336 1115 343 1040 q 343 1121 336 1121 q 351 1118 350 1121 q 395 1059 358 1085 q 479 1033 432 1033 q 562 1059 525 1033 q 606 1118 599 1085 q 615 1121 607 1121 q 621 1115 622 1121 q 578 999 614 1040 q 479 958 542 958 z "},"Ằ":{"ha":981,"x_min":-7,"x_max":985,"o":"m 276 393 l 654 393 l 664 363 l 260 363 l 276 393 m 978 17 q 985 8 985 17 q 978 0 985 0 q 896 3 951 0 q 813 6 838 6 q 733 3 781 6 q 663 0 686 0 q 657 8 657 0 q 663 17 657 17 q 731 26 710 17 q 751 58 751 35 q 731 124 751 82 l 432 744 l 476 811 l 206 183 q 186 106 186 136 q 221 39 186 61 q 321 17 256 17 q 328 8 328 17 q 321 0 328 0 q 249 3 296 0 q 157 6 196 6 q 71 3 121 6 q -1 0 26 0 q -7 8 -7 0 q -1 17 -7 17 q 65 32 38 17 q 117 85 92 47 q 174 196 142 122 l 469 878 q 479 883 471 882 q 489 878 488 883 l 822 190 q 903 53 871 89 q 978 17 936 17 m 479 943 q 380 983 417 943 q 336 1099 343 1022 q 342 1105 335 1104 q 351 1101 350 1106 q 395 1042 358 1068 q 479 1017 432 1017 q 562 1042 525 1017 q 606 1101 599 1068 q 615 1105 607 1106 q 621 1099 622 1104 q 578 983 614 1022 q 479 943 542 943 m 550 1093 q 455 1155 497 1131 q 360 1200 413 1179 q 372 1217 347 1204 q 429 1240 397 1231 q 465 1243 461 1250 q 561 1106 514 1167 q 563 1101 563 1104 q 559 1094 563 1097 q 550 1093 556 1092 z "},"Ẳ":{"ha":981,"x_min":-7,"x_max":985,"o":"m 276 393 l 654 393 l 664 363 l 260 363 l 276 393 m 978 17 q 985 8 985 17 q 978 0 985 0 q 896 3 951 0 q 813 6 838 6 q 733 3 781 6 q 663 0 686 0 q 657 8 657 0 q 663 17 657 17 q 731 26 710 17 q 751 58 751 35 q 731 124 751 82 l 432 744 l 476 811 l 206 183 q 186 106 186 136 q 221 39 186 61 q 321 17 256 17 q 328 8 328 17 q 321 0 328 0 q 249 3 296 0 q 157 6 196 6 q 71 3 121 6 q -1 0 26 0 q -7 8 -7 0 q -1 17 -7 17 q 65 32 38 17 q 117 85 92 47 q 174 196 142 122 l 469 878 q 479 883 471 882 q 489 878 488 883 l 822 190 q 903 53 871 89 q 978 17 936 17 m 479 943 q 380 983 417 943 q 336 1099 343 1022 q 342 1105 335 1104 q 351 1101 350 1106 q 395 1042 358 1068 q 479 1017 432 1017 q 562 1042 525 1017 q 606 1101 599 1068 q 615 1105 607 1106 q 621 1099 622 1104 q 578 983 614 1022 q 479 943 542 943 m 463 1036 q 460 1054 460 1050 q 468 1088 460 1071 q 478 1107 476 1104 q 496 1158 496 1138 q 482 1190 496 1179 q 450 1201 468 1201 q 419 1194 433 1201 l 418 1194 q 410 1199 414 1194 q 410 1206 406 1204 q 453 1225 431 1218 q 493 1232 476 1232 q 544 1214 525 1232 q 564 1172 564 1196 q 551 1137 564 1153 q 517 1100 539 1121 q 485 1065 494 1079 q 478 1036 475 1051 q 472 1033 479 1033 q 463 1036 464 1032 z "},"Ẵ":{"ha":981,"x_min":-7,"x_max":985,"o":"m 276 393 l 654 393 l 664 363 l 260 363 l 276 393 m 978 17 q 985 8 985 17 q 978 0 985 0 q 896 3 951 0 q 813 6 838 6 q 733 3 781 6 q 663 0 686 0 q 657 8 657 0 q 663 17 657 17 q 731 26 710 17 q 751 58 751 35 q 731 124 751 82 l 432 744 l 476 811 l 206 183 q 186 106 186 136 q 221 39 186 61 q 321 17 256 17 q 328 8 328 17 q 321 0 328 0 q 249 3 296 0 q 157 6 196 6 q 71 3 121 6 q -1 0 26 0 q -7 8 -7 0 q -1 17 -7 17 q 65 32 38 17 q 117 85 92 47 q 174 196 142 122 l 469 878 q 479 883 471 882 q 489 878 488 883 l 822 190 q 903 53 871 89 q 978 17 936 17 m 482 931 q 383 972 419 931 q 339 1088 346 1013 q 345 1093 338 1093 q 354 1090 353 1093 q 398 1031 361 1057 q 482 1006 435 1006 q 565 1031 528 1006 q 608 1090 601 1057 q 617 1093 610 1093 q 624 1088 625 1093 q 581 972 617 1013 q 482 931 544 931 m 586 1178 q 624 1187 610 1178 q 656 1215 639 1196 l 657 1215 q 665 1212 661 1215 q 665 1206 668 1208 q 606 1131 629 1150 q 554 1111 582 1111 q 471 1128 526 1111 q 435 1138 465 1129 q 375 1146 406 1146 q 340 1139 353 1146 q 319 1122 328 1132 q 306 1108 310 1113 l 303 1108 q 296 1112 299 1108 q 296 1118 293 1115 q 414 1211 358 1211 q 483 1197 433 1211 q 586 1178 547 1178 z "},"Ǎ":{"ha":981,"x_min":-7,"x_max":985,"o":"m 276 393 l 654 393 l 664 363 l 260 363 l 276 393 m 978 17 q 985 8 985 17 q 978 0 985 0 q 896 3 951 0 q 813 6 838 6 q 733 3 781 6 q 663 0 686 0 q 657 8 657 0 q 663 17 657 17 q 731 26 710 17 q 751 58 751 35 q 731 124 751 82 l 432 744 l 476 811 l 206 183 q 186 106 186 136 q 221 39 186 61 q 321 17 256 17 q 328 8 328 17 q 321 0 328 0 q 249 3 296 0 q 157 6 196 6 q 71 3 121 6 q -1 0 26 0 q -7 8 -7 0 q -1 17 -7 17 q 65 32 38 17 q 117 85 92 47 q 174 196 142 122 l 469 878 q 479 883 471 882 q 489 878 488 883 l 822 190 q 903 53 871 89 q 978 17 936 17 m 319 1097 q 323 1105 319 1101 q 328 1106 326 1108 l 479 1035 l 629 1107 l 631 1107 q 637 1103 635 1107 q 636 1097 639 1100 l 494 954 q 479 949 489 949 q 463 954 468 949 l 319 1096 l 319 1097 z "},"Â":{"ha":981,"x_min":-7,"x_max":985,"o":"m 276 393 l 654 393 l 664 363 l 260 363 l 276 393 m 978 17 q 985 8 985 17 q 978 0 985 0 q 896 3 951 0 q 813 6 838 6 q 733 3 781 6 q 663 0 686 0 q 657 8 657 0 q 663 17 657 17 q 731 26 710 17 q 751 58 751 35 q 731 124 751 82 l 432 744 l 476 811 l 206 183 q 186 106 186 136 q 221 39 186 61 q 321 17 256 17 q 328 8 328 17 q 321 0 328 0 q 249 3 296 0 q 157 6 196 6 q 71 3 121 6 q -1 0 26 0 q -7 8 -7 0 q -1 17 -7 17 q 65 32 38 17 q 117 85 92 47 q 174 196 142 122 l 469 878 q 479 883 471 882 q 489 878 488 883 l 822 190 q 903 53 871 89 q 978 17 936 17 m 463 1096 q 479 1103 469 1103 q 494 1096 488 1103 l 636 954 q 638 951 638 954 q 634 946 638 949 q 629 944 631 943 l 479 1015 l 328 944 q 321 948 325 943 q 319 954 317 953 l 463 1096 z "},"Ấ":{"ha":981,"x_min":-7,"x_max":985,"o":"m 276 393 l 654 393 l 664 363 l 260 363 l 276 393 m 978 17 q 985 8 985 17 q 978 0 985 0 q 896 3 951 0 q 813 6 838 6 q 733 3 781 6 q 663 0 686 0 q 657 8 657 0 q 663 17 657 17 q 731 26 710 17 q 751 58 751 35 q 731 124 751 82 l 432 744 l 476 811 l 206 183 q 186 106 186 136 q 221 39 186 61 q 321 17 256 17 q 328 8 328 17 q 321 0 328 0 q 249 3 296 0 q 157 6 196 6 q 71 3 121 6 q -1 0 26 0 q -7 8 -7 0 q -1 17 -7 17 q 65 32 38 17 q 117 85 92 47 q 174 196 142 122 l 469 878 q 479 883 471 882 q 489 878 488 883 l 822 190 q 903 53 871 89 q 978 17 936 17 m 463 1096 q 479 1103 469 1103 q 494 1096 488 1103 l 636 954 q 638 951 638 954 q 634 946 638 949 q 629 944 631 943 l 479 1015 l 328 944 q 321 948 325 943 q 319 954 317 953 l 463 1096 m 567 1015 q 560 1021 563 1015 q 561 1029 558 1026 q 658 1167 610 1089 q 694 1164 663 1174 q 751 1141 726 1154 q 764 1124 776 1128 q 666 1078 710 1103 q 571 1017 622 1053 l 567 1015 z "},"Ậ":{"ha":981,"x_min":-7,"x_max":985,"o":"m 276 393 l 654 393 l 664 363 l 260 363 l 276 393 m 978 17 q 985 8 985 17 q 978 0 985 0 q 896 3 951 0 q 813 6 838 6 q 733 3 781 6 q 663 0 686 0 q 657 8 657 0 q 663 17 657 17 q 731 26 710 17 q 751 58 751 35 q 731 124 751 82 l 432 744 l 476 811 l 206 183 q 186 106 186 136 q 221 39 186 61 q 321 17 256 17 q 328 8 328 17 q 321 0 328 0 q 249 3 296 0 q 157 6 196 6 q 71 3 121 6 q -1 0 26 0 q -7 8 -7 0 q -1 17 -7 17 q 65 32 38 17 q 117 85 92 47 q 174 196 142 122 l 469 878 q 479 883 471 882 q 489 878 488 883 l 822 190 q 903 53 871 89 q 978 17 936 17 m 493 -271 q 443 -253 461 -271 q 425 -204 425 -236 q 443 -157 425 -174 q 493 -140 461 -140 q 541 -157 524 -140 q 558 -204 558 -174 q 542 -253 558 -236 q 493 -271 525 -271 m 463 1096 q 479 1103 469 1103 q 494 1096 488 1103 l 636 954 q 638 951 638 954 q 634 946 638 949 q 629 944 631 943 l 479 1015 l 328 944 q 321 948 325 943 q 319 954 317 953 l 463 1096 z "},"Ầ":{"ha":981,"x_min":-7,"x_max":985,"o":"m 276 393 l 654 393 l 664 363 l 260 363 l 276 393 m 978 17 q 985 8 985 17 q 978 0 985 0 q 896 3 951 0 q 813 6 838 6 q 733 3 781 6 q 663 0 686 0 q 657 8 657 0 q 663 17 657 17 q 731 26 710 17 q 751 58 751 35 q 731 124 751 82 l 432 744 l 476 811 l 206 183 q 186 106 186 136 q 221 39 186 61 q 321 17 256 17 q 328 8 328 17 q 321 0 328 0 q 249 3 296 0 q 157 6 196 6 q 71 3 121 6 q -1 0 26 0 q -7 8 -7 0 q -1 17 -7 17 q 65 32 38 17 q 117 85 92 47 q 174 196 142 122 l 469 878 q 479 883 471 882 q 489 878 488 883 l 822 190 q 903 53 871 89 q 978 17 936 17 m 463 1096 q 479 1103 469 1103 q 494 1096 488 1103 l 636 954 q 638 951 638 954 q 634 946 638 949 q 629 944 631 943 l 479 1015 l 328 944 q 321 948 325 943 q 319 954 317 953 l 463 1096 m 706 986 q 610 1048 653 1024 q 515 1093 568 1072 q 528 1110 503 1097 q 585 1133 553 1124 q 621 1136 617 1143 q 717 999 669 1060 q 718 994 718 997 q 715 988 718 990 q 706 986 711 985 z "},"Ẩ":{"ha":981,"x_min":-7,"x_max":985,"o":"m 276 393 l 654 393 l 664 363 l 260 363 l 276 393 m 978 17 q 985 8 985 17 q 978 0 985 0 q 896 3 951 0 q 813 6 838 6 q 733 3 781 6 q 663 0 686 0 q 657 8 657 0 q 663 17 657 17 q 731 26 710 17 q 751 58 751 35 q 731 124 751 82 l 432 744 l 476 811 l 206 183 q 186 106 186 136 q 221 39 186 61 q 321 17 256 17 q 328 8 328 17 q 321 0 328 0 q 249 3 296 0 q 157 6 196 6 q 71 3 121 6 q -1 0 26 0 q -7 8 -7 0 q -1 17 -7 17 q 65 32 38 17 q 117 85 92 47 q 174 196 142 122 l 469 878 q 479 883 471 882 q 489 878 488 883 l 822 190 q 903 53 871 89 q 978 17 936 17 m 463 1096 q 479 1103 469 1103 q 494 1096 488 1103 l 636 954 q 638 951 638 954 q 634 946 638 949 q 629 944 631 943 l 479 1015 l 328 944 q 321 948 325 943 q 319 954 317 953 l 463 1096 m 594 1008 q 592 1026 592 1022 q 600 1060 592 1043 q 610 1079 608 1076 q 628 1131 628 1110 q 614 1163 628 1151 q 582 1174 600 1174 q 551 1167 565 1174 l 550 1167 q 542 1172 546 1167 q 542 1178 538 1176 q 585 1197 563 1190 q 625 1204 608 1204 q 676 1186 657 1204 q 696 1144 696 1168 q 683 1109 696 1125 q 649 1072 671 1093 q 617 1038 626 1051 q 610 1008 607 1024 q 603 1005 611 1006 q 594 1008 596 1004 z "},"Ẫ":{"ha":981,"x_min":-7,"x_max":985,"o":"m 276 393 l 654 393 l 664 363 l 260 363 l 276 393 m 978 17 q 985 8 985 17 q 978 0 985 0 q 896 3 951 0 q 813 6 838 6 q 733 3 781 6 q 663 0 686 0 q 657 8 657 0 q 663 17 657 17 q 731 26 710 17 q 751 58 751 35 q 731 124 751 82 l 432 744 l 476 811 l 206 183 q 186 106 186 136 q 221 39 186 61 q 321 17 256 17 q 328 8 328 17 q 321 0 328 0 q 249 3 296 0 q 157 6 196 6 q 71 3 121 6 q -1 0 26 0 q -7 8 -7 0 q -1 17 -7 17 q 65 32 38 17 q 117 85 92 47 q 174 196 142 122 l 469 878 q 479 883 471 882 q 489 878 488 883 l 822 190 q 903 53 871 89 q 978 17 936 17 m 463 1096 q 479 1103 469 1103 q 494 1096 488 1103 l 636 954 q 638 951 638 954 q 634 946 638 949 q 629 944 631 943 l 479 1015 l 328 944 q 321 948 325 943 q 319 954 317 953 l 463 1096 m 594 1179 q 633 1188 618 1179 q 664 1217 647 1197 l 665 1217 q 673 1213 669 1217 q 674 1207 676 1210 q 614 1132 638 1151 q 563 1113 590 1113 q 479 1129 535 1113 q 444 1139 474 1131 q 383 1147 414 1147 q 349 1140 361 1147 q 327 1124 336 1133 q 314 1110 318 1114 l 311 1110 q 304 1113 307 1110 q 304 1119 301 1117 q 422 1213 367 1213 q 492 1199 442 1213 q 594 1179 556 1179 z "},"Ȁ":{"ha":981,"x_min":-7,"x_max":985,"o":"m 276 393 l 654 393 l 664 363 l 260 363 l 276 393 m 978 17 q 985 8 985 17 q 978 0 985 0 q 896 3 951 0 q 813 6 838 6 q 733 3 781 6 q 663 0 686 0 q 657 8 657 0 q 663 17 657 17 q 731 26 710 17 q 751 58 751 35 q 731 124 751 82 l 432 744 l 476 811 l 206 183 q 186 106 186 136 q 221 39 186 61 q 321 17 256 17 q 328 8 328 17 q 321 0 328 0 q 249 3 296 0 q 157 6 196 6 q 71 3 121 6 q -1 0 26 0 q -7 8 -7 0 q -1 17 -7 17 q 65 32 38 17 q 117 85 92 47 q 174 196 142 122 l 469 878 q 479 883 471 882 q 489 878 488 883 l 822 190 q 903 53 871 89 q 978 17 936 17 m 625 938 q 411 1057 519 1011 q 424 1075 400 1063 q 477 1095 447 1088 q 511 1096 507 1103 q 636 950 568 1022 q 638 946 638 949 q 633 938 638 942 q 625 938 629 935 m 442 938 q 336 1004 385 976 q 229 1057 288 1032 q 241 1075 218 1063 q 294 1095 264 1088 q 328 1096 324 1103 q 453 950 403 1001 q 454 946 454 949 q 450 938 454 942 q 442 938 446 935 z "},"Ä":{"ha":981,"x_min":-7,"x_max":985,"o":"m 276 393 l 654 393 l 664 363 l 260 363 l 276 393 m 978 17 q 985 8 985 17 q 978 0 985 0 q 896 3 951 0 q 813 6 838 6 q 733 3 781 6 q 663 0 686 0 q 657 8 657 0 q 663 17 657 17 q 731 26 710 17 q 751 58 751 35 q 731 124 751 82 l 432 744 l 476 811 l 206 183 q 186 106 186 136 q 221 39 186 61 q 321 17 256 17 q 328 8 328 17 q 321 0 328 0 q 249 3 296 0 q 157 6 196 6 q 71 3 121 6 q -1 0 26 0 q -7 8 -7 0 q -1 17 -7 17 q 65 32 38 17 q 117 85 92 47 q 174 196 142 122 l 469 878 q 479 883 471 882 q 489 878 488 883 l 822 190 q 903 53 871 89 q 978 17 936 17 m 360 989 q 312 1006 329 989 q 294 1053 294 1022 q 312 1098 294 1082 q 360 1114 329 1114 q 405 1098 389 1114 q 421 1053 421 1082 q 405 1006 421 1022 q 360 989 389 989 m 601 989 q 555 1006 572 989 q 538 1053 538 1022 q 555 1098 538 1082 q 601 1114 572 1114 q 648 1098 632 1114 q 664 1053 664 1082 q 648 1006 664 1022 q 601 989 632 989 z "},"Ạ":{"ha":981,"x_min":-7,"x_max":985,"o":"m 276 393 l 654 393 l 664 363 l 260 363 l 276 393 m 978 17 q 985 8 985 17 q 978 0 985 0 q 896 3 951 0 q 813 6 838 6 q 733 3 781 6 q 663 0 686 0 q 657 8 657 0 q 663 17 657 17 q 731 26 710 17 q 751 58 751 35 q 731 124 751 82 l 432 744 l 476 811 l 206 183 q 186 106 186 136 q 221 39 186 61 q 321 17 256 17 q 328 8 328 17 q 321 0 328 0 q 249 3 296 0 q 157 6 196 6 q 71 3 121 6 q -1 0 26 0 q -7 8 -7 0 q -1 17 -7 17 q 65 32 38 17 q 117 85 92 47 q 174 196 142 122 l 469 878 q 479 883 471 882 q 489 878 488 883 l 822 190 q 903 53 871 89 q 978 17 936 17 m 493 -271 q 443 -253 461 -271 q 425 -204 425 -236 q 443 -157 425 -174 q 493 -140 461 -140 q 541 -157 524 -140 q 558 -204 558 -174 q 542 -253 558 -236 q 493 -271 525 -271 z "},"À":{"ha":981,"x_min":-7,"x_max":985,"o":"m 276 393 l 654 393 l 664 363 l 260 363 l 276 393 m 978 17 q 985 8 985 17 q 978 0 985 0 q 896 3 951 0 q 813 6 838 6 q 733 3 781 6 q 663 0 686 0 q 657 8 657 0 q 663 17 657 17 q 731 26 710 17 q 751 58 751 35 q 731 124 751 82 l 432 744 l 476 811 l 206 183 q 186 106 186 136 q 221 39 186 61 q 321 17 256 17 q 328 8 328 17 q 321 0 328 0 q 249 3 296 0 q 157 6 196 6 q 71 3 121 6 q -1 0 26 0 q -7 8 -7 0 q -1 17 -7 17 q 65 32 38 17 q 117 85 92 47 q 174 196 142 122 l 469 878 q 479 883 471 882 q 489 878 488 883 l 822 190 q 903 53 871 89 q 978 17 936 17 m 618 943 q 308 1050 461 1013 q 320 1065 296 1053 q 376 1088 344 1078 q 414 1093 407 1097 q 481 1047 447 1072 q 538 1010 494 1039 q 624 957 582 981 q 626 951 626 956 q 624 944 626 947 q 618 943 621 942 z "},"Ả":{"ha":981,"x_min":-7,"x_max":985,"o":"m 276 393 l 654 393 l 664 363 l 260 363 l 276 393 m 978 17 q 985 8 985 17 q 978 0 985 0 q 896 3 951 0 q 813 6 838 6 q 733 3 781 6 q 663 0 686 0 q 657 8 657 0 q 663 17 657 17 q 731 26 710 17 q 751 58 751 35 q 731 124 751 82 l 432 744 l 476 811 l 206 183 q 186 106 186 136 q 221 39 186 61 q 321 17 256 17 q 328 8 328 17 q 321 0 328 0 q 249 3 296 0 q 157 6 196 6 q 71 3 121 6 q -1 0 26 0 q -7 8 -7 0 q -1 17 -7 17 q 65 32 38 17 q 117 85 92 47 q 174 196 142 122 l 469 878 q 479 883 471 882 q 489 878 488 883 l 822 190 q 903 53 871 89 q 978 17 936 17 m 482 904 q 476 901 483 901 q 467 904 468 901 q 463 935 463 921 q 469 974 463 956 q 489 1017 476 993 q 508 1054 501 1039 q 514 1088 514 1069 q 499 1128 514 1114 q 461 1142 485 1142 q 419 1131 444 1142 l 417 1131 q 409 1135 413 1131 q 410 1142 406 1139 q 507 1174 454 1174 q 574 1153 550 1174 q 599 1101 599 1133 q 583 1053 599 1075 q 538 1000 568 1032 q 492 949 507 971 q 482 904 478 928 z "},"Ȃ":{"ha":981,"x_min":-7,"x_max":985,"o":"m 276 393 l 654 393 l 664 363 l 260 363 l 276 393 m 978 17 q 985 8 985 17 q 978 0 985 0 q 896 3 951 0 q 813 6 838 6 q 733 3 781 6 q 663 0 686 0 q 657 8 657 0 q 663 17 657 17 q 731 26 710 17 q 751 58 751 35 q 731 124 751 82 l 432 744 l 476 811 l 206 183 q 186 106 186 136 q 221 39 186 61 q 321 17 256 17 q 328 8 328 17 q 321 0 328 0 q 249 3 296 0 q 157 6 196 6 q 71 3 121 6 q -1 0 26 0 q -7 8 -7 0 q -1 17 -7 17 q 65 32 38 17 q 117 85 92 47 q 174 196 142 122 l 469 878 q 479 883 471 882 q 489 878 488 883 l 822 190 q 903 53 871 89 q 978 17 936 17 m 351 946 q 343 942 350 942 q 336 949 336 943 q 380 1065 343 1025 q 479 1104 417 1104 q 578 1065 543 1104 q 621 949 614 1025 q 615 942 622 943 q 606 946 607 942 q 562 1005 599 979 q 479 1031 525 1031 q 395 1005 432 1031 q 351 946 358 979 z "},"Ā":{"ha":981,"x_min":-7,"x_max":985,"o":"m 276 393 l 654 393 l 664 363 l 260 363 l 276 393 m 978 17 q 985 8 985 17 q 978 0 985 0 q 896 3 951 0 q 813 6 838 6 q 733 3 781 6 q 663 0 686 0 q 657 8 657 0 q 663 17 657 17 q 731 26 710 17 q 751 58 751 35 q 731 124 751 82 l 432 744 l 476 811 l 206 183 q 186 106 186 136 q 221 39 186 61 q 321 17 256 17 q 328 8 328 17 q 321 0 328 0 q 249 3 296 0 q 157 6 196 6 q 71 3 121 6 q -1 0 26 0 q -7 8 -7 0 q -1 17 -7 17 q 65 32 38 17 q 117 85 92 47 q 174 196 142 122 l 469 878 q 479 883 471 882 q 489 878 488 883 l 822 190 q 903 53 871 89 q 978 17 936 17 m 304 999 q 297 1006 300 999 q 294 1021 294 1013 q 297 1035 294 1029 q 304 1042 300 1042 l 653 1042 q 661 1035 658 1042 q 664 1021 664 1029 q 661 1006 664 1013 q 653 999 658 999 l 304 999 z "},"Ą":{"ha":983,"x_min":-7,"x_max":985,"o":"m 744 -382 q 622 -341 667 -382 q 576 -232 576 -300 q 601 -141 576 -178 q 672 -58 625 -104 q 728 3 710 -22 q 746 61 746 29 q 731 121 746 90 l 431 740 l 476 811 l 206 183 q 186 106 186 136 q 221 39 186 61 q 321 17 256 17 q 328 8 328 17 q 321 0 328 0 q 249 3 296 0 q 157 6 196 6 q 71 3 121 6 q -1 0 26 0 q -7 8 -7 0 q -1 17 -7 17 q 65 32 38 17 q 117 85 92 47 q 172 196 142 122 l 469 878 q 479 883 471 882 q 489 878 488 883 l 822 189 q 903 51 869 90 q 978 13 938 13 q 985 5 985 13 q 978 -3 985 -3 q 900 0 947 -3 l 838 1 q 719 -47 765 1 q 672 -172 672 -94 q 709 -289 672 -243 q 813 -335 746 -335 q 885 -318 851 -335 l 886 -318 q 894 -322 890 -318 q 894 -329 897 -326 q 744 -382 828 -382 m 276 393 l 654 393 l 664 363 l 260 363 l 276 393 z "},"Å":{"ha":981,"x_min":-7,"x_max":985,"o":"m 276 393 l 654 393 l 664 363 l 260 363 l 276 393 m 978 17 q 985 8 985 17 q 978 0 985 0 q 896 3 951 0 q 813 6 838 6 q 733 3 781 6 q 663 0 686 0 q 657 8 657 0 q 663 17 657 17 q 731 26 710 17 q 751 58 751 35 q 731 124 751 82 l 432 744 l 476 811 l 206 183 q 186 106 186 136 q 221 39 186 61 q 321 17 256 17 q 328 8 328 17 q 321 0 328 0 q 249 3 296 0 q 157 6 196 6 q 71 3 121 6 q -1 0 26 0 q -7 8 -7 0 q -1 17 -7 17 q 65 32 38 17 q 117 85 92 47 q 174 196 142 122 l 469 878 q 479 883 471 882 q 489 878 488 883 l 822 190 q 903 53 871 89 q 978 17 936 17 m 471 921 q 377 953 413 921 q 342 1031 342 986 q 385 1109 342 1081 q 485 1138 429 1138 q 576 1106 538 1138 q 614 1028 614 1074 q 570 950 614 979 q 471 921 526 921 m 492 938 q 527 953 515 938 q 539 1003 539 968 q 515 1087 539 1051 q 457 1122 492 1122 q 425 1107 435 1122 q 415 1058 415 1092 q 436 975 415 1013 q 492 938 457 938 z "},"Ǻ":{"ha":981,"x_min":-7,"x_max":985,"o":"m 276 393 l 654 393 l 664 363 l 260 363 l 276 393 m 978 17 q 985 8 985 17 q 978 0 985 0 q 896 3 951 0 q 813 6 838 6 q 733 3 781 6 q 663 0 686 0 q 657 8 657 0 q 663 17 657 17 q 731 26 710 17 q 751 58 751 35 q 731 124 751 82 l 432 744 l 476 811 l 206 183 q 186 106 186 136 q 221 39 186 61 q 321 17 256 17 q 328 8 328 17 q 321 0 328 0 q 249 3 296 0 q 157 6 196 6 q 71 3 121 6 q -1 0 26 0 q -7 8 -7 0 q -1 17 -7 17 q 65 32 38 17 q 117 85 92 47 q 174 196 142 122 l 469 878 q 479 883 471 882 q 489 878 488 883 l 822 190 q 903 53 871 89 q 978 17 936 17 m 469 938 q 381 965 414 938 q 347 1032 347 993 q 390 1099 347 1074 q 483 1124 432 1124 q 575 1096 536 1124 q 614 1029 614 1068 q 570 963 614 988 q 469 938 526 938 m 492 954 q 526 966 515 954 q 538 1004 538 978 q 515 1077 538 1047 q 458 1107 492 1107 q 414 1060 414 1107 q 435 987 414 1019 q 492 954 457 954 m 350 1133 q 344 1140 346 1133 q 346 1147 342 1146 q 403 1176 379 1164 q 444 1197 426 1189 q 533 1243 518 1236 q 566 1235 539 1247 q 613 1210 593 1224 q 624 1194 633 1196 q 353 1133 490 1172 l 350 1133 z "},"Ã":{"ha":981,"x_min":-7,"x_max":985,"o":"m 276 393 l 654 393 l 664 363 l 260 363 l 276 393 m 978 17 q 985 8 985 17 q 978 0 985 0 q 896 3 951 0 q 813 6 838 6 q 733 3 781 6 q 663 0 686 0 q 657 8 657 0 q 663 17 657 17 q 731 26 710 17 q 751 58 751 35 q 731 124 751 82 l 432 744 l 476 811 l 206 183 q 186 106 186 136 q 221 39 186 61 q 321 17 256 17 q 328 8 328 17 q 321 0 328 0 q 249 3 296 0 q 157 6 196 6 q 71 3 121 6 q -1 0 26 0 q -7 8 -7 0 q -1 17 -7 17 q 65 32 38 17 q 117 85 92 47 q 174 196 142 122 l 469 878 q 479 883 471 882 q 489 878 488 883 l 822 190 q 903 53 871 89 q 978 17 936 17 m 585 1051 q 624 1060 608 1051 q 654 1089 639 1069 l 656 1089 q 663 1085 660 1089 q 664 1079 667 1082 q 604 1004 628 1024 q 553 985 581 985 q 469 1001 525 985 q 434 1011 464 1003 q 374 1019 404 1019 q 340 1013 351 1019 q 319 997 329 1007 q 304 982 310 988 l 301 982 q 294 985 297 982 q 294 992 292 989 q 414 1085 357 1085 q 482 1071 432 1085 q 585 1051 546 1051 z "},"Æ":{"ha":1221,"x_min":-7,"x_max":1153,"o":"m 0 0 q -7 8 -7 0 q 0 17 -7 17 q 207 183 94 17 l 622 797 q 640 832 640 822 q 617 848 640 844 q 533 851 594 851 q 529 860 529 851 q 533 868 529 868 l 1094 868 q 1108 856 1108 868 l 1111 681 q 1103 676 1111 676 q 1094 679 1096 675 q 1068 755 1090 718 q 1010 814 1046 792 q 931 836 974 836 l 860 836 q 780 819 801 836 q 758 754 758 801 l 758 118 q 778 50 758 68 q 853 32 797 32 l 943 32 q 1065 83 1008 32 q 1138 211 1121 135 q 1143 214 1138 214 q 1149 212 1146 214 q 1153 208 1153 210 q 1140 21 1140 96 q 1135 5 1140 10 q 1119 0 1131 0 l 540 0 q 538 8 538 0 q 540 17 538 17 q 613 24 590 17 q 644 51 636 31 q 653 113 653 71 l 653 817 l 692 839 l 251 181 q 213 81 213 121 q 318 17 213 17 q 325 8 325 17 q 318 0 325 0 q 242 3 292 0 q 140 6 183 6 q 63 3 107 6 q 0 0 24 0 m 424 468 l 725 468 l 735 436 l 403 436 l 424 468 m 1042 319 q 1007 408 1042 379 q 900 436 972 436 l 692 436 l 692 468 l 903 468 q 1006 492 974 468 q 1039 568 1039 517 q 1047 571 1039 571 q 1056 568 1056 571 l 1054 451 q 1056 389 1054 410 l 1057 319 q 1049 317 1057 317 q 1042 319 1042 317 z "},"Ǽ":{"ha":1221,"x_min":-7,"x_max":1153,"o":"m 0 0 q -7 8 -7 0 q 0 17 -7 17 q 207 183 94 17 l 622 797 q 640 832 640 822 q 617 848 640 844 q 533 851 594 851 q 529 860 529 851 q 533 868 529 868 l 1094 868 q 1108 856 1108 868 l 1111 681 q 1103 676 1111 676 q 1094 679 1096 675 q 1068 755 1090 718 q 1010 814 1046 792 q 931 836 974 836 l 860 836 q 780 819 801 836 q 758 754 758 801 l 758 118 q 778 50 758 68 q 853 32 797 32 l 943 32 q 1065 83 1008 32 q 1138 211 1121 135 q 1143 214 1138 214 q 1149 212 1146 214 q 1153 208 1153 210 q 1140 21 1140 96 q 1135 5 1140 10 q 1119 0 1131 0 l 540 0 q 538 8 538 0 q 540 17 538 17 q 613 24 590 17 q 644 51 636 31 q 653 113 653 71 l 653 817 l 692 839 l 251 181 q 213 81 213 121 q 318 17 213 17 q 325 8 325 17 q 318 0 325 0 q 242 3 292 0 q 140 6 183 6 q 63 3 107 6 q 0 0 24 0 m 424 468 l 725 468 l 735 436 l 403 436 l 424 468 m 1042 319 q 1007 408 1042 379 q 900 436 972 436 l 692 436 l 692 468 l 903 468 q 1006 492 974 468 q 1039 568 1039 517 q 1047 571 1039 571 q 1056 568 1056 571 l 1054 451 q 1056 389 1054 410 l 1057 319 q 1049 317 1057 317 q 1042 319 1042 317 m 667 942 q 660 948 661 942 q 663 957 658 954 q 806 1049 713 985 q 872 1093 850 1079 q 910 1088 879 1097 q 966 1065 942 1078 q 978 1050 990 1053 q 820 1003 892 1029 q 669 943 749 978 l 667 942 z "},"Ǣ":{"ha":1221,"x_min":-7,"x_max":1153,"o":"m 0 0 q -7 8 -7 0 q 0 17 -7 17 q 207 183 94 17 l 622 797 q 640 832 640 822 q 617 848 640 844 q 533 851 594 851 q 529 860 529 851 q 533 868 529 868 l 1094 868 q 1108 856 1108 868 l 1111 681 q 1103 676 1111 676 q 1094 679 1096 675 q 1068 755 1090 718 q 1010 814 1046 792 q 931 836 974 836 l 860 836 q 780 819 801 836 q 758 754 758 801 l 758 118 q 778 50 758 68 q 853 32 797 32 l 943 32 q 1065 83 1008 32 q 1138 211 1121 135 q 1143 214 1138 214 q 1149 212 1146 214 q 1153 208 1153 210 q 1140 21 1140 96 q 1135 5 1140 10 q 1119 0 1131 0 l 540 0 q 538 8 538 0 q 540 17 538 17 q 613 24 590 17 q 644 51 636 31 q 653 113 653 71 l 653 817 l 692 839 l 251 181 q 213 81 213 121 q 318 17 213 17 q 325 8 325 17 q 318 0 325 0 q 242 3 292 0 q 140 6 183 6 q 63 3 107 6 q 0 0 24 0 m 424 468 l 725 468 l 735 436 l 403 436 l 424 468 m 1042 319 q 1007 408 1042 379 q 900 436 972 436 l 692 436 l 692 468 l 903 468 q 1006 492 974 468 q 1039 568 1039 517 q 1047 571 1039 571 q 1056 568 1056 571 l 1054 451 q 1056 389 1054 410 l 1057 319 q 1049 317 1057 317 q 1042 319 1042 317 m 629 999 q 619 1021 619 999 q 629 1042 619 1042 l 978 1042 q 986 1035 983 1042 q 989 1021 989 1029 q 986 1006 989 1013 q 978 999 983 999 l 629 999 z "},"B":{"ha":792,"x_min":56,"x_max":721,"o":"m 435 490 q 585 460 519 490 q 685 376 650 429 q 721 254 721 322 q 683 122 721 181 q 578 28 644 63 q 431 -6 513 -6 q 333 -1 386 -6 q 288 1 314 0 q 228 3 261 3 l 131 1 q 60 0 104 0 q 56 8 56 0 q 60 17 56 17 q 132 24 108 17 q 165 51 156 32 q 174 113 174 71 l 174 756 q 165 817 174 797 q 133 844 156 836 q 61 851 110 851 q 58 860 58 851 q 61 868 58 868 l 131 867 q 228 864 192 864 q 310 868 267 864 q 347 871 325 869 q 393 872 368 872 q 574 823 513 872 q 636 690 636 774 q 578 554 636 613 q 419 472 519 496 l 435 490 m 367 849 q 316 842 333 849 q 291 815 299 835 q 283 753 283 794 l 283 481 l 238 492 q 344 488 297 488 q 482 540 436 488 q 528 679 528 593 q 488 803 528 758 q 367 849 449 849 m 408 22 q 555 74 507 22 q 603 221 603 125 q 544 390 603 326 q 379 456 486 454 q 242 449 310 458 l 283 464 l 283 113 q 293 59 283 78 q 329 31 303 40 q 408 22 356 22 z "},"C":{"ha":950,"x_min":68,"x_max":882,"o":"m 578 883 q 720 872 658 883 q 836 833 782 860 q 849 824 846 829 q 853 803 851 819 l 871 629 q 863 624 871 625 q 854 628 856 622 q 568 860 783 860 q 374 808 458 860 q 242 663 289 757 q 196 442 196 568 q 247 219 196 318 q 384 63 297 119 q 575 7 471 7 q 753 62 683 7 q 865 232 822 117 q 872 235 867 235 q 878 233 875 235 q 882 229 882 231 l 867 71 q 863 50 865 54 q 849 40 860 46 q 715 -5 779 8 q 575 -18 651 -18 q 313 40 428 -18 q 133 200 197 97 q 68 436 68 303 q 134 669 68 567 q 317 827 200 771 q 578 883 433 883 z "},"Ć":{"ha":950,"x_min":68,"x_max":882,"o":"m 578 883 q 720 872 658 883 q 836 833 782 860 q 849 824 846 829 q 853 803 851 819 l 871 629 q 863 624 871 625 q 854 628 856 622 q 568 860 783 860 q 374 808 458 860 q 242 663 289 757 q 196 442 196 568 q 247 219 196 318 q 384 63 297 119 q 575 7 471 7 q 753 62 683 7 q 865 232 822 117 q 872 235 867 235 q 878 233 875 235 q 882 229 882 231 l 867 71 q 863 50 865 54 q 849 40 860 46 q 715 -5 779 8 q 575 -18 651 -18 q 313 40 428 -18 q 133 200 197 97 q 68 436 68 303 q 134 669 68 567 q 317 827 200 771 q 578 883 433 883 m 408 942 q 401 948 403 942 q 404 957 400 954 q 547 1049 454 985 q 614 1093 592 1079 q 652 1088 621 1097 q 708 1065 683 1078 q 719 1050 732 1053 q 562 1003 633 1029 q 411 943 490 978 l 408 942 z "},"Č":{"ha":950,"x_min":68,"x_max":882,"o":"m 578 883 q 720 872 658 883 q 836 833 782 860 q 849 824 846 829 q 853 803 851 819 l 871 629 q 863 624 871 625 q 854 628 856 622 q 568 860 783 860 q 374 808 458 860 q 242 663 289 757 q 196 442 196 568 q 247 219 196 318 q 384 63 297 119 q 575 7 471 7 q 753 62 683 7 q 865 232 822 117 q 872 235 867 235 q 878 233 875 235 q 882 229 882 231 l 867 71 q 863 50 865 54 q 849 40 860 46 q 715 -5 779 8 q 575 -18 651 -18 q 313 40 428 -18 q 133 200 197 97 q 68 436 68 303 q 134 669 68 567 q 317 827 200 771 q 578 883 433 883 m 385 1099 q 389 1104 385 1101 q 394 1106 393 1107 l 546 1035 l 696 1107 l 697 1107 q 703 1103 701 1107 q 703 1097 706 1100 l 561 954 q 546 949 556 949 q 529 954 535 949 l 386 1096 l 385 1099 z "},"Ç":{"ha":950,"x_min":68,"x_max":882,"o":"m 578 883 q 720 872 658 883 q 836 833 782 860 q 849 824 846 829 q 853 803 851 819 l 871 629 q 863 624 871 625 q 854 628 856 622 q 568 860 783 860 q 374 808 458 860 q 242 663 289 757 q 196 442 196 568 q 247 219 196 318 q 384 63 297 119 q 575 7 471 7 q 753 62 683 7 q 865 232 822 117 q 872 235 867 235 q 878 233 875 235 q 882 229 882 231 l 867 71 q 863 50 865 54 q 849 40 860 46 q 715 -5 779 8 q 575 -18 651 -18 q 313 40 428 -18 q 133 200 197 97 q 68 436 68 303 q 134 669 68 567 q 317 827 200 771 q 578 883 433 883 m 575 -3 q 561 -69 561 -44 q 574 -105 561 -92 q 619 -137 586 -118 q 675 -182 654 -157 q 696 -244 696 -207 q 658 -340 696 -299 q 543 -382 619 -382 q 475 -367 500 -382 q 450 -325 450 -353 q 464 -293 450 -307 q 496 -279 478 -279 q 524 -288 515 -279 q 542 -315 533 -297 q 560 -343 550 -333 q 590 -353 569 -353 q 633 -306 633 -353 q 608 -241 633 -269 q 515 -176 582 -212 q 497 -158 497 -167 q 504 -135 497 -153 q 544 -31 525 -85 l 556 -1 l 575 -3 z "},"Ĉ":{"ha":950,"x_min":68,"x_max":882,"o":"m 578 883 q 720 872 658 883 q 836 833 782 860 q 849 824 846 829 q 853 803 851 819 l 871 629 q 863 624 871 625 q 854 628 856 622 q 568 860 783 860 q 374 808 458 860 q 242 663 289 757 q 196 442 196 568 q 247 219 196 318 q 384 63 297 119 q 575 7 471 7 q 753 62 683 7 q 865 232 822 117 q 872 235 867 235 q 878 233 875 235 q 882 229 882 231 l 867 71 q 863 50 865 54 q 849 40 860 46 q 715 -5 779 8 q 575 -18 651 -18 q 313 40 428 -18 q 133 200 197 97 q 68 436 68 303 q 134 669 68 567 q 317 827 200 771 q 578 883 433 883 m 531 1110 q 547 1117 538 1117 q 563 1110 556 1117 l 704 965 q 706 963 706 965 q 702 957 706 960 q 697 956 699 954 l 547 1028 l 396 956 q 389 959 393 954 q 388 965 385 964 l 531 1110 z "},"Ċ":{"ha":950,"x_min":68,"x_max":882,"o":"m 578 883 q 720 872 658 883 q 836 833 782 860 q 849 824 846 829 q 853 803 851 819 l 871 629 q 863 624 871 625 q 854 628 856 622 q 568 860 783 860 q 374 808 458 860 q 242 663 289 757 q 196 442 196 568 q 247 219 196 318 q 384 63 297 119 q 575 7 471 7 q 753 62 683 7 q 865 232 822 117 q 872 235 867 235 q 878 233 875 235 q 882 229 882 231 l 867 71 q 863 50 865 54 q 849 40 860 46 q 715 -5 779 8 q 575 -18 651 -18 q 313 40 428 -18 q 133 200 197 97 q 68 436 68 303 q 134 669 68 567 q 317 827 200 771 q 578 883 433 883 m 546 990 q 496 1008 514 990 q 478 1058 478 1026 q 496 1105 478 1088 q 546 1122 514 1122 q 594 1105 576 1122 q 611 1058 611 1088 q 594 1008 611 1026 q 546 990 576 990 z "},"D":{"ha":967,"x_min":43,"x_max":899,"o":"m 431 -6 q 333 -1 388 -6 q 283 1 313 0 q 215 3 253 3 l 118 1 q 46 0 92 0 q 43 8 43 0 q 46 17 43 17 q 119 24 96 17 q 152 51 143 31 q 161 113 161 71 l 161 756 q 153 817 161 797 q 122 844 144 836 q 49 851 99 851 q 44 860 44 851 q 49 868 44 868 l 118 867 q 215 864 179 864 q 321 868 267 864 q 411 871 388 871 q 665 815 554 871 q 838 664 776 760 q 899 449 899 568 q 835 210 899 314 q 665 51 772 107 q 431 -6 557 -6 m 417 19 q 601 66 521 19 q 727 202 682 113 q 772 418 772 292 q 729 637 772 539 q 608 791 686 735 q 425 847 529 847 q 333 840 365 847 q 286 813 301 833 q 271 753 271 793 l 271 128 q 283 65 271 88 q 326 31 294 42 q 417 19 357 19 z "},"Ð":{"ha":967,"x_min":43,"x_max":899,"o":"m 74 417 q 68 432 68 417 q 74 447 68 447 l 460 447 q 465 432 465 447 q 460 417 465 417 l 74 417 m 431 -6 q 333 -1 388 -6 q 283 1 313 0 q 215 3 253 3 l 118 1 q 46 0 92 0 q 43 8 43 0 q 46 17 43 17 q 119 24 96 17 q 152 51 143 31 q 161 113 161 71 l 161 756 q 153 817 161 797 q 122 844 144 836 q 49 851 99 851 q 44 860 44 851 q 49 868 44 868 l 118 867 q 215 864 179 864 q 321 868 267 864 q 411 871 388 871 q 665 815 554 871 q 838 664 776 760 q 899 449 899 568 q 835 210 899 314 q 665 51 772 107 q 431 -6 557 -6 m 417 19 q 601 66 521 19 q 727 202 682 113 q 772 418 772 292 q 729 637 772 539 q 608 791 686 735 q 425 847 529 847 q 333 840 365 847 q 286 813 301 833 q 271 753 271 793 l 271 128 q 283 65 271 88 q 326 31 294 42 q 417 19 357 19 z "},"Ď":{"ha":967,"x_min":43,"x_max":899,"o":"m 431 -6 q 333 -1 388 -6 q 283 1 313 0 q 215 3 253 3 l 118 1 q 46 0 92 0 q 43 8 43 0 q 46 17 43 17 q 119 24 96 17 q 152 51 143 31 q 161 113 161 71 l 161 756 q 153 817 161 797 q 122 844 144 836 q 49 851 99 851 q 44 860 44 851 q 49 868 44 868 l 118 867 q 215 864 179 864 q 321 868 267 864 q 411 871 388 871 q 665 815 554 871 q 838 664 776 760 q 899 449 899 568 q 835 210 899 314 q 665 51 772 107 q 431 -6 557 -6 m 417 19 q 601 66 521 19 q 727 202 682 113 q 772 418 772 292 q 729 637 772 539 q 608 791 686 735 q 425 847 529 847 q 333 840 365 847 q 286 813 301 833 q 271 753 271 793 l 271 128 q 283 65 271 88 q 326 31 294 42 q 417 19 357 19 m 283 1099 q 288 1104 283 1101 q 293 1106 292 1107 l 444 1035 l 594 1107 l 596 1107 q 602 1103 600 1107 q 601 1097 604 1100 l 460 954 q 444 949 454 949 q 428 954 433 949 l 285 1096 l 283 1099 z "},"Đ":{"ha":967,"x_min":43,"x_max":899,"o":"m 74 417 q 68 432 68 417 q 74 447 68 447 l 460 447 q 465 432 465 447 q 460 417 465 417 l 74 417 m 431 -6 q 333 -1 388 -6 q 283 1 313 0 q 215 3 253 3 l 118 1 q 46 0 92 0 q 43 8 43 0 q 46 17 43 17 q 119 24 96 17 q 152 51 143 31 q 161 113 161 71 l 161 756 q 153 817 161 797 q 122 844 144 836 q 49 851 99 851 q 44 860 44 851 q 49 868 44 868 l 118 867 q 215 864 179 864 q 321 868 267 864 q 411 871 388 871 q 665 815 554 871 q 838 664 776 760 q 899 449 899 568 q 835 210 899 314 q 665 51 772 107 q 431 -6 557 -6 m 417 19 q 601 66 521 19 q 727 202 682 113 q 772 418 772 292 q 729 637 772 539 q 608 791 686 735 q 425 847 529 847 q 333 840 365 847 q 286 813 301 833 q 271 753 271 793 l 271 128 q 283 65 271 88 q 326 31 294 42 q 417 19 357 19 z "},"Ḍ":{"ha":967,"x_min":43,"x_max":899,"o":"m 431 -6 q 333 -1 388 -6 q 283 1 313 0 q 215 3 253 3 l 118 1 q 46 0 92 0 q 43 8 43 0 q 46 17 43 17 q 119 24 96 17 q 152 51 143 31 q 161 113 161 71 l 161 756 q 153 817 161 797 q 122 844 144 836 q 49 851 99 851 q 44 860 44 851 q 49 868 44 868 l 118 867 q 215 864 179 864 q 321 868 267 864 q 411 871 388 871 q 665 815 554 871 q 838 664 776 760 q 899 449 899 568 q 835 210 899 314 q 665 51 772 107 q 431 -6 557 -6 m 417 19 q 601 66 521 19 q 727 202 682 113 q 772 418 772 292 q 729 637 772 539 q 608 791 686 735 q 425 847 529 847 q 333 840 365 847 q 286 813 301 833 q 271 753 271 793 l 271 128 q 283 65 271 88 q 326 31 294 42 q 417 19 357 19 m 456 -271 q 406 -253 424 -271 q 388 -204 388 -236 q 406 -157 388 -174 q 456 -140 424 -140 q 503 -157 486 -140 q 521 -204 521 -174 q 504 -253 521 -236 q 456 -271 488 -271 z "},"Ḏ":{"ha":967,"x_min":43,"x_max":899,"o":"m 431 -6 q 333 -1 388 -6 q 283 1 313 0 q 215 3 253 3 l 118 1 q 46 0 92 0 q 43 8 43 0 q 46 17 43 17 q 119 24 96 17 q 152 51 143 31 q 161 113 161 71 l 161 756 q 153 817 161 797 q 122 844 144 836 q 49 851 99 851 q 44 860 44 851 q 49 868 44 868 l 118 867 q 215 864 179 864 q 321 868 267 864 q 411 871 388 871 q 665 815 554 871 q 838 664 776 760 q 899 449 899 568 q 835 210 899 314 q 665 51 772 107 q 431 -6 557 -6 m 417 19 q 601 66 521 19 q 727 202 682 113 q 772 418 772 292 q 729 637 772 539 q 608 791 686 735 q 425 847 529 847 q 333 840 365 847 q 286 813 301 833 q 271 753 271 793 l 271 128 q 283 65 271 88 q 326 31 294 42 q 417 19 357 19 m 279 -161 q 269 -140 269 -161 q 279 -118 269 -118 l 628 -118 q 636 -125 633 -118 q 639 -140 639 -132 q 636 -155 639 -149 q 628 -161 633 -161 l 279 -161 z "},"E":{"ha":753,"x_min":56,"x_max":686,"o":"m 60 0 q 56 8 56 0 q 60 17 56 17 q 133 24 110 17 q 164 51 156 31 q 172 113 172 71 l 172 756 q 164 817 172 797 q 133 844 156 836 q 60 851 110 851 q 56 860 56 851 q 60 868 56 868 l 626 868 q 640 856 640 868 l 643 681 q 635 676 643 676 q 626 679 628 675 q 572 796 617 756 q 456 836 528 836 l 385 836 q 303 818 324 836 q 282 750 282 800 l 282 118 q 301 50 282 68 q 376 32 319 32 l 468 32 q 598 78 546 32 q 669 211 650 125 q 675 214 669 214 q 683 212 679 214 q 686 208 686 210 q 672 21 672 108 q 668 5 672 10 q 651 0 664 0 l 60 0 m 574 319 q 540 408 574 379 q 432 436 506 436 l 229 436 l 229 468 l 435 468 q 539 492 506 468 q 572 568 572 517 q 580 571 572 571 q 588 568 588 571 l 586 451 l 588 389 q 590 319 590 344 q 582 317 590 317 q 574 319 574 317 z "},"É":{"ha":753,"x_min":56,"x_max":686,"o":"m 60 0 q 56 8 56 0 q 60 17 56 17 q 133 24 110 17 q 164 51 156 31 q 172 113 172 71 l 172 756 q 164 817 172 797 q 133 844 156 836 q 60 851 110 851 q 56 860 56 851 q 60 868 56 868 l 626 868 q 640 856 640 868 l 643 681 q 635 676 643 676 q 626 679 628 675 q 572 796 617 756 q 456 836 528 836 l 385 836 q 303 818 324 836 q 282 750 282 800 l 282 118 q 301 50 282 68 q 376 32 319 32 l 468 32 q 598 78 546 32 q 669 211 650 125 q 675 214 669 214 q 683 212 679 214 q 686 208 686 210 q 672 21 672 108 q 668 5 672 10 q 651 0 664 0 l 60 0 m 574 319 q 540 408 574 379 q 432 436 506 436 l 229 436 l 229 468 l 435 468 q 539 492 506 468 q 572 568 572 517 q 580 571 572 571 q 588 568 588 571 l 586 451 l 588 389 q 590 319 590 344 q 582 317 590 317 q 574 319 574 317 m 271 942 q 264 948 265 942 q 267 957 263 954 q 410 1049 317 985 q 476 1093 454 1079 q 515 1088 483 1097 q 570 1065 546 1078 q 582 1050 594 1053 q 424 1003 496 1029 q 274 943 353 978 l 271 942 z "},"Ĕ":{"ha":753,"x_min":56,"x_max":686,"o":"m 60 0 q 56 8 56 0 q 60 17 56 17 q 133 24 110 17 q 164 51 156 31 q 172 113 172 71 l 172 756 q 164 817 172 797 q 133 844 156 836 q 60 851 110 851 q 56 860 56 851 q 60 868 56 868 l 626 868 q 640 856 640 868 l 643 681 q 635 676 643 676 q 626 679 628 675 q 572 796 617 756 q 456 836 528 836 l 385 836 q 303 818 324 836 q 282 750 282 800 l 282 118 q 301 50 282 68 q 376 32 319 32 l 468 32 q 598 78 546 32 q 669 211 650 125 q 675 214 669 214 q 683 212 679 214 q 686 208 686 210 q 672 21 672 108 q 668 5 672 10 q 651 0 664 0 l 60 0 m 574 319 q 540 408 574 379 q 432 436 506 436 l 229 436 l 229 468 l 435 468 q 539 492 506 468 q 572 568 572 517 q 580 571 572 571 q 588 568 588 571 l 586 451 l 588 389 q 590 319 590 344 q 582 317 590 317 q 574 319 574 317 m 408 958 q 309 999 346 958 q 265 1115 272 1040 q 272 1121 264 1121 q 281 1118 279 1121 q 324 1059 288 1085 q 408 1033 361 1033 q 491 1059 454 1033 q 535 1118 528 1085 q 542 1122 535 1122 q 550 1115 550 1121 q 507 999 543 1040 q 408 958 471 958 z "},"Ě":{"ha":753,"x_min":56,"x_max":686,"o":"m 60 0 q 56 8 56 0 q 60 17 56 17 q 133 24 110 17 q 164 51 156 31 q 172 113 172 71 l 172 756 q 164 817 172 797 q 133 844 156 836 q 60 851 110 851 q 56 860 56 851 q 60 868 56 868 l 626 868 q 640 856 640 868 l 643 681 q 635 676 643 676 q 626 679 628 675 q 572 796 617 756 q 456 836 528 836 l 385 836 q 303 818 324 836 q 282 750 282 800 l 282 118 q 301 50 282 68 q 376 32 319 32 l 468 32 q 598 78 546 32 q 669 211 650 125 q 675 214 669 214 q 683 212 679 214 q 686 208 686 210 q 672 21 672 108 q 668 5 672 10 q 651 0 664 0 l 60 0 m 574 319 q 540 408 574 379 q 432 436 506 436 l 229 436 l 229 468 l 435 468 q 539 492 506 468 q 572 568 572 517 q 580 571 572 571 q 588 568 588 571 l 586 451 l 588 389 q 590 319 590 344 q 582 317 590 317 q 574 319 574 317 m 247 1099 q 251 1104 247 1101 q 257 1106 256 1107 l 408 1035 l 558 1107 l 560 1107 q 566 1103 564 1107 q 565 1097 568 1100 l 424 954 q 408 949 418 949 q 392 954 397 949 l 249 1096 l 247 1099 z "},"Ê":{"ha":753,"x_min":56,"x_max":686,"o":"m 60 0 q 56 8 56 0 q 60 17 56 17 q 133 24 110 17 q 164 51 156 31 q 172 113 172 71 l 172 756 q 164 817 172 797 q 133 844 156 836 q 60 851 110 851 q 56 860 56 851 q 60 868 56 868 l 626 868 q 640 856 640 868 l 643 681 q 635 676 643 676 q 626 679 628 675 q 572 796 617 756 q 456 836 528 836 l 385 836 q 303 818 324 836 q 282 750 282 800 l 282 118 q 301 50 282 68 q 376 32 319 32 l 468 32 q 598 78 546 32 q 669 211 650 125 q 675 214 669 214 q 683 212 679 214 q 686 208 686 210 q 672 21 672 108 q 668 5 672 10 q 651 0 664 0 l 60 0 m 574 319 q 540 408 574 379 q 432 436 506 436 l 229 436 l 229 468 l 435 468 q 539 492 506 468 q 572 568 572 517 q 580 571 572 571 q 588 568 588 571 l 586 451 l 588 389 q 590 319 590 344 q 582 317 590 317 q 574 319 574 317 m 393 1110 q 410 1117 400 1117 q 425 1110 418 1117 l 567 965 q 568 963 568 965 q 565 957 568 960 q 560 956 561 954 l 410 1028 l 258 956 q 251 959 256 954 q 250 965 247 964 l 393 1110 z "},"Ế":{"ha":753,"x_min":56,"x_max":704,"o":"m 60 0 q 56 8 56 0 q 60 17 56 17 q 133 24 110 17 q 164 51 156 31 q 172 113 172 71 l 172 756 q 164 817 172 797 q 133 844 156 836 q 60 851 110 851 q 56 860 56 851 q 60 868 56 868 l 626 868 q 640 856 640 868 l 643 681 q 635 676 643 676 q 626 679 628 675 q 572 796 617 756 q 456 836 528 836 l 385 836 q 303 818 324 836 q 282 750 282 800 l 282 118 q 301 50 282 68 q 376 32 319 32 l 468 32 q 598 78 546 32 q 669 211 650 125 q 675 214 669 214 q 683 212 679 214 q 686 208 686 210 q 672 21 672 108 q 668 5 672 10 q 651 0 664 0 l 60 0 m 574 319 q 540 408 574 379 q 432 436 506 436 l 229 436 l 229 468 l 435 468 q 539 492 506 468 q 572 568 572 517 q 580 571 572 571 q 588 568 588 571 l 586 451 l 588 389 q 590 319 590 344 q 582 317 590 317 q 574 319 574 317 m 392 1096 q 408 1103 399 1103 q 424 1096 417 1103 l 565 954 q 567 951 567 954 q 563 946 567 949 q 558 944 560 943 l 408 1015 l 257 944 q 250 948 254 943 q 249 954 246 953 l 392 1096 m 494 1015 q 488 1021 490 1015 q 489 1029 486 1026 q 586 1167 538 1089 q 622 1164 590 1174 q 679 1141 654 1154 q 692 1124 704 1128 q 594 1078 638 1103 q 499 1017 550 1053 l 494 1015 z "},"Ệ":{"ha":753,"x_min":56,"x_max":686,"o":"m 60 0 q 56 8 56 0 q 60 17 56 17 q 133 24 110 17 q 164 51 156 31 q 172 113 172 71 l 172 756 q 164 817 172 797 q 133 844 156 836 q 60 851 110 851 q 56 860 56 851 q 60 868 56 868 l 626 868 q 640 856 640 868 l 643 681 q 635 676 643 676 q 626 679 628 675 q 572 796 617 756 q 456 836 528 836 l 385 836 q 303 818 324 836 q 282 750 282 800 l 282 118 q 301 50 282 68 q 376 32 319 32 l 468 32 q 598 78 546 32 q 669 211 650 125 q 675 214 669 214 q 683 212 679 214 q 686 208 686 210 q 672 21 672 108 q 668 5 672 10 q 651 0 664 0 l 60 0 m 574 319 q 540 408 574 379 q 432 436 506 436 l 229 436 l 229 468 l 435 468 q 539 492 506 468 q 572 568 572 517 q 580 571 572 571 q 588 568 588 571 l 586 451 l 588 389 q 590 319 590 344 q 582 317 590 317 q 574 319 574 317 m 404 -271 q 354 -253 372 -271 q 336 -204 336 -236 q 354 -157 336 -174 q 404 -140 372 -140 q 452 -157 435 -140 q 469 -204 469 -174 q 453 -253 469 -236 q 404 -271 436 -271 m 392 1096 q 408 1103 399 1103 q 424 1096 417 1103 l 565 954 q 567 951 567 954 q 563 946 567 949 q 558 944 560 943 l 408 1015 l 257 944 q 250 948 254 943 q 249 954 246 953 l 392 1096 z "},"Ề":{"ha":753,"x_min":56,"x_max":686,"o":"m 60 0 q 56 8 56 0 q 60 17 56 17 q 133 24 110 17 q 164 51 156 31 q 172 113 172 71 l 172 756 q 164 817 172 797 q 133 844 156 836 q 60 851 110 851 q 56 860 56 851 q 60 868 56 868 l 626 868 q 640 856 640 868 l 643 681 q 635 676 643 676 q 626 679 628 675 q 572 796 617 756 q 456 836 528 836 l 385 836 q 303 818 324 836 q 282 750 282 800 l 282 118 q 301 50 282 68 q 376 32 319 32 l 468 32 q 598 78 546 32 q 669 211 650 125 q 675 214 669 214 q 683 212 679 214 q 686 208 686 210 q 672 21 672 108 q 668 5 672 10 q 651 0 664 0 l 60 0 m 574 319 q 540 408 574 379 q 432 436 506 436 l 229 436 l 229 468 l 435 468 q 539 492 506 468 q 572 568 572 517 q 580 571 572 571 q 588 568 588 571 l 586 451 l 588 389 q 590 319 590 344 q 582 317 590 317 q 574 319 574 317 m 392 1096 q 408 1103 399 1103 q 424 1096 417 1103 l 565 954 q 567 951 567 954 q 563 946 567 949 q 558 944 560 943 l 408 1015 l 257 944 q 250 948 254 943 q 249 954 246 953 l 392 1096 m 633 986 q 538 1048 581 1024 q 443 1093 496 1072 q 456 1110 431 1097 q 513 1133 481 1124 q 549 1136 544 1143 q 644 999 597 1060 q 646 994 646 997 q 642 988 646 990 q 633 986 639 985 z "},"Ể":{"ha":753,"x_min":56,"x_max":686,"o":"m 60 0 q 56 8 56 0 q 60 17 56 17 q 133 24 110 17 q 164 51 156 31 q 172 113 172 71 l 172 756 q 164 817 172 797 q 133 844 156 836 q 60 851 110 851 q 56 860 56 851 q 60 868 56 868 l 626 868 q 640 856 640 868 l 643 681 q 635 676 643 676 q 626 679 628 675 q 572 796 617 756 q 456 836 528 836 l 385 836 q 303 818 324 836 q 282 750 282 800 l 282 118 q 301 50 282 68 q 376 32 319 32 l 468 32 q 598 78 546 32 q 669 211 650 125 q 675 214 669 214 q 683 212 679 214 q 686 208 686 210 q 672 21 672 108 q 668 5 672 10 q 651 0 664 0 l 60 0 m 574 319 q 540 408 574 379 q 432 436 506 436 l 229 436 l 229 468 l 435 468 q 539 492 506 468 q 572 568 572 517 q 580 571 572 571 q 588 568 588 571 l 586 451 l 588 389 q 590 319 590 344 q 582 317 590 317 q 574 319 574 317 m 392 1096 q 408 1103 399 1103 q 424 1096 417 1103 l 565 954 q 567 951 567 954 q 563 946 567 949 q 558 944 560 943 l 408 1015 l 257 944 q 250 948 254 943 q 249 954 246 953 l 392 1096 m 524 1008 q 521 1026 521 1022 q 529 1060 521 1043 q 539 1079 538 1076 q 557 1131 557 1110 q 543 1163 557 1151 q 511 1174 529 1174 q 481 1167 494 1174 l 479 1167 q 471 1172 475 1167 q 471 1178 467 1176 q 515 1197 492 1190 q 554 1204 538 1204 q 606 1186 586 1204 q 625 1144 625 1168 q 613 1109 625 1125 q 578 1072 600 1093 q 546 1038 556 1051 q 539 1008 536 1024 q 533 1005 540 1006 q 524 1008 525 1004 z "},"Ễ":{"ha":753,"x_min":56,"x_max":686,"o":"m 60 0 q 56 8 56 0 q 60 17 56 17 q 133 24 110 17 q 164 51 156 31 q 172 113 172 71 l 172 756 q 164 817 172 797 q 133 844 156 836 q 60 851 110 851 q 56 860 56 851 q 60 868 56 868 l 626 868 q 640 856 640 868 l 643 681 q 635 676 643 676 q 626 679 628 675 q 572 796 617 756 q 456 836 528 836 l 385 836 q 303 818 324 836 q 282 750 282 800 l 282 118 q 301 50 282 68 q 376 32 319 32 l 468 32 q 598 78 546 32 q 669 211 650 125 q 675 214 669 214 q 683 212 679 214 q 686 208 686 210 q 672 21 672 108 q 668 5 672 10 q 651 0 664 0 l 60 0 m 574 319 q 540 408 574 379 q 432 436 506 436 l 229 436 l 229 468 l 435 468 q 539 492 506 468 q 572 568 572 517 q 580 571 572 571 q 588 568 588 571 l 586 451 l 588 389 q 590 319 590 344 q 582 317 590 317 q 574 319 574 317 m 392 1096 q 408 1103 399 1103 q 424 1096 417 1103 l 565 954 q 567 951 567 954 q 563 946 567 949 q 558 944 560 943 l 408 1015 l 257 944 q 250 948 254 943 q 249 954 246 953 l 392 1096 m 522 1179 q 560 1188 546 1179 q 592 1217 575 1197 l 593 1217 q 601 1213 597 1217 q 601 1207 604 1210 q 542 1132 565 1151 q 490 1113 518 1113 q 407 1129 463 1113 q 372 1139 401 1131 q 311 1147 342 1147 q 276 1140 289 1147 q 255 1124 264 1133 q 242 1110 246 1114 l 239 1110 q 232 1113 235 1110 q 232 1119 229 1117 q 350 1213 294 1213 q 419 1199 369 1213 q 522 1179 483 1179 z "},"Ȅ":{"ha":753,"x_min":56,"x_max":686,"o":"m 60 0 q 56 8 56 0 q 60 17 56 17 q 133 24 110 17 q 164 51 156 31 q 172 113 172 71 l 172 756 q 164 817 172 797 q 133 844 156 836 q 60 851 110 851 q 56 860 56 851 q 60 868 56 868 l 626 868 q 640 856 640 868 l 643 681 q 635 676 643 676 q 626 679 628 675 q 572 796 617 756 q 456 836 528 836 l 385 836 q 303 818 324 836 q 282 750 282 800 l 282 118 q 301 50 282 68 q 376 32 319 32 l 468 32 q 598 78 546 32 q 669 211 650 125 q 675 214 669 214 q 683 212 679 214 q 686 208 686 210 q 672 21 672 108 q 668 5 672 10 q 651 0 664 0 l 60 0 m 574 319 q 540 408 574 379 q 432 436 506 436 l 229 436 l 229 468 l 435 468 q 539 492 506 468 q 572 568 572 517 q 580 571 572 571 q 588 568 588 571 l 586 451 l 588 389 q 590 319 590 344 q 582 317 590 317 q 574 319 574 317 m 553 938 q 339 1057 447 1011 q 351 1075 328 1063 q 405 1095 375 1088 q 439 1096 435 1103 q 564 950 496 1022 q 565 946 565 949 q 561 938 565 942 q 553 938 557 935 m 369 938 q 264 1004 313 976 q 157 1057 215 1032 q 169 1075 146 1063 q 222 1095 192 1088 q 256 1096 251 1103 q 381 950 331 1001 q 382 946 382 949 q 378 938 382 942 q 369 938 374 935 z "},"Ë":{"ha":753,"x_min":56,"x_max":686,"o":"m 60 0 q 56 8 56 0 q 60 17 56 17 q 133 24 110 17 q 164 51 156 31 q 172 113 172 71 l 172 756 q 164 817 172 797 q 133 844 156 836 q 60 851 110 851 q 56 860 56 851 q 60 868 56 868 l 626 868 q 640 856 640 868 l 643 681 q 635 676 643 676 q 626 679 628 675 q 572 796 617 756 q 456 836 528 836 l 385 836 q 303 818 324 836 q 282 750 282 800 l 282 118 q 301 50 282 68 q 376 32 319 32 l 468 32 q 598 78 546 32 q 669 211 650 125 q 675 214 669 214 q 683 212 679 214 q 686 208 686 210 q 672 21 672 108 q 668 5 672 10 q 651 0 664 0 l 60 0 m 574 319 q 540 408 574 379 q 432 436 506 436 l 229 436 l 229 468 l 435 468 q 539 492 506 468 q 572 568 572 517 q 580 571 572 571 q 588 568 588 571 l 586 451 l 588 389 q 590 319 590 344 q 582 317 590 317 q 574 319 574 317 m 288 989 q 240 1006 257 989 q 222 1053 222 1022 q 240 1098 222 1082 q 288 1114 257 1114 q 333 1098 317 1114 q 349 1053 349 1082 q 333 1006 349 1022 q 288 989 317 989 m 531 989 q 483 1006 500 989 q 465 1053 465 1022 q 483 1098 465 1082 q 531 1114 500 1114 q 576 1098 560 1114 q 592 1053 592 1082 q 576 1006 592 1022 q 531 989 560 989 z "},"Ė":{"ha":753,"x_min":56,"x_max":686,"o":"m 60 0 q 56 8 56 0 q 60 17 56 17 q 133 24 110 17 q 164 51 156 31 q 172 113 172 71 l 172 756 q 164 817 172 797 q 133 844 156 836 q 60 851 110 851 q 56 860 56 851 q 60 868 56 868 l 626 868 q 640 856 640 868 l 643 681 q 635 676 643 676 q 626 679 628 675 q 572 796 617 756 q 456 836 528 836 l 385 836 q 303 818 324 836 q 282 750 282 800 l 282 118 q 301 50 282 68 q 376 32 319 32 l 468 32 q 598 78 546 32 q 669 211 650 125 q 675 214 669 214 q 683 212 679 214 q 686 208 686 210 q 672 21 672 108 q 668 5 672 10 q 651 0 664 0 l 60 0 m 574 319 q 540 408 574 379 q 432 436 506 436 l 229 436 l 229 468 l 435 468 q 539 492 506 468 q 572 568 572 517 q 580 571 572 571 q 588 568 588 571 l 586 451 l 588 389 q 590 319 590 344 q 582 317 590 317 q 574 319 574 317 m 408 990 q 358 1008 376 990 q 340 1058 340 1026 q 358 1105 340 1088 q 408 1122 376 1122 q 456 1105 439 1122 q 474 1058 474 1088 q 456 1008 474 1026 q 408 990 439 990 z "},"Ẹ":{"ha":753,"x_min":56,"x_max":686,"o":"m 60 0 q 56 8 56 0 q 60 17 56 17 q 133 24 110 17 q 164 51 156 31 q 172 113 172 71 l 172 756 q 164 817 172 797 q 133 844 156 836 q 60 851 110 851 q 56 860 56 851 q 60 868 56 868 l 626 868 q 640 856 640 868 l 643 681 q 635 676 643 676 q 626 679 628 675 q 572 796 617 756 q 456 836 528 836 l 385 836 q 303 818 324 836 q 282 750 282 800 l 282 118 q 301 50 282 68 q 376 32 319 32 l 468 32 q 598 78 546 32 q 669 211 650 125 q 675 214 669 214 q 683 212 679 214 q 686 208 686 210 q 672 21 672 108 q 668 5 672 10 q 651 0 664 0 l 60 0 m 574 319 q 540 408 574 379 q 432 436 506 436 l 229 436 l 229 468 l 435 468 q 539 492 506 468 q 572 568 572 517 q 580 571 572 571 q 588 568 588 571 l 586 451 l 588 389 q 590 319 590 344 q 582 317 590 317 q 574 319 574 317 m 404 -271 q 354 -253 372 -271 q 336 -204 336 -236 q 354 -157 336 -174 q 404 -140 372 -140 q 452 -157 435 -140 q 469 -204 469 -174 q 453 -253 469 -236 q 404 -271 436 -271 z "},"È":{"ha":753,"x_min":56,"x_max":686,"o":"m 60 0 q 56 8 56 0 q 60 17 56 17 q 133 24 110 17 q 164 51 156 31 q 172 113 172 71 l 172 756 q 164 817 172 797 q 133 844 156 836 q 60 851 110 851 q 56 860 56 851 q 60 868 56 868 l 626 868 q 640 856 640 868 l 643 681 q 635 676 643 676 q 626 679 628 675 q 572 796 617 756 q 456 836 528 836 l 385 836 q 303 818 324 836 q 282 750 282 800 l 282 118 q 301 50 282 68 q 376 32 319 32 l 468 32 q 598 78 546 32 q 669 211 650 125 q 675 214 669 214 q 683 212 679 214 q 686 208 686 210 q 672 21 672 108 q 668 5 672 10 q 651 0 664 0 l 60 0 m 574 319 q 540 408 574 379 q 432 436 506 436 l 229 436 l 229 468 l 435 468 q 539 492 506 468 q 572 568 572 517 q 580 571 572 571 q 588 568 588 571 l 586 451 l 588 389 q 590 319 590 344 q 582 317 590 317 q 574 319 574 317 m 546 943 q 238 1050 390 1013 q 249 1065 225 1053 q 304 1088 272 1078 q 342 1093 336 1097 q 408 1047 375 1072 q 466 1010 422 1039 q 551 957 510 981 q 556 951 556 956 q 553 944 556 947 q 546 943 550 942 z "},"Ẻ":{"ha":753,"x_min":56,"x_max":686,"o":"m 60 0 q 56 8 56 0 q 60 17 56 17 q 133 24 110 17 q 164 51 156 31 q 172 113 172 71 l 172 756 q 164 817 172 797 q 133 844 156 836 q 60 851 110 851 q 56 860 56 851 q 60 868 56 868 l 626 868 q 640 856 640 868 l 643 681 q 635 676 643 676 q 626 679 628 675 q 572 796 617 756 q 456 836 528 836 l 385 836 q 303 818 324 836 q 282 750 282 800 l 282 118 q 301 50 282 68 q 376 32 319 32 l 468 32 q 598 78 546 32 q 669 211 650 125 q 675 214 669 214 q 683 212 679 214 q 686 208 686 210 q 672 21 672 108 q 668 5 672 10 q 651 0 664 0 l 60 0 m 574 319 q 540 408 574 379 q 432 436 506 436 l 229 436 l 229 468 l 435 468 q 539 492 506 468 q 572 568 572 517 q 580 571 572 571 q 588 568 588 571 l 586 451 l 588 389 q 590 319 590 344 q 582 317 590 317 q 574 319 574 317 m 411 904 q 403 901 411 901 q 394 904 396 901 q 390 935 390 921 q 418 1017 390 969 q 437 1054 431 1039 q 443 1088 443 1069 q 428 1128 443 1114 q 390 1142 414 1142 q 347 1131 375 1142 l 346 1131 q 338 1135 342 1131 q 338 1142 333 1139 q 436 1174 382 1174 q 502 1153 478 1174 q 526 1101 526 1133 q 510 1052 526 1075 q 465 1000 494 1029 q 421 949 435 969 q 411 904 407 928 z "},"Ȇ":{"ha":753,"x_min":56,"x_max":686,"o":"m 60 0 q 56 8 56 0 q 60 17 56 17 q 133 24 110 17 q 164 51 156 31 q 172 113 172 71 l 172 756 q 164 817 172 797 q 133 844 156 836 q 60 851 110 851 q 56 860 56 851 q 60 868 56 868 l 626 868 q 640 856 640 868 l 643 681 q 635 676 643 676 q 626 679 628 675 q 572 796 617 756 q 456 836 528 836 l 385 836 q 303 818 324 836 q 282 750 282 800 l 282 118 q 301 50 282 68 q 376 32 319 32 l 468 32 q 598 78 546 32 q 669 211 650 125 q 675 214 669 214 q 683 212 679 214 q 686 208 686 210 q 672 21 672 108 q 668 5 672 10 q 651 0 664 0 l 60 0 m 574 319 q 540 408 574 379 q 432 436 506 436 l 229 436 l 229 468 l 435 468 q 539 492 506 468 q 572 568 572 517 q 580 571 572 571 q 588 568 588 571 l 586 451 l 588 389 q 590 319 590 344 q 582 317 590 317 q 574 319 574 317 m 281 946 q 272 942 279 942 q 265 949 264 943 q 308 1065 271 1025 q 408 1104 344 1104 q 507 1065 471 1104 q 550 949 543 1025 q 542 942 550 943 q 535 946 535 942 q 491 1005 528 979 q 408 1031 454 1031 q 324 1006 361 1031 q 281 946 288 981 z "},"Ē":{"ha":753,"x_min":56,"x_max":686,"o":"m 60 0 q 56 8 56 0 q 60 17 56 17 q 133 24 110 17 q 164 51 156 31 q 172 113 172 71 l 172 756 q 164 817 172 797 q 133 844 156 836 q 60 851 110 851 q 56 860 56 851 q 60 868 56 868 l 626 868 q 640 856 640 868 l 643 681 q 635 676 643 676 q 626 679 628 675 q 572 796 617 756 q 456 836 528 836 l 385 836 q 303 818 324 836 q 282 750 282 800 l 282 118 q 301 50 282 68 q 376 32 319 32 l 468 32 q 598 78 546 32 q 669 211 650 125 q 675 214 669 214 q 683 212 679 214 q 686 208 686 210 q 672 21 672 108 q 668 5 672 10 q 651 0 664 0 l 60 0 m 574 319 q 540 408 574 379 q 432 436 506 436 l 229 436 l 229 468 l 435 468 q 539 492 506 468 q 572 568 572 517 q 580 571 572 571 q 588 568 588 571 l 586 451 l 588 389 q 590 319 590 344 q 582 317 590 317 q 574 319 574 317 m 233 999 q 224 1021 224 999 q 233 1042 224 1042 l 582 1042 q 590 1035 588 1042 q 593 1021 593 1029 q 590 1006 593 1013 q 582 999 588 999 l 233 999 z "},"Ę":{"ha":753,"x_min":56,"x_max":707,"o":"m 60 0 q 56 8 56 0 q 60 17 56 17 q 133 24 110 17 q 164 51 156 31 q 172 113 172 71 l 172 756 q 164 817 172 797 q 133 844 156 836 q 60 851 110 851 q 56 860 56 851 q 60 868 56 868 l 626 868 q 640 856 640 868 l 643 681 q 635 676 643 676 q 626 679 628 675 q 572 796 617 756 q 456 836 528 836 l 385 836 q 303 818 324 836 q 282 750 282 800 l 282 118 q 301 50 282 68 q 376 32 319 32 l 468 32 q 598 78 546 32 q 669 211 650 125 q 675 214 669 214 q 683 212 679 214 q 686 208 686 210 q 672 21 672 108 q 668 5 672 10 q 651 0 664 0 l 60 0 m 574 319 q 540 408 574 379 q 432 436 506 436 l 229 436 l 229 468 l 435 468 q 539 492 506 468 q 572 568 572 517 q 580 571 572 571 q 588 568 588 571 l 586 451 l 588 389 q 590 319 590 344 q 582 317 590 317 q 574 319 574 317 m 581 1 q 504 -91 528 -47 q 481 -187 481 -135 q 515 -295 481 -256 q 611 -335 549 -335 q 693 -308 656 -335 l 696 -308 q 703 -312 700 -308 q 703 -319 707 -317 q 550 -382 629 -382 q 435 -342 478 -382 q 392 -240 392 -303 q 563 8 392 -121 l 581 1 z "},"Ẽ":{"ha":753,"x_min":56,"x_max":686,"o":"m 60 0 q 56 8 56 0 q 60 17 56 17 q 133 24 110 17 q 164 51 156 31 q 172 113 172 71 l 172 756 q 164 817 172 797 q 133 844 156 836 q 60 851 110 851 q 56 860 56 851 q 60 868 56 868 l 626 868 q 640 856 640 868 l 643 681 q 635 676 643 676 q 626 679 628 675 q 572 796 617 756 q 456 836 528 836 l 385 836 q 303 818 324 836 q 282 750 282 800 l 282 118 q 301 50 282 68 q 376 32 319 32 l 468 32 q 598 78 546 32 q 669 211 650 125 q 675 214 669 214 q 683 212 679 214 q 686 208 686 210 q 672 21 672 108 q 668 5 672 10 q 651 0 664 0 l 60 0 m 574 319 q 540 408 574 379 q 432 436 506 436 l 229 436 l 229 468 l 435 468 q 539 492 506 468 q 572 568 572 517 q 580 571 572 571 q 588 568 588 571 l 586 451 l 588 389 q 590 319 590 344 q 582 317 590 317 q 574 319 574 317 m 514 1051 q 552 1060 538 1051 q 583 1089 567 1069 l 585 1089 q 592 1085 589 1089 q 593 1079 596 1082 q 533 1004 557 1024 q 481 985 510 985 q 441 990 463 985 q 399 1001 419 994 q 363 1011 393 1003 q 303 1019 333 1019 q 268 1013 281 1019 q 247 996 256 1006 q 233 982 238 986 l 231 982 q 224 985 226 982 q 224 992 221 989 q 342 1085 286 1085 q 410 1071 360 1085 q 514 1051 474 1051 z "},"Ə":{"ha":924,"x_min":72,"x_max":856,"o":"m 433 -17 q 161 91 250 -17 q 72 367 72 199 q 76 385 72 381 q 88 389 79 389 l 193 389 q 269 100 193 190 q 474 10 346 10 q 669 113 604 10 q 733 401 733 215 q 698 636 733 532 q 592 801 663 740 q 419 861 521 861 q 244 806 326 861 q 129 657 161 751 q 120 653 128 651 q 114 660 113 656 l 174 890 q 182 894 175 896 q 189 889 189 892 q 188 874 188 883 q 211 847 188 847 q 226 850 215 847 q 433 883 335 883 q 754 763 653 883 q 856 454 856 643 q 799 201 856 307 q 647 39 743 94 q 433 -17 551 -17 m 768 365 l 178 358 l 178 389 l 767 392 l 768 365 z "},"F":{"ha":713,"x_min":51,"x_max":643,"o":"m 56 0 q 51 8 51 0 q 56 17 51 17 q 131 24 107 17 q 163 51 154 31 q 172 113 172 71 l 172 756 q 164 817 172 797 q 133 844 156 836 q 60 851 110 851 q 56 860 56 851 q 60 868 56 868 l 626 868 q 640 856 640 868 l 643 681 q 635 676 643 676 q 626 679 628 675 q 572 796 617 756 q 456 836 528 836 l 385 836 q 303 819 325 836 q 282 754 282 801 l 282 118 q 294 53 282 74 q 339 25 306 33 q 444 17 372 17 q 447 8 447 17 q 444 0 447 0 q 356 1 388 0 l 225 3 l 128 1 q 56 0 101 0 m 557 303 q 521 391 557 363 q 406 419 485 419 l 229 419 l 229 451 l 410 451 q 520 476 485 451 q 556 551 556 501 q 564 554 556 554 q 572 551 572 554 l 571 435 q 572 372 571 393 l 574 303 q 565 300 574 300 q 557 303 557 300 z "},"G":{"ha":999,"x_min":68,"x_max":951,"o":"m 572 -17 q 303 44 418 -17 q 128 208 189 104 q 68 436 68 311 q 137 671 68 569 q 326 828 206 772 q 596 883 446 883 q 732 870 667 883 q 840 835 797 857 q 853 825 851 829 q 857 803 856 821 l 875 631 q 867 625 875 626 q 858 629 860 624 q 755 792 829 726 q 561 858 681 858 q 374 810 457 858 q 242 670 290 761 q 194 458 194 579 q 243 233 194 336 q 385 67 292 129 q 608 4 479 4 q 740 41 703 4 q 778 174 778 78 q 769 274 778 246 q 730 313 760 303 q 625 322 700 322 q 617 333 617 322 q 619 341 617 338 q 624 344 621 344 q 804 338 735 338 q 944 342 872 338 q 949 338 947 342 q 951 332 951 335 q 944 322 951 322 q 900 313 913 324 q 884 271 888 303 q 881 160 881 239 q 885 71 881 97 q 890 38 890 44 q 888 26 890 29 q 875 21 885 24 q 572 -17 700 -17 z "},"Ğ":{"ha":999,"x_min":68,"x_max":951,"o":"m 572 -17 q 303 44 418 -17 q 128 208 189 104 q 68 436 68 311 q 137 671 68 569 q 326 828 206 772 q 596 883 446 883 q 732 870 667 883 q 840 835 797 857 q 853 825 851 829 q 857 803 856 821 l 875 631 q 867 625 875 626 q 858 629 860 624 q 755 792 829 726 q 561 858 681 858 q 374 810 457 858 q 242 670 290 761 q 194 458 194 579 q 243 233 194 336 q 385 67 292 129 q 608 4 479 4 q 740 41 703 4 q 778 174 778 78 q 769 274 778 246 q 730 313 760 303 q 625 322 700 322 q 617 333 617 322 q 619 341 617 338 q 624 344 621 344 q 804 338 735 338 q 944 342 872 338 q 949 338 947 342 q 951 332 951 335 q 944 322 951 322 q 900 313 913 324 q 884 271 888 303 q 881 160 881 239 q 885 71 881 97 q 890 38 890 44 q 888 26 890 29 q 875 21 885 24 q 572 -17 700 -17 m 556 958 q 456 999 493 958 q 413 1115 419 1040 q 419 1121 411 1121 q 428 1118 426 1121 q 472 1059 435 1085 q 556 1033 508 1033 q 638 1059 601 1033 q 682 1118 675 1085 q 690 1122 682 1122 q 697 1115 697 1121 q 654 999 690 1040 q 556 958 618 958 z "},"Ǧ":{"ha":994,"x_min":68,"x_max":944,"o":"m 564 -17 q 300 42 413 -17 q 128 200 188 100 q 68 424 68 300 q 137 663 68 558 q 326 825 206 767 q 596 883 446 883 q 726 871 663 883 q 829 838 789 858 q 843 825 840 831 q 847 806 846 819 l 865 639 q 858 633 865 635 q 849 638 850 632 q 731 795 813 740 q 535 850 649 850 q 281 750 369 850 q 192 475 192 650 q 244 233 192 339 q 390 67 297 126 q 599 7 482 7 q 701 19 665 7 q 754 68 738 32 q 771 175 771 104 q 762 276 771 247 q 723 314 753 304 q 619 324 693 324 q 611 335 611 324 q 613 342 611 339 q 618 346 615 346 q 799 339 729 339 q 938 343 865 339 q 942 340 940 343 q 944 333 944 336 q 938 324 944 324 q 894 315 907 325 q 878 272 882 304 q 875 161 875 240 q 880 72 875 99 q 885 39 885 46 q 882 28 885 31 q 868 22 879 26 q 564 -17 699 -17 m 386 1099 q 390 1104 386 1101 q 396 1106 394 1107 l 547 1035 l 697 1107 l 699 1107 q 705 1103 703 1107 q 704 1097 707 1100 l 563 954 q 547 949 557 949 q 531 954 536 949 l 388 1096 l 386 1099 z "},"Ĝ":{"ha":999,"x_min":68,"x_max":951,"o":"m 572 -17 q 303 44 418 -17 q 128 208 189 104 q 68 436 68 311 q 137 671 68 569 q 326 828 206 772 q 596 883 446 883 q 732 870 667 883 q 840 835 797 857 q 853 825 851 829 q 857 803 856 821 l 875 631 q 867 625 875 626 q 858 629 860 624 q 755 792 829 726 q 561 858 681 858 q 374 810 457 858 q 242 670 290 761 q 194 458 194 579 q 243 233 194 336 q 385 67 292 129 q 608 4 479 4 q 740 41 703 4 q 778 174 778 78 q 769 274 778 246 q 730 313 760 303 q 625 322 700 322 q 617 333 617 322 q 619 341 617 338 q 624 344 621 344 q 804 338 735 338 q 944 342 872 338 q 949 338 947 342 q 951 332 951 335 q 944 322 951 322 q 900 313 913 324 q 884 271 888 303 q 881 160 881 239 q 885 71 881 97 q 890 38 890 44 q 888 26 890 29 q 875 21 885 24 q 572 -17 700 -17 m 540 1110 q 557 1117 547 1117 q 572 1110 565 1117 l 714 965 q 715 963 715 965 q 712 957 715 960 q 707 956 708 954 l 557 1028 l 406 956 q 399 959 403 954 q 397 965 394 964 l 540 1110 z "},"Ģ":{"ha":999,"x_min":68,"x_max":951,"o":"m 572 -17 q 303 44 418 -17 q 128 208 189 104 q 68 436 68 311 q 137 671 68 569 q 326 828 206 772 q 596 883 446 883 q 732 870 667 883 q 840 835 797 857 q 853 825 851 829 q 857 803 856 821 l 875 631 q 867 625 875 626 q 858 629 860 624 q 755 792 829 726 q 561 858 681 858 q 374 810 457 858 q 242 670 290 761 q 194 458 194 579 q 243 233 194 336 q 385 67 292 129 q 608 4 479 4 q 740 41 703 4 q 778 174 778 78 q 769 274 778 246 q 730 313 760 303 q 625 322 700 322 q 617 333 617 322 q 619 341 617 338 q 624 344 621 344 q 804 338 735 338 q 944 342 872 338 q 949 338 947 342 q 951 332 951 335 q 944 322 951 322 q 900 313 913 324 q 884 271 888 303 q 881 160 881 239 q 885 71 881 97 q 890 38 890 44 q 888 26 890 29 q 875 21 885 24 q 572 -17 700 -17 m 572 -383 q 564 -378 567 -383 q 564 -371 561 -374 q 628 -256 628 -317 q 619 -214 628 -226 q 593 -197 610 -201 l 622 -183 q 610 -223 624 -210 q 571 -236 597 -236 q 528 -219 544 -236 q 513 -174 513 -201 q 532 -126 513 -142 q 582 -111 551 -111 q 644 -139 622 -111 q 667 -217 667 -167 q 643 -305 667 -265 q 575 -382 619 -344 l 572 -383 z "},"Ġ":{"ha":999,"x_min":68,"x_max":951,"o":"m 572 -17 q 303 44 418 -17 q 128 208 189 104 q 68 436 68 311 q 137 671 68 569 q 326 828 206 772 q 596 883 446 883 q 732 870 667 883 q 840 835 797 857 q 853 825 851 829 q 857 803 856 821 l 875 631 q 867 625 875 626 q 858 629 860 624 q 755 792 829 726 q 561 858 681 858 q 374 810 457 858 q 242 670 290 761 q 194 458 194 579 q 243 233 194 336 q 385 67 292 129 q 608 4 479 4 q 740 41 703 4 q 778 174 778 78 q 769 274 778 246 q 730 313 760 303 q 625 322 700 322 q 617 333 617 322 q 619 341 617 338 q 624 344 621 344 q 804 338 735 338 q 944 342 872 338 q 949 338 947 342 q 951 332 951 335 q 944 322 951 322 q 900 313 913 324 q 884 271 888 303 q 881 160 881 239 q 885 71 881 97 q 890 38 890 44 q 888 26 890 29 q 875 21 885 24 q 572 -17 700 -17 m 556 990 q 506 1008 524 990 q 488 1058 488 1026 q 506 1105 488 1088 q 556 1122 524 1122 q 603 1105 586 1122 q 621 1058 621 1088 q 603 1008 621 1026 q 556 990 586 990 z "},"Ḡ":{"ha":994,"x_min":68,"x_max":944,"o":"m 564 -17 q 300 42 413 -17 q 128 200 188 100 q 68 424 68 300 q 137 663 68 558 q 326 825 206 767 q 596 883 446 883 q 726 871 663 883 q 829 838 789 858 q 843 825 840 831 q 847 806 846 819 l 865 639 q 858 633 865 635 q 849 638 850 632 q 731 795 813 740 q 535 850 649 850 q 281 750 369 850 q 192 475 192 650 q 244 233 192 339 q 390 67 297 126 q 599 7 482 7 q 701 19 665 7 q 754 68 738 32 q 771 175 771 104 q 762 276 771 247 q 723 314 753 304 q 619 324 693 324 q 611 335 611 324 q 613 342 611 339 q 618 346 615 346 q 799 339 729 339 q 938 343 865 339 q 942 340 940 343 q 944 333 944 336 q 938 324 944 324 q 894 315 907 325 q 878 272 882 304 q 875 161 875 240 q 880 72 875 99 q 885 39 885 46 q 882 28 885 31 q 868 22 879 26 q 564 -17 699 -17 m 372 999 q 363 1021 363 999 q 372 1042 363 1042 l 721 1042 q 729 1035 726 1042 q 732 1021 732 1029 q 729 1006 732 1013 q 721 999 726 999 l 372 999 z "},"H":{"ha":1057,"x_min":43,"x_max":1011,"o":"m 781 753 q 772 815 781 794 q 739 843 764 835 q 661 851 714 851 q 657 860 657 851 q 661 868 657 868 l 726 867 q 836 864 790 864 q 936 867 875 864 l 1007 868 q 1011 860 1011 868 q 1007 851 1011 851 q 931 844 956 851 q 899 817 907 836 q 890 756 890 797 l 890 113 q 899 51 890 71 q 931 24 907 31 q 1007 17 956 17 q 1011 8 1011 17 q 1007 0 1011 0 q 936 1 963 0 l 836 3 l 726 1 q 661 0 703 0 q 657 8 657 0 q 661 17 657 17 q 740 24 715 17 q 772 50 764 31 q 781 113 781 69 l 781 753 m 215 468 l 829 468 l 829 436 l 215 436 l 215 468 m 164 756 q 156 817 164 797 q 124 844 147 836 q 49 851 100 851 q 44 860 44 851 q 49 868 44 868 l 119 867 q 217 864 178 864 q 324 867 260 864 l 394 868 q 397 860 397 868 q 394 851 397 851 q 317 843 342 851 q 283 815 292 835 q 274 753 274 794 l 274 113 q 283 51 274 71 q 316 24 292 31 q 394 17 340 17 q 397 8 397 17 q 394 0 397 0 q 324 1 349 0 l 217 3 l 118 1 q 46 0 92 0 q 43 8 43 0 q 46 17 43 17 q 122 24 97 17 q 155 51 146 31 q 164 113 164 71 l 164 756 z "},"Ħ":{"ha":1057,"x_min":43,"x_max":1011,"o":"m 781 753 q 772 815 781 794 q 739 843 764 835 q 661 851 714 851 q 657 860 657 851 q 661 868 657 868 l 726 867 q 836 864 790 864 q 936 867 875 864 l 1007 868 q 1011 860 1011 868 q 1007 851 1011 851 q 931 844 956 851 q 899 817 907 836 q 890 756 890 797 l 890 113 q 899 51 890 71 q 931 24 907 31 q 1007 17 956 17 q 1011 8 1011 17 q 1007 0 1011 0 q 936 1 963 0 l 836 3 l 726 1 q 661 0 703 0 q 657 8 657 0 q 661 17 657 17 q 740 24 715 17 q 772 50 764 31 q 781 113 781 69 l 781 753 m 215 597 l 829 597 l 829 565 l 215 565 l 215 597 m 164 756 q 156 817 164 797 q 124 844 147 836 q 49 851 100 851 q 44 860 44 851 q 49 868 44 868 l 119 867 q 217 864 178 864 q 324 867 260 864 l 394 868 q 397 860 397 868 q 394 851 397 851 q 317 843 342 851 q 283 815 292 835 q 274 753 274 794 l 274 113 q 283 51 274 71 q 316 24 292 31 q 394 17 340 17 q 397 8 397 17 q 394 0 397 0 q 324 1 349 0 l 217 3 l 118 1 q 46 0 92 0 q 43 8 43 0 q 46 17 43 17 q 122 24 97 17 q 155 51 146 31 q 164 113 164 71 l 164 756 m 215 338 l 829 338 l 829 306 l 215 306 l 215 338 z "},"Ḫ":{"ha":1057,"x_min":43,"x_max":1011,"o":"m 781 753 q 772 815 781 794 q 739 843 764 835 q 661 851 714 851 q 657 860 657 851 q 661 868 657 868 l 726 867 q 836 864 790 864 q 936 867 875 864 l 1007 868 q 1011 860 1011 868 q 1007 851 1011 851 q 931 844 956 851 q 899 817 907 836 q 890 756 890 797 l 890 113 q 899 51 890 71 q 931 24 907 31 q 1007 17 956 17 q 1011 8 1011 17 q 1007 0 1011 0 q 936 1 963 0 l 836 3 l 726 1 q 661 0 703 0 q 657 8 657 0 q 661 17 657 17 q 740 24 715 17 q 772 50 764 31 q 781 113 781 69 l 781 753 m 215 468 l 829 468 l 829 436 l 215 436 l 215 468 m 164 756 q 156 817 164 797 q 124 844 147 836 q 49 851 100 851 q 44 860 44 851 q 49 868 44 868 l 119 867 q 217 864 178 864 q 324 867 260 864 l 394 868 q 397 860 397 868 q 394 851 397 851 q 317 843 342 851 q 283 815 292 835 q 274 753 274 794 l 274 113 q 283 51 274 71 q 316 24 292 31 q 394 17 340 17 q 397 8 397 17 q 394 0 397 0 q 324 1 349 0 l 217 3 l 118 1 q 46 0 92 0 q 43 8 43 0 q 46 17 43 17 q 122 24 97 17 q 155 51 146 31 q 164 113 164 71 l 164 756 m 385 -108 q 392 -103 385 -104 q 400 -106 400 -103 q 437 -200 400 -161 q 528 -239 474 -239 q 617 -200 581 -239 q 654 -106 654 -161 q 660 -103 654 -103 q 666 -105 663 -103 q 669 -108 669 -107 q 633 -268 669 -214 q 528 -322 597 -322 q 422 -268 458 -322 q 385 -108 385 -214 z "},"Ĥ":{"ha":1057,"x_min":43,"x_max":1011,"o":"m 781 753 q 772 815 781 794 q 739 843 764 835 q 661 851 714 851 q 657 860 657 851 q 661 868 657 868 l 726 867 q 836 864 790 864 q 936 867 875 864 l 1007 868 q 1011 860 1011 868 q 1007 851 1011 851 q 931 844 956 851 q 899 817 907 836 q 890 756 890 797 l 890 113 q 899 51 890 71 q 931 24 907 31 q 1007 17 956 17 q 1011 8 1011 17 q 1007 0 1011 0 q 936 1 963 0 l 836 3 l 726 1 q 661 0 703 0 q 657 8 657 0 q 661 17 657 17 q 740 24 715 17 q 772 50 764 31 q 781 113 781 69 l 781 753 m 215 468 l 829 468 l 829 436 l 215 436 l 215 468 m 164 756 q 156 817 164 797 q 124 844 147 836 q 49 851 100 851 q 44 860 44 851 q 49 868 44 868 l 119 867 q 217 864 178 864 q 324 867 260 864 l 394 868 q 397 860 397 868 q 394 851 397 851 q 317 843 342 851 q 283 815 292 835 q 274 753 274 794 l 274 113 q 283 51 274 71 q 316 24 292 31 q 394 17 340 17 q 397 8 397 17 q 394 0 397 0 q 324 1 349 0 l 217 3 l 118 1 q 46 0 92 0 q 43 8 43 0 q 46 17 43 17 q 122 24 97 17 q 155 51 146 31 q 164 113 164 71 l 164 756 m 515 1110 q 532 1117 522 1117 q 547 1110 540 1117 l 689 965 q 690 963 690 965 q 687 957 690 960 q 682 956 683 954 l 532 1028 l 381 956 q 374 959 378 954 q 372 965 369 964 l 515 1110 z "},"Ḥ":{"ha":1057,"x_min":43,"x_max":1011,"o":"m 781 753 q 772 815 781 794 q 739 843 764 835 q 661 851 714 851 q 657 860 657 851 q 661 868 657 868 l 726 867 q 836 864 790 864 q 936 867 875 864 l 1007 868 q 1011 860 1011 868 q 1007 851 1011 851 q 931 844 956 851 q 899 817 907 836 q 890 756 890 797 l 890 113 q 899 51 890 71 q 931 24 907 31 q 1007 17 956 17 q 1011 8 1011 17 q 1007 0 1011 0 q 936 1 963 0 l 836 3 l 726 1 q 661 0 703 0 q 657 8 657 0 q 661 17 657 17 q 740 24 715 17 q 772 50 764 31 q 781 113 781 69 l 781 753 m 215 468 l 829 468 l 829 436 l 215 436 l 215 468 m 164 756 q 156 817 164 797 q 124 844 147 836 q 49 851 100 851 q 44 860 44 851 q 49 868 44 868 l 119 867 q 217 864 178 864 q 324 867 260 864 l 394 868 q 397 860 397 868 q 394 851 397 851 q 317 843 342 851 q 283 815 292 835 q 274 753 274 794 l 274 113 q 283 51 274 71 q 316 24 292 31 q 394 17 340 17 q 397 8 397 17 q 394 0 397 0 q 324 1 349 0 l 217 3 l 118 1 q 46 0 92 0 q 43 8 43 0 q 46 17 43 17 q 122 24 97 17 q 155 51 146 31 q 164 113 164 71 l 164 756 m 529 -271 q 479 -253 497 -271 q 461 -204 461 -236 q 479 -157 461 -174 q 529 -140 497 -140 q 577 -157 560 -140 q 594 -204 594 -174 q 578 -253 594 -236 q 529 -271 561 -271 z "},"I":{"ha":465,"x_min":60,"x_max":404,"o":"m 289 113 q 297 50 289 69 q 327 24 304 31 q 401 17 350 17 q 404 8 404 17 q 401 0 404 0 q 332 1 357 0 l 232 3 l 135 1 q 63 0 108 0 q 60 8 60 0 q 63 17 60 17 q 136 24 113 17 q 169 51 160 31 q 178 113 178 71 l 178 756 q 169 817 178 797 q 136 844 160 836 q 63 851 113 851 q 60 860 60 851 q 63 868 60 868 l 135 867 q 232 864 196 864 q 333 867 272 864 l 401 868 q 404 860 404 868 q 401 851 404 851 q 328 843 351 851 q 297 815 306 835 q 289 753 289 794 l 289 113 z "},"Ĳ":{"ha":963,"x_min":53,"x_max":921,"o":"m 281 486 q 289 424 281 443 q 320 397 297 404 q 394 390 343 390 q 399 382 399 390 q 394 374 399 374 q 325 375 350 374 l 225 376 l 128 375 q 56 374 101 374 q 53 382 53 374 q 56 390 53 390 q 129 397 106 390 q 162 424 153 404 q 171 486 171 444 l 171 756 q 162 817 171 797 q 129 844 153 836 q 56 851 106 851 q 53 860 53 851 q 56 868 53 868 l 128 867 q 225 864 189 864 q 328 867 267 864 l 394 868 q 399 860 399 868 q 394 851 399 851 q 321 843 344 851 q 289 815 297 835 q 281 753 281 794 l 281 486 m 918 868 q 921 860 921 868 q 918 851 921 851 q 855 843 875 851 q 828 815 835 835 q 821 753 821 794 l 821 358 q 778 154 821 239 q 657 26 735 69 q 476 -18 579 -18 q 315 13 388 -18 q 200 90 242 43 q 158 185 158 138 q 174 229 158 213 q 217 246 189 246 q 265 224 251 246 q 289 157 278 203 q 315 80 300 110 q 367 28 329 50 q 474 6 404 6 q 710 278 710 6 l 710 756 q 700 817 710 797 q 663 844 690 836 q 579 851 636 851 q 576 860 576 851 q 579 868 576 868 l 661 867 q 764 864 725 864 q 856 867 800 864 l 918 868 z "},"Í":{"ha":465,"x_min":60,"x_max":419,"o":"m 289 113 q 297 50 289 69 q 327 24 304 31 q 401 17 350 17 q 404 8 404 17 q 401 0 404 0 q 332 1 357 0 l 232 3 l 135 1 q 63 0 108 0 q 60 8 60 0 q 63 17 60 17 q 136 24 113 17 q 169 51 160 31 q 178 113 178 71 l 178 756 q 169 817 178 797 q 136 844 160 836 q 63 851 113 851 q 60 860 60 851 q 63 868 60 868 l 135 867 q 232 864 196 864 q 333 867 272 864 l 401 868 q 404 860 404 868 q 401 851 404 851 q 328 843 351 851 q 297 815 306 835 q 289 753 289 794 l 289 113 m 96 942 q 89 948 90 942 q 92 957 88 954 q 235 1049 142 985 q 301 1093 279 1079 q 340 1088 308 1097 q 395 1065 371 1078 q 407 1050 419 1053 q 249 1003 321 1029 q 99 943 178 978 l 96 942 z "},"Ĭ":{"ha":465,"x_min":60,"x_max":404,"o":"m 289 113 q 297 50 289 69 q 327 24 304 31 q 401 17 350 17 q 404 8 404 17 q 401 0 404 0 q 332 1 357 0 l 232 3 l 135 1 q 63 0 108 0 q 60 8 60 0 q 63 17 60 17 q 136 24 113 17 q 169 51 160 31 q 178 113 178 71 l 178 756 q 169 817 178 797 q 136 844 160 836 q 63 851 113 851 q 60 860 60 851 q 63 868 60 868 l 135 867 q 232 864 196 864 q 333 867 272 864 l 401 868 q 404 860 404 868 q 401 851 404 851 q 328 843 351 851 q 297 815 306 835 q 289 753 289 794 l 289 113 m 233 958 q 134 999 171 958 q 90 1115 97 1040 q 97 1121 89 1121 q 106 1118 104 1121 q 149 1059 113 1085 q 233 1033 186 1033 q 316 1059 279 1033 q 360 1118 353 1085 q 367 1122 360 1122 q 375 1115 375 1121 q 332 999 368 1040 q 233 958 296 958 z "},"Ǐ":{"ha":465,"x_min":60,"x_max":404,"o":"m 289 113 q 297 50 289 69 q 327 24 304 31 q 401 17 350 17 q 404 8 404 17 q 401 0 404 0 q 332 1 357 0 l 232 3 l 135 1 q 63 0 108 0 q 60 8 60 0 q 63 17 60 17 q 136 24 113 17 q 169 51 160 31 q 178 113 178 71 l 178 756 q 169 817 178 797 q 136 844 160 836 q 63 851 113 851 q 60 860 60 851 q 63 868 60 868 l 135 867 q 232 864 196 864 q 333 867 272 864 l 401 868 q 404 860 404 868 q 401 851 404 851 q 328 843 351 851 q 297 815 306 835 q 289 753 289 794 l 289 113 m 72 1099 q 76 1104 72 1101 q 82 1106 81 1107 l 233 1035 l 383 1107 l 385 1107 q 391 1103 389 1107 q 390 1097 393 1100 l 249 954 q 233 949 243 949 q 217 954 222 949 l 74 1096 l 72 1099 z "},"Î":{"ha":465,"x_min":60,"x_max":404,"o":"m 289 113 q 297 50 289 69 q 327 24 304 31 q 401 17 350 17 q 404 8 404 17 q 401 0 404 0 q 332 1 357 0 l 232 3 l 135 1 q 63 0 108 0 q 60 8 60 0 q 63 17 60 17 q 136 24 113 17 q 169 51 160 31 q 178 113 178 71 l 178 756 q 169 817 178 797 q 136 844 160 836 q 63 851 113 851 q 60 860 60 851 q 63 868 60 868 l 135 867 q 232 864 196 864 q 333 867 272 864 l 401 868 q 404 860 404 868 q 401 851 404 851 q 328 843 351 851 q 297 815 306 835 q 289 753 289 794 l 289 113 m 218 1110 q 235 1117 225 1117 q 250 1110 243 1117 l 392 965 q 393 963 393 965 q 390 957 393 960 q 385 956 386 954 l 235 1028 l 83 956 q 76 959 81 954 q 75 965 72 964 l 218 1110 z "},"Ȉ":{"ha":465,"x_min":-29,"x_max":404,"o":"m 289 113 q 297 50 289 69 q 327 24 304 31 q 401 17 350 17 q 404 8 404 17 q 401 0 404 0 q 332 1 357 0 l 232 3 l 135 1 q 63 0 108 0 q 60 8 60 0 q 63 17 60 17 q 136 24 113 17 q 169 51 160 31 q 178 113 178 71 l 178 756 q 169 817 178 797 q 136 844 160 836 q 63 851 113 851 q 60 860 60 851 q 63 868 60 868 l 135 867 q 232 864 196 864 q 333 867 272 864 l 401 868 q 404 860 404 868 q 401 851 404 851 q 328 843 351 851 q 297 815 306 835 q 289 753 289 794 l 289 113 m 378 938 q 164 1057 272 1011 q 176 1075 153 1063 q 230 1095 200 1088 q 264 1096 260 1103 q 389 950 321 1022 q 390 946 390 949 q 386 938 390 942 q 378 938 382 935 m 194 938 q 89 1004 138 976 q -18 1057 40 1032 q -6 1075 -29 1063 q 47 1095 17 1088 q 81 1096 76 1103 q 206 950 156 1001 q 207 946 207 949 q 203 938 207 942 q 194 938 199 935 z "},"Ï":{"ha":465,"x_min":60,"x_max":404,"o":"m 289 113 q 297 50 289 69 q 327 24 304 31 q 401 17 350 17 q 404 8 404 17 q 401 0 404 0 q 332 1 357 0 l 232 3 l 135 1 q 63 0 108 0 q 60 8 60 0 q 63 17 60 17 q 136 24 113 17 q 169 51 160 31 q 178 113 178 71 l 178 756 q 169 817 178 797 q 136 844 160 836 q 63 851 113 851 q 60 860 60 851 q 63 868 60 868 l 135 867 q 232 864 196 864 q 333 867 272 864 l 401 868 q 404 860 404 868 q 401 851 404 851 q 328 843 351 851 q 297 815 306 835 q 289 753 289 794 l 289 113 m 132 989 q 85 1006 103 989 q 67 1053 67 1024 q 85 1098 67 1082 q 132 1114 103 1114 q 178 1098 163 1114 q 194 1053 194 1082 q 178 1006 194 1022 q 132 989 163 989 m 335 989 q 288 1006 304 989 q 271 1053 271 1022 q 288 1098 271 1082 q 335 1114 304 1114 q 380 1098 364 1114 q 396 1053 396 1082 q 380 1006 396 1022 q 335 989 364 989 z "},"İ":{"ha":465,"x_min":60,"x_max":404,"o":"m 289 113 q 297 50 289 69 q 327 24 304 31 q 401 17 350 17 q 404 8 404 17 q 401 0 404 0 q 332 1 357 0 l 232 3 l 135 1 q 63 0 108 0 q 60 8 60 0 q 63 17 60 17 q 136 24 113 17 q 169 51 160 31 q 178 113 178 71 l 178 756 q 169 817 178 797 q 136 844 160 836 q 63 851 113 851 q 60 860 60 851 q 63 868 60 868 l 135 867 q 232 864 196 864 q 333 867 272 864 l 401 868 q 404 860 404 868 q 401 851 404 851 q 328 843 351 851 q 297 815 306 835 q 289 753 289 794 l 289 113 m 233 990 q 183 1008 201 990 q 165 1058 165 1026 q 183 1105 165 1088 q 233 1122 201 1122 q 281 1105 264 1122 q 299 1058 299 1088 q 281 1008 299 1026 q 233 990 264 990 z "},"Ị":{"ha":465,"x_min":60,"x_max":404,"o":"m 289 113 q 297 50 289 69 q 327 24 304 31 q 401 17 350 17 q 404 8 404 17 q 401 0 404 0 q 332 1 357 0 l 232 3 l 135 1 q 63 0 108 0 q 60 8 60 0 q 63 17 60 17 q 136 24 113 17 q 169 51 160 31 q 178 113 178 71 l 178 756 q 169 817 178 797 q 136 844 160 836 q 63 851 113 851 q 60 860 60 851 q 63 868 60 868 l 135 867 q 232 864 196 864 q 333 867 272 864 l 401 868 q 404 860 404 868 q 401 851 404 851 q 328 843 351 851 q 297 815 306 835 q 289 753 289 794 l 289 113 m 235 -271 q 185 -253 203 -271 q 167 -204 167 -236 q 185 -157 167 -174 q 235 -140 203 -140 q 283 -157 265 -140 q 300 -204 300 -174 q 283 -253 300 -236 q 235 -271 267 -271 z "},"Ì":{"ha":465,"x_min":50,"x_max":404,"o":"m 289 113 q 297 50 289 69 q 327 24 304 31 q 401 17 350 17 q 404 8 404 17 q 401 0 404 0 q 332 1 357 0 l 232 3 l 135 1 q 63 0 108 0 q 60 8 60 0 q 63 17 60 17 q 136 24 113 17 q 169 51 160 31 q 178 113 178 71 l 178 756 q 169 817 178 797 q 136 844 160 836 q 63 851 113 851 q 60 860 60 851 q 63 868 60 868 l 135 867 q 232 864 196 864 q 333 867 272 864 l 401 868 q 404 860 404 868 q 401 851 404 851 q 328 843 351 851 q 297 815 306 835 q 289 753 289 794 l 289 113 m 371 943 q 63 1050 215 1013 q 74 1065 50 1053 q 129 1088 97 1078 q 167 1093 161 1097 q 233 1047 200 1072 q 291 1010 247 1039 q 376 957 335 981 q 381 951 381 956 q 378 944 381 947 q 371 943 375 942 z "},"Ỉ":{"ha":465,"x_min":60,"x_max":404,"o":"m 289 113 q 297 50 289 69 q 327 24 304 31 q 401 17 350 17 q 404 8 404 17 q 401 0 404 0 q 332 1 357 0 l 232 3 l 135 1 q 63 0 108 0 q 60 8 60 0 q 63 17 60 17 q 136 24 113 17 q 169 51 160 31 q 178 113 178 71 l 178 756 q 169 817 178 797 q 136 844 160 836 q 63 851 113 851 q 60 860 60 851 q 63 868 60 868 l 135 867 q 232 864 196 864 q 333 867 272 864 l 401 868 q 404 860 404 868 q 401 851 404 851 q 328 843 351 851 q 297 815 306 835 q 289 753 289 794 l 289 113 m 236 904 q 228 901 236 901 q 219 904 221 901 q 215 933 215 919 q 222 974 215 954 q 243 1017 229 993 q 262 1054 256 1039 q 268 1088 268 1069 q 253 1128 268 1114 q 215 1142 239 1142 q 172 1131 200 1142 l 171 1131 q 163 1135 167 1131 q 163 1142 158 1139 q 261 1174 207 1174 q 327 1153 303 1174 q 351 1101 351 1133 q 335 1052 351 1075 q 290 1000 319 1029 q 246 949 260 969 q 236 904 232 928 z "},"Ȋ":{"ha":465,"x_min":60,"x_max":404,"o":"m 289 113 q 297 50 289 69 q 327 24 304 31 q 401 17 350 17 q 404 8 404 17 q 401 0 404 0 q 332 1 357 0 l 232 3 l 135 1 q 63 0 108 0 q 60 8 60 0 q 63 17 60 17 q 136 24 113 17 q 169 51 160 31 q 178 113 178 71 l 178 756 q 169 817 178 797 q 136 844 160 836 q 63 851 113 851 q 60 860 60 851 q 63 868 60 868 l 135 867 q 232 864 196 864 q 333 867 272 864 l 401 868 q 404 860 404 868 q 401 851 404 851 q 328 843 351 851 q 297 815 306 835 q 289 753 289 794 l 289 113 m 106 946 q 97 942 104 942 q 90 949 89 943 q 133 1065 96 1025 q 233 1104 169 1104 q 332 1065 296 1104 q 375 949 368 1025 q 367 942 375 943 q 360 946 360 942 q 316 1005 353 979 q 233 1031 279 1031 q 149 1006 186 1031 q 106 946 113 981 z "},"Ī":{"ha":465,"x_min":49,"x_max":418,"o":"m 289 113 q 297 50 289 69 q 327 24 304 31 q 401 17 350 17 q 404 8 404 17 q 401 0 404 0 q 332 1 357 0 l 232 3 l 135 1 q 63 0 108 0 q 60 8 60 0 q 63 17 60 17 q 136 24 113 17 q 169 51 160 31 q 178 113 178 71 l 178 756 q 169 817 178 797 q 136 844 160 836 q 63 851 113 851 q 60 860 60 851 q 63 868 60 868 l 135 867 q 232 864 196 864 q 333 867 272 864 l 401 868 q 404 860 404 868 q 401 851 404 851 q 328 843 351 851 q 297 815 306 835 q 289 753 289 794 l 289 113 m 58 999 q 49 1021 49 999 q 58 1042 49 1042 l 407 1042 q 415 1035 413 1042 q 418 1021 418 1029 q 415 1006 418 1013 q 407 999 413 999 l 58 999 z "},"Į":{"ha":465,"x_min":60,"x_max":404,"o":"m 289 113 q 297 50 289 69 q 327 24 304 31 q 401 17 350 17 q 404 8 404 17 q 401 0 404 0 q 332 1 357 0 l 232 3 l 135 1 q 63 0 108 0 q 60 8 60 0 q 63 17 60 17 q 136 24 113 17 q 169 51 160 31 q 178 113 178 71 l 178 756 q 169 817 178 797 q 136 844 160 836 q 63 851 113 851 q 60 860 60 851 q 63 868 60 868 l 135 867 q 232 864 196 864 q 333 867 272 864 l 401 868 q 404 860 404 868 q 401 851 404 851 q 328 843 351 851 q 297 815 306 835 q 289 753 289 794 l 289 113 m 244 -382 q 139 -344 176 -382 q 101 -242 101 -307 q 235 17 101 -112 l 249 10 q 189 -171 189 -76 q 222 -287 189 -242 q 307 -332 256 -332 q 342 -326 328 -332 q 371 -308 356 -319 l 372 -308 q 380 -312 376 -308 q 381 -319 383 -317 q 315 -367 346 -353 q 244 -382 283 -382 z "},"Ɨ":{"ha":465,"x_min":57,"x_max":407,"o":"m 63 419 q 57 435 57 419 q 63 450 57 450 l 401 450 q 407 435 407 450 q 401 419 407 419 l 63 419 m 289 113 q 297 50 289 69 q 327 24 304 31 q 401 17 350 17 q 404 8 404 17 q 401 0 404 0 q 332 1 357 0 l 232 3 l 135 1 q 63 0 108 0 q 60 8 60 0 q 63 17 60 17 q 136 24 113 17 q 169 51 160 31 q 178 113 178 71 l 178 756 q 169 817 178 797 q 136 844 160 836 q 63 851 113 851 q 60 860 60 851 q 63 868 60 868 l 135 867 q 232 864 196 864 q 333 867 272 864 l 401 868 q 404 860 404 868 q 401 851 404 851 q 328 843 351 851 q 297 815 306 835 q 289 753 289 794 l 289 113 z "},"Ĩ":{"ha":465,"x_min":46,"x_max":421,"o":"m 289 113 q 297 50 289 69 q 327 24 304 31 q 401 17 350 17 q 404 8 404 17 q 401 0 404 0 q 332 1 357 0 l 232 3 l 135 1 q 63 0 108 0 q 60 8 60 0 q 63 17 60 17 q 136 24 113 17 q 169 51 160 31 q 178 113 178 71 l 178 756 q 169 817 178 797 q 136 844 160 836 q 63 851 113 851 q 60 860 60 851 q 63 868 60 868 l 135 867 q 232 864 196 864 q 333 867 272 864 l 401 868 q 404 860 404 868 q 401 851 404 851 q 328 843 351 851 q 297 815 306 835 q 289 753 289 794 l 289 113 m 339 1051 q 377 1060 363 1051 q 408 1089 392 1069 l 410 1089 q 417 1085 414 1089 q 418 1079 421 1082 q 358 1004 382 1024 q 306 985 335 985 q 266 990 288 985 q 224 1001 244 994 q 188 1011 218 1003 q 128 1019 158 1019 q 93 1013 106 1019 q 72 996 81 1006 q 58 982 63 986 l 56 982 q 49 985 51 982 q 49 992 46 989 q 167 1085 111 1085 q 235 1071 185 1085 q 339 1051 299 1051 z "},"J":{"ha":454,"x_min":-68,"x_max":400,"o":"m 396 868 q 400 860 400 868 q 396 851 400 851 q 334 843 354 851 q 307 815 314 835 q 300 753 300 794 l 300 -29 q 233 -255 300 -172 q 39 -337 165 -337 q -39 -319 -10 -337 q -68 -271 -68 -301 q -54 -233 -68 -249 q -14 -217 -40 -217 q 28 -230 14 -217 q 57 -269 43 -243 q 78 -301 69 -292 q 103 -310 88 -310 q 167 -256 146 -310 q 189 -79 189 -201 l 189 756 q 179 817 189 797 q 142 844 169 836 q 58 851 115 851 q 56 860 56 851 q 58 868 56 868 l 140 867 q 243 864 204 864 q 335 867 279 864 l 396 868 z "},"Ĵ":{"ha":454,"x_min":-68,"x_max":400,"o":"m 396 868 q 400 860 400 868 q 396 851 400 851 q 334 843 354 851 q 307 815 314 835 q 300 753 300 794 l 300 -29 q 233 -255 300 -172 q 39 -337 165 -337 q -39 -319 -10 -337 q -68 -271 -68 -301 q -54 -233 -68 -249 q -14 -217 -40 -217 q 28 -230 14 -217 q 57 -269 43 -243 q 78 -301 69 -292 q 103 -310 88 -310 q 167 -256 146 -310 q 189 -79 189 -201 l 189 756 q 179 817 189 797 q 142 844 169 836 q 58 851 115 851 q 56 860 56 851 q 58 868 56 868 l 140 867 q 243 864 204 864 q 335 867 279 864 l 396 868 m 217 1118 q 233 1125 224 1125 q 249 1118 242 1125 l 390 974 q 392 971 392 974 q 388 965 392 968 q 383 964 385 963 l 233 1036 l 82 964 q 75 967 79 963 q 74 974 71 972 l 217 1118 z "},"K":{"ha":906,"x_min":43,"x_max":904,"o":"m 161 756 q 153 817 161 797 q 122 844 144 836 q 49 851 99 851 q 44 860 44 851 q 49 868 44 868 l 118 867 q 215 864 179 864 q 315 867 254 864 l 383 868 q 386 860 386 868 q 383 851 386 851 q 311 843 335 851 q 279 815 288 835 q 271 753 271 794 l 271 113 q 278 50 271 69 q 309 24 286 31 q 383 17 332 17 q 388 8 388 17 q 383 0 388 0 q 314 1 339 0 l 215 3 l 118 1 q 46 0 92 0 q 43 8 43 0 q 46 17 43 17 q 119 24 96 17 q 152 51 143 31 q 161 113 161 71 l 161 756 m 303 472 l 386 544 l 592 276 q 740 92 689 146 q 820 28 792 39 q 900 17 849 17 q 904 8 904 17 q 900 0 904 0 l 744 0 l 701 -1 q 672 4 682 -1 q 648 25 661 10 q 604 82 635 40 q 571 126 592 97 q 514 201 550 154 l 303 472 m 556 746 q 600 817 600 793 q 518 851 600 851 q 514 860 514 851 q 518 868 514 868 l 579 867 q 685 864 635 864 q 788 867 735 864 l 842 868 q 846 860 846 868 q 842 851 846 851 q 715 822 783 851 q 590 738 647 793 l 233 385 l 199 386 l 556 746 z "},"Ḱ":{"ha":906,"x_min":43,"x_max":904,"o":"m 161 756 q 153 817 161 797 q 122 844 144 836 q 49 851 99 851 q 44 860 44 851 q 49 868 44 868 l 118 867 q 215 864 179 864 q 315 867 254 864 l 383 868 q 386 860 386 868 q 383 851 386 851 q 311 843 335 851 q 279 815 288 835 q 271 753 271 794 l 271 113 q 278 50 271 69 q 309 24 286 31 q 383 17 332 17 q 388 8 388 17 q 383 0 388 0 q 314 1 339 0 l 215 3 l 118 1 q 46 0 92 0 q 43 8 43 0 q 46 17 43 17 q 119 24 96 17 q 152 51 143 31 q 161 113 161 71 l 161 756 m 303 472 l 386 544 l 592 276 q 740 92 689 146 q 820 28 792 39 q 900 17 849 17 q 904 8 904 17 q 900 0 904 0 l 744 0 l 701 -1 q 672 4 682 -1 q 648 25 661 10 q 604 82 635 40 q 571 126 592 97 q 514 201 550 154 l 303 472 m 556 746 q 600 817 600 793 q 518 851 600 851 q 514 860 514 851 q 518 868 514 868 l 579 867 q 685 864 635 864 q 788 867 735 864 l 842 868 q 846 860 846 868 q 842 851 846 851 q 715 822 783 851 q 590 738 647 793 l 233 385 l 199 386 l 556 746 m 318 942 q 311 948 313 942 q 314 957 310 954 q 457 1049 364 985 q 524 1093 501 1079 q 562 1088 531 1097 q 617 1065 593 1078 q 629 1050 642 1053 q 472 1003 543 1029 q 321 943 400 978 l 318 942 z "},"Ǩ":{"ha":906,"x_min":43,"x_max":904,"o":"m 161 756 q 153 817 161 797 q 122 844 144 836 q 49 851 99 851 q 44 860 44 851 q 49 868 44 868 l 118 867 q 215 864 179 864 q 315 867 254 864 l 383 868 q 386 860 386 868 q 383 851 386 851 q 311 843 335 851 q 279 815 288 835 q 271 753 271 794 l 271 113 q 278 50 271 69 q 309 24 286 31 q 383 17 332 17 q 388 8 388 17 q 383 0 388 0 q 314 1 339 0 l 215 3 l 118 1 q 46 0 92 0 q 43 8 43 0 q 46 17 43 17 q 119 24 96 17 q 152 51 143 31 q 161 113 161 71 l 161 756 m 303 472 l 386 544 l 592 276 q 740 92 689 146 q 820 28 792 39 q 900 17 849 17 q 904 8 904 17 q 900 0 904 0 l 744 0 l 701 -1 q 672 4 682 -1 q 648 25 661 10 q 604 82 635 40 q 571 126 592 97 q 514 201 550 154 l 303 472 m 556 746 q 600 817 600 793 q 518 851 600 851 q 514 860 514 851 q 518 868 514 868 l 579 867 q 685 864 635 864 q 788 867 735 864 l 842 868 q 846 860 846 868 q 842 851 846 851 q 715 822 783 851 q 590 738 647 793 l 233 385 l 199 386 l 556 746 m 294 1099 q 299 1104 294 1101 q 304 1106 303 1107 l 456 1035 l 606 1107 l 607 1107 q 613 1103 611 1107 q 613 1097 615 1100 l 471 954 q 456 949 465 949 q 439 954 444 949 l 296 1096 l 294 1099 z "},"Ķ":{"ha":906,"x_min":43,"x_max":904,"o":"m 161 756 q 153 817 161 797 q 122 844 144 836 q 49 851 99 851 q 44 860 44 851 q 49 868 44 868 l 118 867 q 215 864 179 864 q 315 867 254 864 l 383 868 q 386 860 386 868 q 383 851 386 851 q 311 843 335 851 q 279 815 288 835 q 271 753 271 794 l 271 113 q 278 50 271 69 q 309 24 286 31 q 383 17 332 17 q 388 8 388 17 q 383 0 388 0 q 314 1 339 0 l 215 3 l 118 1 q 46 0 92 0 q 43 8 43 0 q 46 17 43 17 q 119 24 96 17 q 152 51 143 31 q 161 113 161 71 l 161 756 m 303 472 l 386 544 l 592 276 q 740 92 689 146 q 820 28 792 39 q 900 17 849 17 q 904 8 904 17 q 900 0 904 0 l 744 0 l 701 -1 q 672 4 682 -1 q 648 25 661 10 q 604 82 635 40 q 571 126 592 97 q 514 201 550 154 l 303 472 m 556 746 q 600 817 600 793 q 518 851 600 851 q 514 860 514 851 q 518 868 514 868 l 579 867 q 685 864 635 864 q 788 867 735 864 l 842 868 q 846 860 846 868 q 842 851 846 851 q 715 822 783 851 q 590 738 647 793 l 233 385 l 199 386 l 556 746 m 463 -383 q 454 -378 457 -383 q 456 -371 451 -374 q 518 -256 518 -315 q 509 -214 518 -226 q 483 -197 500 -201 l 513 -183 q 501 -223 515 -210 q 461 -236 488 -236 q 419 -219 435 -236 q 403 -174 403 -201 q 422 -126 403 -142 q 472 -111 442 -111 q 535 -139 513 -111 q 557 -217 557 -167 q 533 -305 557 -265 q 465 -382 510 -344 l 463 -383 z "},"L":{"ha":746,"x_min":43,"x_max":726,"o":"m 269 118 q 277 62 269 79 q 306 38 285 44 q 371 32 326 32 l 489 32 q 634 84 576 32 q 711 225 692 136 q 719 228 711 229 q 726 224 726 228 q 714 21 714 101 q 709 5 714 10 q 693 0 704 0 l 46 0 q 43 8 43 0 q 46 17 43 17 q 119 24 96 17 q 151 51 143 31 q 160 113 160 71 l 160 756 q 151 817 160 797 q 119 844 143 836 q 46 851 96 851 q 43 860 43 851 q 46 868 43 868 l 115 867 q 214 864 176 864 q 313 867 251 864 l 382 868 q 385 860 385 868 q 382 851 385 851 q 309 844 332 851 q 278 816 286 836 q 269 754 269 796 l 269 118 z "},"Ĺ":{"ha":746,"x_min":43,"x_max":726,"o":"m 269 118 q 277 62 269 79 q 306 38 285 44 q 371 32 326 32 l 489 32 q 634 84 576 32 q 711 225 692 136 q 719 228 711 229 q 726 224 726 228 q 714 21 714 101 q 709 5 714 10 q 693 0 704 0 l 46 0 q 43 8 43 0 q 46 17 43 17 q 119 24 96 17 q 151 51 143 31 q 160 113 160 71 l 160 756 q 151 817 160 797 q 119 844 143 836 q 46 851 96 851 q 43 860 43 851 q 46 868 43 868 l 115 867 q 214 864 176 864 q 313 867 251 864 l 382 868 q 385 860 385 868 q 382 851 385 851 q 309 844 332 851 q 278 816 286 836 q 269 754 269 796 l 269 118 m 85 942 q 78 948 79 942 q 81 957 76 954 q 224 1049 131 985 q 290 1093 268 1079 q 328 1088 297 1097 q 384 1065 360 1078 q 396 1050 408 1053 q 238 1003 310 1029 q 88 943 167 978 l 85 942 z "},"Ľ":{"ha":746,"x_min":43,"x_max":726,"o":"m 269 118 q 277 62 269 79 q 306 38 285 44 q 371 32 326 32 l 489 32 q 634 84 576 32 q 711 225 692 136 q 719 228 711 229 q 726 224 726 228 q 714 21 714 101 q 709 5 714 10 q 693 0 704 0 l 46 0 q 43 8 43 0 q 46 17 43 17 q 119 24 96 17 q 151 51 143 31 q 160 113 160 71 l 160 756 q 151 817 160 797 q 119 844 143 836 q 46 851 96 851 q 43 860 43 851 q 46 868 43 868 l 115 867 q 214 864 176 864 q 313 867 251 864 l 382 868 q 385 860 385 868 q 382 851 385 851 q 309 844 332 851 q 278 816 286 836 q 269 754 269 796 l 269 118 m 490 868 q 512 867 490 875 q 553 845 533 858 q 572 824 574 832 l 517 489 q 508 487 515 486 q 501 490 501 488 l 490 868 z "},"Ļ":{"ha":746,"x_min":43,"x_max":726,"o":"m 269 118 q 277 62 269 79 q 306 38 285 44 q 371 32 326 32 l 489 32 q 634 84 576 32 q 711 225 692 136 q 719 228 711 229 q 726 224 726 228 q 714 21 714 101 q 709 5 714 10 q 693 0 704 0 l 46 0 q 43 8 43 0 q 46 17 43 17 q 119 24 96 17 q 151 51 143 31 q 160 113 160 71 l 160 756 q 151 817 160 797 q 119 844 143 836 q 46 851 96 851 q 43 860 43 851 q 46 868 43 868 l 115 867 q 214 864 176 864 q 313 867 251 864 l 382 868 q 385 860 385 868 q 382 851 385 851 q 309 844 332 851 q 278 816 286 836 q 269 754 269 796 l 269 118 m 392 -383 q 383 -378 386 -383 q 385 -371 381 -374 q 447 -256 447 -317 q 438 -214 447 -226 q 413 -197 429 -201 l 442 -183 q 431 -223 444 -210 q 390 -236 417 -236 q 348 -219 364 -236 q 332 -174 332 -201 q 351 -126 332 -142 q 401 -111 371 -111 q 465 -139 443 -111 q 486 -217 486 -167 q 463 -305 486 -265 q 394 -382 439 -344 l 392 -383 z "},"Ŀ":{"ha":746,"x_min":43,"x_max":726,"o":"m 269 118 q 277 62 269 79 q 306 38 285 44 q 371 32 326 32 l 489 32 q 634 84 576 32 q 711 225 692 136 q 719 228 711 229 q 726 224 726 228 q 714 21 714 101 q 709 5 714 10 q 693 0 704 0 l 46 0 q 43 8 43 0 q 46 17 43 17 q 119 24 96 17 q 151 51 143 31 q 160 113 160 71 l 160 756 q 151 817 160 797 q 119 844 143 836 q 46 851 96 851 q 43 860 43 851 q 46 868 43 868 l 115 867 q 214 864 176 864 q 313 867 251 864 l 382 868 q 385 860 385 868 q 382 851 385 851 q 309 844 332 851 q 278 816 286 836 q 269 754 269 796 l 269 118 m 594 376 q 545 395 564 376 q 526 444 526 414 q 545 491 526 474 q 594 508 564 508 q 644 491 626 508 q 661 444 661 474 q 644 394 661 413 q 594 376 626 376 z "},"Ḷ":{"ha":746,"x_min":43,"x_max":726,"o":"m 269 118 q 277 62 269 79 q 306 38 285 44 q 371 32 326 32 l 489 32 q 634 84 576 32 q 711 225 692 136 q 719 228 711 229 q 726 224 726 228 q 714 21 714 101 q 709 5 714 10 q 693 0 704 0 l 46 0 q 43 8 43 0 q 46 17 43 17 q 119 24 96 17 q 151 51 143 31 q 160 113 160 71 l 160 756 q 151 817 160 797 q 119 844 143 836 q 46 851 96 851 q 43 860 43 851 q 46 868 43 868 l 115 867 q 214 864 176 864 q 313 867 251 864 l 382 868 q 385 860 385 868 q 382 851 385 851 q 309 844 332 851 q 278 816 286 836 q 269 754 269 796 l 269 118 m 411 -271 q 361 -253 379 -271 q 343 -204 343 -236 q 361 -157 343 -174 q 411 -140 379 -140 q 459 -157 442 -140 q 476 -204 476 -174 q 460 -253 476 -236 q 411 -271 443 -271 z "},"Ḹ":{"ha":746,"x_min":38,"x_max":726,"o":"m 269 118 q 277 62 269 79 q 306 38 285 44 q 371 32 326 32 l 489 32 q 634 84 576 32 q 711 225 692 136 q 719 228 711 229 q 726 224 726 228 q 714 21 714 101 q 709 5 714 10 q 693 0 704 0 l 46 0 q 43 8 43 0 q 46 17 43 17 q 119 24 96 17 q 151 51 143 31 q 160 113 160 71 l 160 756 q 151 817 160 797 q 119 844 143 836 q 46 851 96 851 q 43 860 43 851 q 46 868 43 868 l 115 867 q 214 864 176 864 q 313 867 251 864 l 382 868 q 385 860 385 868 q 382 851 385 851 q 309 844 332 851 q 278 816 286 836 q 269 754 269 796 l 269 118 m 411 -271 q 361 -253 379 -271 q 343 -204 343 -236 q 361 -157 343 -174 q 411 -140 379 -140 q 459 -157 442 -140 q 476 -204 476 -174 q 460 -253 476 -236 q 411 -271 443 -271 m 47 999 q 38 1021 38 999 q 47 1042 38 1042 l 396 1042 q 404 1035 401 1042 q 407 1021 407 1029 q 404 1006 407 1013 q 396 999 401 999 l 47 999 z "},"Ḻ":{"ha":746,"x_min":43,"x_max":726,"o":"m 269 118 q 277 62 269 79 q 306 38 285 44 q 371 32 326 32 l 489 32 q 634 84 576 32 q 711 225 692 136 q 719 228 711 229 q 726 224 726 228 q 714 21 714 101 q 709 5 714 10 q 693 0 704 0 l 46 0 q 43 8 43 0 q 46 17 43 17 q 119 24 96 17 q 151 51 143 31 q 160 113 160 71 l 160 756 q 151 817 160 797 q 119 844 143 836 q 46 851 96 851 q 43 860 43 851 q 46 868 43 868 l 115 867 q 214 864 176 864 q 313 867 251 864 l 382 868 q 385 860 385 868 q 382 851 385 851 q 309 844 332 851 q 278 816 286 836 q 269 754 269 796 l 269 118 m 235 -161 q 225 -140 225 -161 q 235 -118 225 -118 l 583 -118 q 592 -125 589 -118 q 594 -140 594 -132 q 592 -155 594 -149 q 583 -161 589 -161 l 235 -161 z "},"Ł":{"ha":736,"x_min":43,"x_max":726,"o":"m 86 318 q 74 331 81 318 q 71 346 67 343 l 419 546 l 421 546 q 433 533 426 546 q 435 518 440 521 l 88 318 l 86 318 m 269 118 q 277 62 269 79 q 306 38 285 44 q 371 32 326 32 l 489 32 q 634 84 576 32 q 711 225 692 136 q 719 228 711 229 q 726 224 726 228 q 714 21 714 101 q 709 5 714 10 q 693 0 704 0 l 46 0 q 43 8 43 0 q 46 17 43 17 q 119 24 96 17 q 151 51 143 31 q 160 113 160 71 l 160 756 q 151 817 160 797 q 119 844 143 836 q 46 851 96 851 q 43 860 43 851 q 46 868 43 868 l 115 867 q 214 864 176 864 q 313 867 251 864 l 382 868 q 385 860 385 868 q 382 851 385 851 q 309 844 332 851 q 278 816 286 836 q 269 754 269 796 l 269 118 z "},"M":{"ha":1169,"x_min":46,"x_max":1140,"o":"m 179 836 l 214 833 l 200 158 q 226 51 199 86 q 317 17 254 17 q 321 8 321 17 q 317 0 321 0 q 258 1 279 0 l 182 3 l 106 1 q 49 0 86 0 q 46 8 46 0 q 49 17 46 17 q 165 158 164 17 l 179 836 m 1138 17 q 1140 8 1140 17 q 1138 0 1140 0 q 1065 1 1092 0 l 968 3 l 875 1 q 810 0 851 0 q 807 8 807 0 q 810 17 807 17 q 879 24 857 17 q 908 51 901 32 q 913 113 915 71 l 885 767 l 939 844 l 579 10 q 568 4 576 4 q 557 10 560 4 l 194 753 q 136 828 169 804 q 58 851 103 851 q 56 860 56 851 q 58 868 56 868 l 114 867 q 157 865 131 865 q 207 867 188 865 q 238 868 226 868 q 267 856 256 868 q 301 796 278 843 l 617 156 l 565 67 l 900 833 q 942 868 914 868 q 964 867 950 868 q 1000 865 978 865 l 1071 867 q 1119 868 1088 868 q 1122 860 1122 868 q 1119 851 1122 851 q 1021 829 1050 851 q 993 751 992 807 l 1022 113 q 1033 50 1025 69 q 1065 24 1042 31 q 1138 17 1088 17 z "},"Ḿ":{"ha":1169,"x_min":46,"x_max":1140,"o":"m 179 836 l 214 833 l 200 158 q 226 51 199 86 q 317 17 254 17 q 321 8 321 17 q 317 0 321 0 q 258 1 279 0 l 182 3 l 106 1 q 49 0 86 0 q 46 8 46 0 q 49 17 46 17 q 165 158 164 17 l 179 836 m 1138 17 q 1140 8 1140 17 q 1138 0 1140 0 q 1065 1 1092 0 l 968 3 l 875 1 q 810 0 851 0 q 807 8 807 0 q 810 17 807 17 q 879 24 857 17 q 908 51 901 32 q 913 113 915 71 l 885 767 l 939 844 l 579 10 q 568 4 576 4 q 557 10 560 4 l 194 753 q 136 828 169 804 q 58 851 103 851 q 56 860 56 851 q 58 868 56 868 l 114 867 q 157 865 131 865 q 207 867 188 865 q 238 868 226 868 q 267 856 256 868 q 301 796 278 843 l 617 156 l 565 67 l 900 833 q 942 868 914 868 q 964 867 950 868 q 1000 865 978 865 l 1071 867 q 1119 868 1088 868 q 1122 860 1122 868 q 1119 851 1122 851 q 1021 829 1050 851 q 993 751 992 807 l 1022 113 q 1033 50 1025 69 q 1065 24 1042 31 q 1138 17 1088 17 m 449 942 q 441 948 443 942 q 443 957 439 954 q 524 1006 483 979 q 575 1040 565 1033 l 654 1092 q 692 1086 661 1096 q 747 1064 724 1076 q 758 1050 771 1051 q 450 942 594 1008 l 449 942 z "},"Ṁ":{"ha":1169,"x_min":46,"x_max":1140,"o":"m 179 836 l 214 833 l 200 158 q 226 51 199 86 q 317 17 254 17 q 321 8 321 17 q 317 0 321 0 q 258 1 279 0 l 182 3 l 106 1 q 49 0 86 0 q 46 8 46 0 q 49 17 46 17 q 165 158 164 17 l 179 836 m 1138 17 q 1140 8 1140 17 q 1138 0 1140 0 q 1065 1 1092 0 l 968 3 l 875 1 q 810 0 851 0 q 807 8 807 0 q 810 17 807 17 q 879 24 857 17 q 908 51 901 32 q 913 113 915 71 l 885 767 l 939 844 l 579 10 q 568 4 576 4 q 557 10 560 4 l 194 753 q 136 828 169 804 q 58 851 103 851 q 56 860 56 851 q 58 868 56 868 l 114 867 q 157 865 131 865 q 207 867 188 865 q 238 868 226 868 q 267 856 256 868 q 301 796 278 843 l 617 156 l 565 67 l 900 833 q 942 868 914 868 q 964 867 950 868 q 1000 865 978 865 l 1071 867 q 1119 868 1088 868 q 1122 860 1122 868 q 1119 851 1122 851 q 1021 829 1050 851 q 993 751 992 807 l 1022 113 q 1033 50 1025 69 q 1065 24 1042 31 q 1138 17 1088 17 m 586 990 q 535 1008 554 990 q 517 1058 517 1026 q 535 1105 517 1088 q 586 1122 554 1122 q 634 1105 617 1122 q 651 1058 651 1088 q 634 1008 651 1026 q 586 990 617 990 z "},"Ṃ":{"ha":1169,"x_min":46,"x_max":1140,"o":"m 179 836 l 214 833 l 200 158 q 226 51 199 86 q 317 17 254 17 q 321 8 321 17 q 317 0 321 0 q 258 1 279 0 l 182 3 l 106 1 q 49 0 86 0 q 46 8 46 0 q 49 17 46 17 q 165 158 164 17 l 179 836 m 1138 17 q 1140 8 1140 17 q 1138 0 1140 0 q 1065 1 1092 0 l 968 3 l 875 1 q 810 0 851 0 q 807 8 807 0 q 810 17 807 17 q 879 24 857 17 q 908 51 901 32 q 913 113 915 71 l 885 767 l 939 844 l 579 10 q 568 4 576 4 q 557 10 560 4 l 194 753 q 136 828 169 804 q 58 851 103 851 q 56 860 56 851 q 58 868 56 868 l 114 867 q 157 865 131 865 q 207 867 188 865 q 238 868 226 868 q 267 856 256 868 q 301 796 278 843 l 617 156 l 565 67 l 900 833 q 942 868 914 868 q 964 867 950 868 q 1000 865 978 865 l 1071 867 q 1119 868 1088 868 q 1122 860 1122 868 q 1119 851 1122 851 q 1021 829 1050 851 q 993 751 992 807 l 1022 113 q 1033 50 1025 69 q 1065 24 1042 31 q 1138 17 1088 17 m 572 -271 q 522 -253 540 -271 q 504 -204 504 -236 q 522 -157 504 -174 q 572 -140 540 -140 q 620 -157 603 -140 q 638 -204 638 -174 q 621 -253 638 -236 q 572 -271 604 -271 z "},"N":{"ha":1014,"x_min":46,"x_max":989,"o":"m 169 836 l 206 833 l 206 158 q 233 51 206 86 q 315 17 260 17 q 318 8 318 17 q 315 0 318 0 q 260 1 279 0 l 189 3 l 114 1 q 53 0 93 0 q 50 8 50 0 q 53 17 50 17 q 141 51 113 17 q 169 158 169 86 l 169 836 m 872 -18 q 866 -22 872 -21 q 857 -21 860 -24 l 203 754 q 121 830 157 808 q 49 851 85 851 q 46 860 46 851 q 49 868 46 868 l 103 867 q 150 865 119 865 l 221 867 q 253 868 235 868 q 269 863 264 868 q 286 840 275 857 l 319 796 l 861 143 l 872 -18 m 872 -18 l 838 25 l 838 708 q 811 816 838 781 q 729 851 785 851 q 726 860 726 851 q 729 868 726 868 l 785 867 q 856 864 826 864 q 928 867 881 864 l 986 868 q 989 860 989 868 q 986 851 989 851 q 872 708 872 851 l 872 -18 z "},"Ń":{"ha":1014,"x_min":46,"x_max":989,"o":"m 169 836 l 206 833 l 206 158 q 233 51 206 86 q 315 17 260 17 q 318 8 318 17 q 315 0 318 0 q 260 1 279 0 l 189 3 l 114 1 q 53 0 93 0 q 50 8 50 0 q 53 17 50 17 q 141 51 113 17 q 169 158 169 86 l 169 836 m 872 -18 q 866 -22 872 -21 q 857 -21 860 -24 l 203 754 q 121 830 157 808 q 49 851 85 851 q 46 860 46 851 q 49 868 46 868 l 103 867 q 150 865 119 865 l 221 867 q 253 868 235 868 q 269 863 264 868 q 286 840 275 857 l 319 796 l 861 143 l 872 -18 m 872 -18 l 838 25 l 838 708 q 811 816 838 781 q 729 851 785 851 q 726 860 726 851 q 729 868 726 868 l 785 867 q 856 864 826 864 q 928 867 881 864 l 986 868 q 989 860 989 868 q 986 851 989 851 q 872 708 872 851 l 872 -18 m 388 942 q 381 948 382 942 q 383 957 379 954 q 526 1049 433 985 q 593 1093 571 1079 q 631 1088 600 1097 q 687 1065 663 1078 q 699 1050 711 1053 q 541 1003 613 1029 q 390 943 469 978 l 388 942 z "},"Ň":{"ha":1014,"x_min":46,"x_max":989,"o":"m 169 836 l 206 833 l 206 158 q 233 51 206 86 q 315 17 260 17 q 318 8 318 17 q 315 0 318 0 q 260 1 279 0 l 189 3 l 114 1 q 53 0 93 0 q 50 8 50 0 q 53 17 50 17 q 141 51 113 17 q 169 158 169 86 l 169 836 m 872 -18 q 866 -22 872 -21 q 857 -21 860 -24 l 203 754 q 121 830 157 808 q 49 851 85 851 q 46 860 46 851 q 49 868 46 868 l 103 867 q 150 865 119 865 l 221 867 q 253 868 235 868 q 269 863 264 868 q 286 840 275 857 l 319 796 l 861 143 l 872 -18 m 872 -18 l 838 25 l 838 708 q 811 816 838 781 q 729 851 785 851 q 726 860 726 851 q 729 868 726 868 l 785 867 q 856 864 826 864 q 928 867 881 864 l 986 868 q 989 860 989 868 q 986 851 989 851 q 872 708 872 851 l 872 -18 m 364 1099 q 368 1104 364 1101 q 374 1106 372 1107 l 525 1035 l 675 1107 l 676 1107 q 683 1103 681 1107 q 682 1097 685 1100 l 540 954 q 525 949 535 949 q 508 954 514 949 l 365 1096 l 364 1099 z "},"Ṋ":{"ha":1014,"x_min":46,"x_max":989,"o":"m 169 836 l 206 833 l 206 158 q 233 51 206 86 q 315 17 260 17 q 318 8 318 17 q 315 0 318 0 q 260 1 279 0 l 189 3 l 114 1 q 53 0 93 0 q 50 8 50 0 q 53 17 50 17 q 141 51 113 17 q 169 158 169 86 l 169 836 m 872 -18 q 866 -22 872 -21 q 857 -21 860 -24 l 203 754 q 121 830 157 808 q 49 851 85 851 q 46 860 46 851 q 49 868 46 868 l 103 867 q 150 865 119 865 l 221 867 q 253 868 235 868 q 269 863 264 868 q 286 840 275 857 l 319 796 l 861 143 l 872 -18 m 872 -18 l 838 25 l 838 708 q 811 816 838 781 q 729 851 785 851 q 726 860 726 851 q 729 868 726 868 l 785 867 q 856 864 826 864 q 928 867 881 864 l 986 868 q 989 860 989 868 q 986 851 989 851 q 872 708 872 851 l 872 -18 m 369 -260 q 363 -256 367 -261 q 361 -250 358 -251 l 504 -107 q 521 -101 510 -101 q 536 -107 531 -101 l 678 -250 q 679 -253 679 -250 q 676 -258 679 -256 q 671 -260 672 -261 l 521 -189 l 369 -260 z "},"Ņ":{"ha":1014,"x_min":46,"x_max":989,"o":"m 169 836 l 206 833 l 206 158 q 233 51 206 86 q 315 17 260 17 q 318 8 318 17 q 315 0 318 0 q 260 1 279 0 l 189 3 l 114 1 q 53 0 93 0 q 50 8 50 0 q 53 17 50 17 q 141 51 113 17 q 169 158 169 86 l 169 836 m 872 -18 q 866 -22 872 -21 q 857 -21 860 -24 l 203 754 q 121 830 157 808 q 49 851 85 851 q 46 860 46 851 q 49 868 46 868 l 103 867 q 150 865 119 865 l 221 867 q 253 868 235 868 q 269 863 264 868 q 286 840 275 857 l 319 796 l 861 143 l 872 -18 m 872 -18 l 838 25 l 838 708 q 811 816 838 781 q 729 851 785 851 q 726 860 726 851 q 729 868 726 868 l 785 867 q 856 864 826 864 q 928 867 881 864 l 986 868 q 989 860 989 868 q 986 851 989 851 q 872 708 872 851 l 872 -18 m 501 -383 q 493 -378 496 -383 q 493 -371 490 -374 q 557 -256 557 -317 q 548 -214 557 -226 q 522 -197 539 -201 l 551 -183 q 540 -223 553 -210 q 500 -236 526 -236 q 458 -219 474 -236 q 442 -174 442 -201 q 461 -126 442 -142 q 511 -111 481 -111 q 574 -139 551 -111 q 596 -217 596 -167 q 572 -305 596 -265 q 504 -382 549 -344 l 501 -383 z "},"Ṅ":{"ha":1014,"x_min":46,"x_max":989,"o":"m 169 836 l 206 833 l 206 158 q 233 51 206 86 q 315 17 260 17 q 318 8 318 17 q 315 0 318 0 q 260 1 279 0 l 189 3 l 114 1 q 53 0 93 0 q 50 8 50 0 q 53 17 50 17 q 141 51 113 17 q 169 158 169 86 l 169 836 m 872 -18 q 866 -22 872 -21 q 857 -21 860 -24 l 203 754 q 121 830 157 808 q 49 851 85 851 q 46 860 46 851 q 49 868 46 868 l 103 867 q 150 865 119 865 l 221 867 q 253 868 235 868 q 269 863 264 868 q 286 840 275 857 l 319 796 l 861 143 l 872 -18 m 872 -18 l 838 25 l 838 708 q 811 816 838 781 q 729 851 785 851 q 726 860 726 851 q 729 868 726 868 l 785 867 q 856 864 826 864 q 928 867 881 864 l 986 868 q 989 860 989 868 q 986 851 989 851 q 872 708 872 851 l 872 -18 m 525 990 q 475 1008 493 990 q 457 1058 457 1026 q 475 1105 457 1088 q 525 1122 493 1122 q 573 1105 556 1122 q 590 1058 590 1088 q 573 1008 590 1026 q 525 990 556 990 z "},"Ṇ":{"ha":1014,"x_min":46,"x_max":989,"o":"m 169 836 l 206 833 l 206 158 q 233 51 206 86 q 315 17 260 17 q 318 8 318 17 q 315 0 318 0 q 260 1 279 0 l 189 3 l 114 1 q 53 0 93 0 q 50 8 50 0 q 53 17 50 17 q 141 51 113 17 q 169 158 169 86 l 169 836 m 872 -18 q 866 -22 872 -21 q 857 -21 860 -24 l 203 754 q 121 830 157 808 q 49 851 85 851 q 46 860 46 851 q 49 868 46 868 l 103 867 q 150 865 119 865 l 221 867 q 253 868 235 868 q 269 863 264 868 q 286 840 275 857 l 319 796 l 861 143 l 872 -18 m 872 -18 l 838 25 l 838 708 q 811 816 838 781 q 729 851 785 851 q 726 860 726 851 q 729 868 726 868 l 785 867 q 856 864 826 864 q 928 867 881 864 l 986 868 q 989 860 989 868 q 986 851 989 851 q 872 708 872 851 l 872 -18 m 521 -271 q 471 -253 489 -271 q 453 -204 453 -236 q 471 -157 453 -174 q 521 -140 489 -140 q 569 -157 551 -140 q 586 -204 586 -174 q 569 -253 586 -236 q 521 -271 553 -271 z "},"Ǹ":{"ha":1014,"x_min":46,"x_max":989,"o":"m 169 836 l 206 833 l 206 158 q 233 51 206 86 q 315 17 260 17 q 318 8 318 17 q 315 0 318 0 q 260 1 279 0 l 189 3 l 114 1 q 53 0 93 0 q 50 8 50 0 q 53 17 50 17 q 141 51 113 17 q 169 158 169 86 l 169 836 m 872 -18 q 866 -22 872 -21 q 857 -21 860 -24 l 203 754 q 121 830 157 808 q 49 851 85 851 q 46 860 46 851 q 49 868 46 868 l 103 867 q 150 865 119 865 l 221 867 q 253 868 235 868 q 269 863 264 868 q 286 840 275 857 l 319 796 l 861 143 l 872 -18 m 872 -18 l 838 25 l 838 708 q 811 816 838 781 q 729 851 785 851 q 726 860 726 851 q 729 868 726 868 l 785 867 q 856 864 826 864 q 928 867 881 864 l 986 868 q 989 860 989 868 q 986 851 989 851 q 872 708 872 851 l 872 -18 m 663 943 q 354 1050 507 1013 q 365 1065 342 1053 q 421 1088 389 1078 q 458 1093 453 1097 q 525 1047 492 1072 q 583 1010 539 1039 q 668 957 626 981 q 672 951 672 956 q 669 944 672 947 q 663 943 667 942 z "},"Ṉ":{"ha":1014,"x_min":46,"x_max":989,"o":"m 169 836 l 206 833 l 206 158 q 233 51 206 86 q 315 17 260 17 q 318 8 318 17 q 315 0 318 0 q 260 1 279 0 l 189 3 l 114 1 q 53 0 93 0 q 50 8 50 0 q 53 17 50 17 q 141 51 113 17 q 169 158 169 86 l 169 836 m 872 -18 q 866 -22 872 -21 q 857 -21 860 -24 l 203 754 q 121 830 157 808 q 49 851 85 851 q 46 860 46 851 q 49 868 46 868 l 103 867 q 150 865 119 865 l 221 867 q 253 868 235 868 q 269 863 264 868 q 286 840 275 857 l 319 796 l 861 143 l 872 -18 m 872 -18 l 838 25 l 838 708 q 811 816 838 781 q 729 851 785 851 q 726 860 726 851 q 729 868 726 868 l 785 867 q 856 864 826 864 q 928 867 881 864 l 986 868 q 989 860 989 868 q 986 851 989 851 q 872 708 872 851 l 872 -18 m 344 -161 q 335 -140 335 -161 q 344 -118 335 -118 l 693 -118 q 701 -125 699 -118 q 704 -140 704 -132 q 701 -155 704 -149 q 693 -161 699 -161 l 344 -161 z "},"Ñ":{"ha":1014,"x_min":46,"x_max":989,"o":"m 169 836 l 206 833 l 206 158 q 233 51 206 86 q 315 17 260 17 q 318 8 318 17 q 315 0 318 0 q 260 1 279 0 l 189 3 l 114 1 q 53 0 93 0 q 50 8 50 0 q 53 17 50 17 q 141 51 113 17 q 169 158 169 86 l 169 836 m 872 -18 q 866 -22 872 -21 q 857 -21 860 -24 l 203 754 q 121 830 157 808 q 49 851 85 851 q 46 860 46 851 q 49 868 46 868 l 103 867 q 150 865 119 865 l 221 867 q 253 868 235 868 q 269 863 264 868 q 286 840 275 857 l 319 796 l 861 143 l 872 -18 m 872 -18 l 838 25 l 838 708 q 811 816 838 781 q 729 851 785 851 q 726 860 726 851 q 729 868 726 868 l 785 867 q 856 864 826 864 q 928 867 881 864 l 986 868 q 989 860 989 868 q 986 851 989 851 q 872 708 872 851 l 872 -18 m 631 1051 q 669 1060 654 1051 q 700 1089 683 1069 l 701 1089 q 709 1085 706 1089 q 710 1079 713 1082 q 650 1004 674 1024 q 597 985 626 985 q 558 990 579 985 q 515 1001 536 994 q 480 1011 510 1003 q 419 1019 450 1019 q 385 1013 397 1019 q 363 996 372 1006 q 350 982 354 986 l 347 982 q 340 985 343 982 q 340 992 338 989 q 458 1085 403 1085 q 526 1071 476 1085 q 631 1051 590 1051 z "},"Ŋ":{"ha":1014,"x_min":46,"x_max":989,"o":"m 203 754 q 121 830 157 808 q 49 851 85 851 q 46 860 46 851 q 49 868 46 868 l 103 867 q 150 865 119 865 l 221 867 q 253 868 235 868 q 269 863 264 868 q 286 840 275 857 l 319 796 l 861 143 l 872 -18 l 857 -21 l 203 754 m 693 -265 q 603 -242 638 -265 q 569 -183 569 -218 q 584 -141 569 -157 q 622 -125 599 -125 q 661 -140 650 -125 q 681 -182 672 -154 q 697 -222 688 -208 q 729 -235 706 -235 q 810 -176 781 -235 q 839 -21 839 -118 l 872 -18 q 826 -201 872 -136 q 693 -265 779 -265 m 53 0 q 50 8 50 0 q 53 17 50 17 q 142 51 113 17 q 171 158 171 86 l 171 836 l 206 833 l 206 158 q 233 51 206 86 q 315 17 260 17 q 318 8 318 17 q 315 0 318 0 q 260 1 279 0 l 189 3 l 114 1 q 53 0 93 0 m 839 708 q 812 816 839 781 q 729 851 785 851 q 726 860 726 851 q 729 868 726 868 l 785 867 q 856 864 826 864 q 928 867 881 864 l 986 868 q 989 860 989 868 q 986 851 989 851 q 872 708 872 851 l 872 -18 l 839 -21 l 839 708 z "},"O":{"ha":1064,"x_min":68,"x_max":996,"o":"m 508 -17 q 278 44 379 -17 q 123 208 178 104 q 68 433 68 311 q 140 678 68 576 q 326 832 213 781 q 557 883 439 883 q 789 822 689 883 q 942 658 889 760 q 996 443 996 557 q 929 211 996 317 q 751 44 863 106 q 508 -17 639 -17 m 557 14 q 717 60 646 14 q 828 194 788 106 q 869 404 869 282 q 824 635 869 533 q 695 793 779 736 q 500 850 611 850 q 275 752 356 850 q 194 482 194 654 q 240 243 194 350 q 369 75 286 136 q 557 14 451 14 z "},"Ó":{"ha":1064,"x_min":68,"x_max":996,"o":"m 508 -17 q 278 44 379 -17 q 123 208 178 104 q 68 433 68 311 q 140 678 68 576 q 326 832 213 781 q 557 883 439 883 q 789 822 689 883 q 942 658 889 760 q 996 443 996 557 q 929 211 996 317 q 751 44 863 106 q 508 -17 639 -17 m 557 14 q 717 60 646 14 q 828 194 788 106 q 869 404 869 282 q 824 635 869 533 q 695 793 779 736 q 500 850 611 850 q 275 752 356 850 q 194 482 194 654 q 240 243 194 350 q 369 75 286 136 q 557 14 451 14 m 399 942 q 392 948 393 942 q 394 957 390 954 q 538 1049 444 985 q 604 1093 582 1079 q 642 1088 611 1097 q 698 1065 674 1078 q 710 1050 722 1053 q 552 1003 624 1029 q 401 943 481 978 l 399 942 z "},"Ŏ":{"ha":1064,"x_min":68,"x_max":996,"o":"m 508 -17 q 278 44 379 -17 q 123 208 178 104 q 68 433 68 311 q 140 678 68 576 q 326 832 213 781 q 557 883 439 883 q 789 822 689 883 q 942 658 889 760 q 996 443 996 557 q 929 211 996 317 q 751 44 863 106 q 508 -17 639 -17 m 557 14 q 717 60 646 14 q 828 194 788 106 q 869 404 869 282 q 824 635 869 533 q 695 793 779 736 q 500 850 611 850 q 275 752 356 850 q 194 482 194 654 q 240 243 194 350 q 369 75 286 136 q 557 14 451 14 m 536 958 q 437 999 474 958 q 393 1115 400 1040 q 399 1121 392 1121 q 408 1118 407 1121 q 452 1059 415 1085 q 536 1033 489 1033 q 619 1059 582 1033 q 663 1118 656 1085 q 670 1122 663 1122 q 678 1115 678 1121 q 635 999 671 1040 q 536 958 599 958 z "},"Ǒ":{"ha":1064,"x_min":68,"x_max":996,"o":"m 508 -17 q 278 44 379 -17 q 123 208 178 104 q 68 433 68 311 q 140 678 68 576 q 326 832 213 781 q 557 883 439 883 q 789 822 689 883 q 942 658 889 760 q 996 443 996 557 q 929 211 996 317 q 751 44 863 106 q 508 -17 639 -17 m 557 14 q 717 60 646 14 q 828 194 788 106 q 869 404 869 282 q 824 635 869 533 q 695 793 779 736 q 500 850 611 850 q 275 752 356 850 q 194 482 194 654 q 240 243 194 350 q 369 75 286 136 q 557 14 451 14 m 375 1099 q 379 1104 375 1101 q 385 1106 383 1107 l 536 1035 l 686 1107 l 688 1107 q 694 1103 692 1107 q 693 1097 696 1100 l 551 954 q 536 949 546 949 q 519 954 525 949 l 376 1096 l 375 1099 z "},"Ô":{"ha":1064,"x_min":68,"x_max":996,"o":"m 508 -17 q 278 44 379 -17 q 123 208 178 104 q 68 433 68 311 q 140 678 68 576 q 326 832 213 781 q 557 883 439 883 q 789 822 689 883 q 942 658 889 760 q 996 443 996 557 q 929 211 996 317 q 751 44 863 106 q 508 -17 639 -17 m 557 14 q 717 60 646 14 q 828 194 788 106 q 869 404 869 282 q 824 635 869 533 q 695 793 779 736 q 500 850 611 850 q 275 752 356 850 q 194 482 194 654 q 240 243 194 350 q 369 75 286 136 q 557 14 451 14 m 521 1110 q 538 1117 528 1117 q 553 1110 546 1117 l 694 965 q 696 963 696 965 q 692 957 696 960 q 688 956 689 954 l 538 1028 l 386 956 q 379 959 383 954 q 378 965 375 964 l 521 1110 z "},"Ố":{"ha":1064,"x_min":68,"x_max":996,"o":"m 508 -17 q 278 44 379 -17 q 123 208 178 104 q 68 433 68 311 q 140 678 68 576 q 326 832 213 781 q 557 883 439 883 q 789 822 689 883 q 942 658 889 760 q 996 443 996 557 q 929 211 996 317 q 751 44 863 106 q 508 -17 639 -17 m 557 14 q 717 60 646 14 q 828 194 788 106 q 869 404 869 282 q 824 635 869 533 q 695 793 779 736 q 500 850 611 850 q 275 752 356 850 q 194 482 194 654 q 240 243 194 350 q 369 75 286 136 q 557 14 451 14 m 519 1096 q 536 1103 526 1103 q 551 1096 544 1103 l 693 954 q 694 951 694 954 q 691 946 694 949 q 686 944 688 943 l 536 1015 l 385 944 q 378 948 382 943 q 376 954 374 953 l 519 1096 m 622 1015 q 616 1021 618 1015 q 617 1029 614 1026 q 714 1167 665 1089 q 750 1164 718 1174 q 807 1141 782 1154 q 819 1124 832 1128 q 722 1078 765 1103 q 626 1017 678 1053 l 622 1015 z "},"Ộ":{"ha":1064,"x_min":68,"x_max":996,"o":"m 508 -17 q 278 44 379 -17 q 123 208 178 104 q 68 433 68 311 q 140 678 68 576 q 326 832 213 781 q 557 883 439 883 q 789 822 689 883 q 942 658 889 760 q 996 443 996 557 q 929 211 996 317 q 751 44 863 106 q 508 -17 639 -17 m 557 14 q 717 60 646 14 q 828 194 788 106 q 869 404 869 282 q 824 635 869 533 q 695 793 779 736 q 500 850 611 850 q 275 752 356 850 q 194 482 194 654 q 240 243 194 350 q 369 75 286 136 q 557 14 451 14 m 550 -271 q 500 -253 518 -271 q 482 -204 482 -236 q 500 -157 482 -174 q 550 -140 518 -140 q 598 -157 581 -140 q 615 -204 615 -174 q 599 -253 615 -236 q 550 -271 582 -271 m 519 1096 q 536 1103 526 1103 q 551 1096 544 1103 l 693 954 q 694 951 694 954 q 691 946 694 949 q 686 944 688 943 l 536 1015 l 385 944 q 378 948 382 943 q 376 954 374 953 l 519 1096 z "},"Ồ":{"ha":1064,"x_min":68,"x_max":996,"o":"m 508 -17 q 278 44 379 -17 q 123 208 178 104 q 68 433 68 311 q 140 678 68 576 q 326 832 213 781 q 557 883 439 883 q 789 822 689 883 q 942 658 889 760 q 996 443 996 557 q 929 211 996 317 q 751 44 863 106 q 508 -17 639 -17 m 557 14 q 717 60 646 14 q 828 194 788 106 q 869 404 869 282 q 824 635 869 533 q 695 793 779 736 q 500 850 611 850 q 275 752 356 850 q 194 482 194 654 q 240 243 194 350 q 369 75 286 136 q 557 14 451 14 m 519 1096 q 536 1103 526 1103 q 551 1096 544 1103 l 693 954 q 694 951 694 954 q 691 946 694 949 q 686 944 688 943 l 536 1015 l 385 944 q 378 948 382 943 q 376 954 374 953 l 519 1096 m 761 986 q 666 1048 708 1024 q 571 1093 624 1072 q 583 1110 558 1097 q 640 1133 608 1124 q 676 1136 672 1143 q 772 999 725 1060 q 774 994 774 997 q 770 988 774 990 q 761 986 767 985 z "},"Ổ":{"ha":1064,"x_min":68,"x_max":996,"o":"m 508 -17 q 278 44 379 -17 q 123 208 178 104 q 68 433 68 311 q 140 678 68 576 q 326 832 213 781 q 557 883 439 883 q 789 822 689 883 q 942 658 889 760 q 996 443 996 557 q 929 211 996 317 q 751 44 863 106 q 508 -17 639 -17 m 557 14 q 717 60 646 14 q 828 194 788 106 q 869 404 869 282 q 824 635 869 533 q 695 793 779 736 q 500 850 611 850 q 275 752 356 850 q 194 482 194 654 q 240 243 194 350 q 369 75 286 136 q 557 14 451 14 m 519 1096 q 536 1103 526 1103 q 551 1096 544 1103 l 693 954 q 694 951 694 954 q 691 946 694 949 q 686 944 688 943 l 536 1015 l 385 944 q 378 948 382 943 q 376 954 374 953 l 519 1096 m 651 1008 q 649 1026 649 1022 q 657 1060 649 1043 q 667 1079 665 1076 q 685 1131 685 1110 q 671 1163 685 1151 q 639 1174 657 1174 q 608 1167 622 1174 l 607 1167 q 599 1172 603 1167 q 599 1178 594 1176 q 642 1197 619 1190 q 682 1204 665 1204 q 733 1186 714 1204 q 753 1144 753 1168 q 740 1109 753 1125 q 706 1072 728 1093 q 674 1038 683 1051 q 667 1008 664 1024 q 660 1005 668 1006 q 651 1008 653 1004 z "},"Ỗ":{"ha":1064,"x_min":68,"x_max":996,"o":"m 508 -17 q 278 44 379 -17 q 123 208 178 104 q 68 433 68 311 q 140 678 68 576 q 326 832 213 781 q 557 883 439 883 q 789 822 689 883 q 942 658 889 760 q 996 443 996 557 q 929 211 996 317 q 751 44 863 106 q 508 -17 639 -17 m 557 14 q 717 60 646 14 q 828 194 788 106 q 869 404 869 282 q 824 635 869 533 q 695 793 779 736 q 500 850 611 850 q 275 752 356 850 q 194 482 194 654 q 240 243 194 350 q 369 75 286 136 q 557 14 451 14 m 519 1096 q 536 1103 526 1103 q 551 1096 544 1103 l 693 954 q 694 951 694 954 q 691 946 694 949 q 686 944 688 943 l 536 1015 l 385 944 q 378 948 382 943 q 376 954 374 953 l 519 1096 m 650 1179 q 688 1188 674 1179 q 719 1217 703 1197 l 721 1217 q 728 1213 725 1217 q 729 1207 732 1210 q 669 1132 693 1151 q 618 1113 646 1113 q 535 1129 590 1113 q 499 1139 529 1131 q 439 1147 469 1147 q 404 1140 417 1147 q 383 1124 392 1133 q 369 1110 374 1114 l 367 1110 q 360 1113 363 1110 q 360 1119 357 1117 q 478 1213 422 1213 q 547 1199 497 1213 q 650 1179 611 1179 z "},"Ȍ":{"ha":1064,"x_min":68,"x_max":996,"o":"m 508 -17 q 278 44 379 -17 q 123 208 178 104 q 68 433 68 311 q 140 678 68 576 q 326 832 213 781 q 557 883 439 883 q 789 822 689 883 q 942 658 889 760 q 996 443 996 557 q 929 211 996 317 q 751 44 863 106 q 508 -17 639 -17 m 557 14 q 717 60 646 14 q 828 194 788 106 q 869 404 869 282 q 824 635 869 533 q 695 793 779 736 q 500 850 611 850 q 275 752 356 850 q 194 482 194 654 q 240 243 194 350 q 369 75 286 136 q 557 14 451 14 m 681 938 q 467 1057 575 1011 q 479 1075 456 1063 q 533 1095 503 1088 q 567 1096 563 1103 q 692 950 624 1022 q 693 946 693 949 q 689 938 693 942 q 681 938 685 935 m 497 938 q 392 1004 440 976 q 285 1057 343 1032 q 297 1075 274 1063 q 349 1095 319 1088 q 383 1096 379 1103 q 508 950 458 1001 q 510 946 510 949 q 506 938 510 942 q 497 938 501 935 z "},"Ö":{"ha":1064,"x_min":68,"x_max":996,"o":"m 508 -17 q 278 44 379 -17 q 123 208 178 104 q 68 433 68 311 q 140 678 68 576 q 326 832 213 781 q 557 883 439 883 q 789 822 689 883 q 942 658 889 760 q 996 443 996 557 q 929 211 996 317 q 751 44 863 106 q 508 -17 639 -17 m 557 14 q 717 60 646 14 q 828 194 788 106 q 869 404 869 282 q 824 635 869 533 q 695 793 779 736 q 500 850 611 850 q 275 752 356 850 q 194 482 194 654 q 240 243 194 350 q 369 75 286 136 q 557 14 451 14 m 415 989 q 368 1006 385 989 q 351 1053 351 1022 q 368 1098 351 1082 q 415 1114 385 1114 q 461 1098 444 1114 q 478 1053 478 1082 q 461 1006 478 1022 q 415 989 444 989 m 658 989 q 611 1006 628 989 q 594 1053 594 1022 q 611 1098 594 1082 q 658 1114 628 1114 q 704 1098 688 1114 q 721 1053 721 1082 q 704 1006 721 1022 q 658 989 688 989 z "},"Ọ":{"ha":1064,"x_min":68,"x_max":996,"o":"m 508 -17 q 278 44 379 -17 q 123 208 178 104 q 68 433 68 311 q 140 678 68 576 q 326 832 213 781 q 557 883 439 883 q 789 822 689 883 q 942 658 889 760 q 996 443 996 557 q 929 211 996 317 q 751 44 863 106 q 508 -17 639 -17 m 557 14 q 717 60 646 14 q 828 194 788 106 q 869 404 869 282 q 824 635 869 533 q 695 793 779 736 q 500 850 611 850 q 275 752 356 850 q 194 482 194 654 q 240 243 194 350 q 369 75 286 136 q 557 14 451 14 m 550 -271 q 500 -253 518 -271 q 482 -204 482 -236 q 500 -157 482 -174 q 550 -140 518 -140 q 598 -157 581 -140 q 615 -204 615 -174 q 599 -253 615 -236 q 550 -271 582 -271 z "},"Ò":{"ha":1064,"x_min":68,"x_max":996,"o":"m 508 -17 q 278 44 379 -17 q 123 208 178 104 q 68 433 68 311 q 140 678 68 576 q 326 832 213 781 q 557 883 439 883 q 789 822 689 883 q 942 658 889 760 q 996 443 996 557 q 929 211 996 317 q 751 44 863 106 q 508 -17 639 -17 m 557 14 q 717 60 646 14 q 828 194 788 106 q 869 404 869 282 q 824 635 869 533 q 695 793 779 736 q 500 850 611 850 q 275 752 356 850 q 194 482 194 654 q 240 243 194 350 q 369 75 286 136 q 557 14 451 14 m 674 943 q 365 1050 518 1013 q 376 1065 353 1053 q 432 1088 400 1078 q 469 1093 464 1097 q 536 1047 503 1072 q 594 1010 550 1039 q 679 957 638 981 q 683 951 683 956 q 681 944 683 947 q 674 943 678 942 z "},"Ỏ":{"ha":1064,"x_min":68,"x_max":996,"o":"m 508 -17 q 278 44 379 -17 q 123 208 178 104 q 68 433 68 311 q 140 678 68 576 q 326 832 213 781 q 557 883 439 883 q 789 822 689 883 q 942 658 889 760 q 996 443 996 557 q 929 211 996 317 q 751 44 863 106 q 508 -17 639 -17 m 557 14 q 717 60 646 14 q 828 194 788 106 q 869 404 869 282 q 824 635 869 533 q 695 793 779 736 q 500 850 611 850 q 275 752 356 850 q 194 482 194 654 q 240 243 194 350 q 369 75 286 136 q 557 14 451 14 m 539 904 q 531 901 539 901 q 522 904 524 901 q 518 933 518 919 q 525 974 518 954 q 546 1017 532 993 q 565 1054 558 1039 q 571 1088 571 1069 q 556 1128 571 1114 q 518 1142 542 1142 q 475 1131 503 1142 l 474 1131 q 465 1135 469 1131 q 465 1142 461 1139 q 564 1174 510 1174 q 630 1153 606 1174 q 654 1101 654 1133 q 638 1052 654 1075 q 593 1000 622 1029 q 549 949 563 969 q 539 904 535 928 z "},"Ơ":{"ha":1064,"x_min":68,"x_max":1024,"o":"m 508 -17 q 278 44 379 -17 q 123 208 178 104 q 68 433 68 311 q 140 678 68 576 q 326 832 213 781 q 557 883 439 883 q 789 822 689 883 q 942 658 889 760 q 996 443 996 557 q 929 211 996 317 q 751 44 863 106 q 508 -17 639 -17 m 557 14 q 717 60 646 14 q 828 194 788 106 q 869 404 869 282 q 824 635 869 533 q 695 793 779 736 q 500 850 611 850 q 275 752 356 850 q 194 482 194 654 q 240 243 194 350 q 369 75 286 136 q 557 14 451 14 m 831 758 q 933 851 933 800 q 921 881 933 865 q 908 900 913 892 q 904 924 904 908 q 923 967 904 951 q 965 982 942 982 q 1008 963 993 982 q 1024 917 1024 943 q 971 813 1024 856 q 835 739 918 771 l 831 758 z "},"Ớ":{"ha":1064,"x_min":68,"x_max":1024,"o":"m 508 -17 q 278 44 379 -17 q 123 208 178 104 q 68 433 68 311 q 140 678 68 576 q 326 832 213 781 q 557 883 439 883 q 789 822 689 883 q 942 658 889 760 q 996 443 996 557 q 929 211 996 317 q 751 44 863 106 q 508 -17 639 -17 m 557 14 q 717 60 646 14 q 828 194 788 106 q 869 404 869 282 q 824 635 869 533 q 695 793 779 736 q 500 850 611 850 q 275 752 356 850 q 194 482 194 654 q 240 243 194 350 q 369 75 286 136 q 557 14 451 14 m 831 758 q 933 851 933 800 q 921 881 933 865 q 908 900 913 892 q 904 924 904 908 q 923 967 904 951 q 965 982 942 982 q 1008 963 993 982 q 1024 917 1024 943 q 971 813 1024 856 q 835 739 918 771 l 831 758 m 397 942 q 390 948 392 942 q 392 957 388 954 q 528 1043 456 992 q 601 1092 593 1086 q 640 1086 608 1096 q 695 1064 671 1076 q 707 1050 719 1051 q 399 942 543 1008 l 397 942 z "},"Ợ":{"ha":1064,"x_min":68,"x_max":1024,"o":"m 508 -17 q 278 44 379 -17 q 123 208 178 104 q 68 433 68 311 q 140 678 68 576 q 326 832 213 781 q 557 883 439 883 q 789 822 689 883 q 942 658 889 760 q 996 443 996 557 q 929 211 996 317 q 751 44 863 106 q 508 -17 639 -17 m 557 14 q 717 60 646 14 q 828 194 788 106 q 869 404 869 282 q 824 635 869 533 q 695 793 779 736 q 500 850 611 850 q 275 752 356 850 q 194 482 194 654 q 240 243 194 350 q 369 75 286 136 q 557 14 451 14 m 831 758 q 933 851 933 800 q 921 881 933 865 q 908 900 913 892 q 904 924 904 908 q 923 967 904 951 q 965 982 942 982 q 1008 963 993 982 q 1024 917 1024 943 q 971 813 1024 856 q 835 739 918 771 l 831 758 m 535 -271 q 485 -253 503 -271 q 467 -204 467 -236 q 485 -157 467 -174 q 535 -140 503 -140 q 583 -157 565 -140 q 600 -204 600 -174 q 583 -253 600 -236 q 535 -271 567 -271 z "},"Ờ":{"ha":1064,"x_min":68,"x_max":1024,"o":"m 508 -17 q 278 44 379 -17 q 123 208 178 104 q 68 433 68 311 q 140 678 68 576 q 326 832 213 781 q 557 883 439 883 q 789 822 689 883 q 942 658 889 760 q 996 443 996 557 q 929 211 996 317 q 751 44 863 106 q 508 -17 639 -17 m 557 14 q 717 60 646 14 q 828 194 788 106 q 869 404 869 282 q 824 635 869 533 q 695 793 779 736 q 500 850 611 850 q 275 752 356 850 q 194 482 194 654 q 240 243 194 350 q 369 75 286 136 q 557 14 451 14 m 831 758 q 933 851 933 800 q 921 881 933 865 q 908 900 913 892 q 904 924 904 908 q 923 967 904 951 q 965 982 942 982 q 1008 963 993 982 q 1024 917 1024 943 q 971 813 1024 856 q 835 739 918 771 l 831 758 m 671 943 q 363 1050 515 1013 q 374 1065 350 1053 q 430 1088 399 1078 q 468 1093 461 1097 l 528 1053 q 676 957 618 990 q 681 951 681 956 q 678 944 681 947 q 671 943 675 942 z "},"Ở":{"ha":1064,"x_min":68,"x_max":1024,"o":"m 508 -17 q 278 44 379 -17 q 123 208 178 104 q 68 433 68 311 q 140 678 68 576 q 326 832 213 781 q 557 883 439 883 q 789 822 689 883 q 942 658 889 760 q 996 443 996 557 q 929 211 996 317 q 751 44 863 106 q 508 -17 639 -17 m 557 14 q 717 60 646 14 q 828 194 788 106 q 869 404 869 282 q 824 635 869 533 q 695 793 779 736 q 500 850 611 850 q 275 752 356 850 q 194 482 194 654 q 240 243 194 350 q 369 75 286 136 q 557 14 451 14 m 831 758 q 933 851 933 800 q 921 881 933 865 q 908 900 913 892 q 904 924 904 908 q 923 967 904 951 q 965 982 942 982 q 1008 963 993 982 q 1024 917 1024 943 q 971 813 1024 856 q 835 739 918 771 l 831 758 m 529 918 q 522 915 531 915 q 513 918 514 914 q 508 949 508 935 q 515 987 508 969 q 535 1029 521 1004 q 553 1067 547 1051 q 560 1100 560 1082 q 545 1140 560 1126 q 507 1154 531 1154 q 464 1143 492 1154 l 463 1143 q 455 1147 458 1143 q 454 1154 451 1151 q 553 1186 500 1186 q 619 1166 594 1186 q 644 1114 644 1146 q 629 1066 644 1088 q 583 1014 614 1044 q 538 962 551 982 q 529 918 525 942 z "},"Ỡ":{"ha":1064,"x_min":68,"x_max":1024,"o":"m 508 -17 q 278 44 379 -17 q 123 208 178 104 q 68 433 68 311 q 140 678 68 576 q 326 832 213 781 q 557 883 439 883 q 789 822 689 883 q 942 658 889 760 q 996 443 996 557 q 929 211 996 317 q 751 44 863 106 q 508 -17 639 -17 m 557 14 q 717 60 646 14 q 828 194 788 106 q 869 404 869 282 q 824 635 869 533 q 695 793 779 736 q 500 850 611 850 q 275 752 356 850 q 194 482 194 654 q 240 243 194 350 q 369 75 286 136 q 557 14 451 14 m 831 758 q 933 851 933 800 q 921 881 933 865 q 908 900 913 892 q 904 924 904 908 q 923 967 904 951 q 965 982 942 982 q 1008 963 993 982 q 1024 917 1024 943 q 971 813 1024 856 q 835 739 918 771 l 831 758 m 639 1051 q 677 1060 663 1051 q 708 1089 692 1069 l 710 1089 q 717 1085 714 1089 q 718 1079 721 1082 q 658 1004 682 1024 q 607 985 635 985 q 524 1001 579 985 q 488 1011 518 1003 q 428 1019 458 1019 q 393 1013 406 1019 q 372 996 381 1006 q 358 982 363 986 l 356 982 q 349 985 351 982 q 349 992 346 989 q 467 1085 411 1085 q 536 1071 486 1085 q 639 1051 600 1051 z "},"Ő":{"ha":1064,"x_min":68,"x_max":996,"o":"m 508 -17 q 278 44 379 -17 q 123 208 178 104 q 68 433 68 311 q 140 678 68 576 q 326 832 213 781 q 557 883 439 883 q 789 822 689 883 q 942 658 889 760 q 996 443 996 557 q 929 211 996 317 q 751 44 863 106 q 508 -17 639 -17 m 557 14 q 717 60 646 14 q 828 194 788 106 q 869 404 869 282 q 824 635 869 533 q 695 793 779 736 q 500 850 611 850 q 275 752 356 850 q 194 482 194 654 q 240 243 194 350 q 369 75 286 136 q 557 14 451 14 m 385 935 q 378 941 381 935 q 379 950 376 947 q 504 1096 447 1022 q 538 1095 508 1103 q 592 1075 568 1088 q 604 1057 615 1063 q 388 936 500 1013 l 385 935 m 569 935 q 563 941 565 935 q 564 950 561 947 q 689 1096 614 1001 q 722 1095 693 1103 q 774 1075 751 1088 q 786 1057 797 1063 q 572 936 683 1011 l 569 935 z "},"Ȏ":{"ha":1064,"x_min":68,"x_max":996,"o":"m 508 -17 q 278 44 379 -17 q 123 208 178 104 q 68 433 68 311 q 140 678 68 576 q 326 832 213 781 q 557 883 439 883 q 789 822 689 883 q 942 658 889 760 q 996 443 996 557 q 929 211 996 317 q 751 44 863 106 q 508 -17 639 -17 m 557 14 q 717 60 646 14 q 828 194 788 106 q 869 404 869 282 q 824 635 869 533 q 695 793 779 736 q 500 850 611 850 q 275 752 356 850 q 194 482 194 654 q 240 243 194 350 q 369 75 286 136 q 557 14 451 14 m 408 946 q 399 942 407 942 q 393 949 392 943 q 435 1065 399 1025 q 536 1104 472 1104 q 635 1065 599 1104 q 678 949 671 1025 q 670 942 678 943 q 663 946 663 942 q 619 1005 656 979 q 536 1031 582 1031 q 452 1006 489 1031 q 408 946 415 981 z "},"Ō":{"ha":1064,"x_min":68,"x_max":996,"o":"m 508 -17 q 278 44 379 -17 q 123 208 178 104 q 68 433 68 311 q 140 678 68 576 q 326 832 213 781 q 557 883 439 883 q 789 822 689 883 q 942 658 889 760 q 996 443 996 557 q 929 211 996 317 q 751 44 863 106 q 508 -17 639 -17 m 557 14 q 717 60 646 14 q 828 194 788 106 q 869 404 869 282 q 824 635 869 533 q 695 793 779 736 q 500 850 611 850 q 275 752 356 850 q 194 482 194 654 q 240 243 194 350 q 369 75 286 136 q 557 14 451 14 m 361 999 q 351 1021 351 999 q 361 1042 351 1042 l 710 1042 q 718 1035 715 1042 q 721 1021 721 1029 q 718 1006 721 1013 q 710 999 715 999 l 361 999 z "},"Ǫ":{"ha":1064,"x_min":68,"x_max":996,"o":"m 508 -17 q 278 44 379 -17 q 123 208 178 104 q 68 433 68 311 q 140 678 68 576 q 326 832 213 781 q 557 883 439 883 q 789 822 689 883 q 942 658 889 760 q 996 443 996 557 q 929 211 996 317 q 751 44 863 106 q 508 -17 639 -17 m 557 14 q 717 60 646 14 q 828 194 788 106 q 869 404 869 282 q 824 635 869 533 q 695 793 779 736 q 500 850 611 850 q 275 752 356 850 q 194 482 194 654 q 240 243 194 350 q 369 75 286 136 q 557 14 451 14 m 618 1 q 542 -91 565 -47 q 519 -187 519 -135 q 553 -295 519 -256 q 650 -335 588 -335 q 731 -308 696 -335 l 733 -308 q 741 -312 738 -308 q 740 -319 744 -317 q 589 -382 668 -382 q 474 -342 517 -382 q 431 -240 431 -303 q 601 8 431 -121 l 618 1 z "},"Ø":{"ha":1078,"x_min":68,"x_max":996,"o":"m 114 -12 q 99 -2 108 -12 q 93 13 89 8 l 944 876 l 947 876 q 963 868 953 876 q 968 856 972 860 l 115 -11 l 114 -12 m 508 -17 q 278 44 379 -17 q 123 208 178 104 q 68 433 68 311 q 140 678 68 576 q 326 832 213 781 q 557 883 439 883 q 789 822 689 883 q 942 658 889 760 q 996 443 996 557 q 929 211 996 317 q 751 44 863 106 q 508 -17 639 -17 m 557 14 q 717 60 646 14 q 828 194 788 106 q 869 404 869 282 q 824 635 869 533 q 695 793 779 736 q 500 850 611 850 q 275 752 356 850 q 194 482 194 654 q 240 243 194 350 q 369 75 286 136 q 557 14 451 14 z "},"Ǿ":{"ha":1078,"x_min":68,"x_max":996,"o":"m 114 -12 q 99 -2 108 -12 q 93 13 89 8 l 944 876 l 947 876 q 963 868 953 876 q 968 856 972 860 l 115 -11 l 114 -12 m 508 -17 q 278 44 379 -17 q 123 208 178 104 q 68 433 68 311 q 140 678 68 576 q 326 832 213 781 q 557 883 439 883 q 789 822 689 883 q 942 658 889 760 q 996 443 996 557 q 929 211 996 317 q 751 44 863 106 q 508 -17 639 -17 m 557 14 q 717 60 646 14 q 828 194 788 106 q 869 404 869 282 q 824 635 869 533 q 695 793 779 736 q 500 850 611 850 q 275 752 356 850 q 194 482 194 654 q 240 243 194 350 q 369 75 286 136 q 557 14 451 14 m 408 942 q 401 948 403 942 q 404 957 400 954 q 547 1049 454 985 q 614 1093 592 1079 q 652 1088 621 1097 q 708 1065 683 1078 q 719 1050 732 1053 q 562 1003 633 1029 q 411 943 490 978 l 408 942 z "},"Õ":{"ha":1064,"x_min":68,"x_max":996,"o":"m 508 -17 q 278 44 379 -17 q 123 208 178 104 q 68 433 68 311 q 140 678 68 576 q 326 832 213 781 q 557 883 439 883 q 789 822 689 883 q 942 658 889 760 q 996 443 996 557 q 929 211 996 317 q 751 44 863 106 q 508 -17 639 -17 m 557 14 q 717 60 646 14 q 828 194 788 106 q 869 404 869 282 q 824 635 869 533 q 695 793 779 736 q 500 850 611 850 q 275 752 356 850 q 194 482 194 654 q 240 243 194 350 q 369 75 286 136 q 557 14 451 14 m 642 1051 q 680 1060 665 1051 q 711 1089 694 1069 l 713 1089 q 720 1085 717 1089 q 721 1079 724 1082 q 661 1004 685 1024 q 610 985 638 985 q 526 1001 582 985 q 491 1011 521 1003 q 431 1019 461 1019 q 396 1013 408 1019 q 374 996 383 1006 q 361 982 365 986 l 358 982 q 351 985 354 982 q 351 992 349 989 q 469 1085 414 1085 q 539 1071 489 1085 q 642 1051 603 1051 z "},"Œ":{"ha":1278,"x_min":68,"x_max":1211,"o":"m 560 -6 q 305 50 417 -6 q 131 203 193 106 q 68 418 68 300 q 133 656 68 553 q 309 815 199 758 q 550 871 419 871 q 646 869 611 871 l 756 868 l 1153 868 q 1165 856 1165 868 l 1168 681 q 1160 676 1168 676 q 1153 679 1153 675 q 1099 789 1146 742 q 988 836 1053 836 l 908 836 q 828 819 849 836 q 807 754 807 803 l 807 118 q 826 50 807 68 q 901 32 844 32 l 1000 32 q 1122 83 1065 32 q 1194 210 1178 135 q 1203 213 1196 214 q 1211 208 1211 213 q 1197 21 1197 108 q 1193 5 1197 10 q 1176 0 1189 0 l 754 0 q 660 -3 724 0 q 560 -6 593 -6 m 1099 319 q 1065 408 1099 379 q 956 436 1031 436 l 754 436 l 754 468 l 960 468 q 1064 492 1031 468 q 1097 568 1097 517 q 1106 571 1097 571 q 1114 568 1114 571 l 1113 494 q 1111 451 1111 481 l 1113 389 q 1115 319 1115 344 q 1107 317 1115 317 q 1099 319 1099 317 m 556 18 q 642 25 613 18 q 685 52 672 32 q 697 114 697 72 l 697 746 q 687 807 697 786 q 648 838 676 828 q 564 847 619 847 q 372 801 456 847 q 242 664 289 754 q 194 449 194 574 q 239 230 194 328 q 365 75 283 132 q 556 18 447 18 z "},"P":{"ha":758,"x_min":51,"x_max":703,"o":"m 278 118 q 289 53 278 74 q 331 25 300 33 q 432 17 363 17 q 436 8 436 17 q 432 0 436 0 q 343 1 375 0 l 222 3 l 126 1 q 56 0 100 0 q 51 8 51 0 q 56 17 51 17 q 128 24 106 17 q 158 51 150 31 q 167 113 167 71 l 167 756 q 158 817 167 797 q 127 844 150 836 q 56 851 104 851 q 51 860 51 851 q 56 868 51 868 l 125 867 q 221 864 186 864 q 300 868 254 864 q 352 870 317 868 q 414 872 388 872 q 624 815 544 872 q 703 640 703 757 q 658 488 703 550 q 542 394 613 425 q 397 364 472 364 q 331 371 357 364 q 326 378 326 371 q 328 386 326 382 q 333 389 331 390 q 382 383 356 383 q 522 443 465 383 q 579 615 579 503 q 524 787 579 725 q 376 849 468 849 q 314 842 333 849 q 286 816 294 836 q 278 753 278 796 l 278 118 z "},"Þ":{"ha":751,"x_min":56,"x_max":703,"o":"m 165 756 q 157 817 165 797 q 127 844 149 836 q 60 851 106 851 q 56 860 56 851 q 60 868 56 868 l 128 867 q 221 864 186 864 q 340 867 265 864 l 431 868 q 433 860 433 868 q 431 851 433 851 q 329 843 361 851 q 286 814 297 835 q 275 749 275 793 l 275 118 q 286 53 275 74 q 329 25 297 33 q 431 17 361 17 q 433 8 433 17 q 431 0 433 0 q 340 1 372 0 l 221 3 l 128 1 q 60 0 103 0 q 56 8 56 0 q 60 17 56 17 q 127 24 106 17 q 157 51 149 31 q 165 113 165 71 l 165 756 m 207 671 q 403 693 289 693 q 621 638 539 693 q 703 457 703 582 q 658 306 703 367 q 543 215 613 244 q 403 185 474 185 q 335 192 369 185 q 331 199 331 192 q 333 207 331 203 q 338 210 335 211 q 388 204 371 204 q 524 265 468 204 q 579 439 579 325 q 522 610 579 550 q 368 671 464 671 q 219 649 296 671 l 207 671 z "},"Q":{"ha":1064,"x_min":68,"x_max":1043,"o":"m 656 13 q 806 -165 713 -96 q 985 -235 900 -235 q 1035 -231 1017 -235 q 1041 -236 1039 -229 q 1040 -244 1043 -243 q 924 -261 974 -261 q 707 -191 819 -261 q 517 3 594 -121 l 656 13 m 508 -17 q 278 44 379 -17 q 123 208 178 104 q 68 433 68 311 q 140 678 68 576 q 326 832 213 781 q 557 883 439 883 q 789 822 689 883 q 942 658 889 760 q 996 443 996 557 q 929 211 996 317 q 751 44 863 106 q 508 -17 639 -17 m 557 14 q 717 60 646 14 q 828 194 788 106 q 869 404 869 282 q 824 635 869 533 q 695 793 779 736 q 500 850 611 850 q 275 752 356 850 q 194 482 194 654 q 240 243 194 350 q 369 75 286 136 q 557 14 451 14 z "},"R":{"ha":946,"x_min":56,"x_max":963,"o":"m 760 0 q 631 117 725 0 q 404 443 538 233 l 497 472 q 696 201 615 299 q 838 60 776 104 q 958 17 900 17 q 963 8 963 17 q 958 0 963 0 l 760 0 m 425 872 q 603 824 540 872 q 665 692 665 775 q 622 555 665 617 q 506 458 578 493 q 351 422 433 422 q 283 425 322 422 l 283 113 q 292 51 283 71 q 323 24 300 31 q 396 17 346 17 q 400 8 400 17 q 396 0 400 0 q 328 1 353 0 l 228 3 l 131 1 q 60 0 104 0 q 56 8 56 0 q 60 17 56 17 q 133 24 110 17 q 165 51 157 31 q 174 113 174 71 l 174 756 q 165 817 174 797 q 134 844 157 836 q 61 851 111 851 q 58 860 58 851 q 61 868 58 868 l 131 867 q 228 864 192 864 q 283 865 257 864 q 329 868 310 867 q 425 872 382 872 m 551 647 q 508 803 551 758 q 382 849 465 849 q 306 828 328 849 q 283 753 283 808 l 283 460 q 365 456 324 456 q 508 502 465 456 q 551 647 551 549 z "},"Ŕ":{"ha":946,"x_min":56,"x_max":963,"o":"m 760 0 q 631 117 725 0 q 404 443 538 233 l 497 472 q 696 201 615 299 q 838 60 776 104 q 958 17 900 17 q 963 8 963 17 q 958 0 963 0 l 760 0 m 425 872 q 603 824 540 872 q 665 692 665 775 q 622 555 665 617 q 506 458 578 493 q 351 422 433 422 q 283 425 322 422 l 283 113 q 292 51 283 71 q 323 24 300 31 q 396 17 346 17 q 400 8 400 17 q 396 0 400 0 q 328 1 353 0 l 228 3 l 131 1 q 60 0 104 0 q 56 8 56 0 q 60 17 56 17 q 133 24 110 17 q 165 51 157 31 q 174 113 174 71 l 174 756 q 165 817 174 797 q 134 844 157 836 q 61 851 111 851 q 58 860 58 851 q 61 868 58 868 l 131 867 q 228 864 192 864 q 283 865 257 864 q 329 868 310 867 q 425 872 382 872 m 551 647 q 508 803 551 758 q 382 849 465 849 q 306 828 328 849 q 283 753 283 808 l 283 460 q 365 456 324 456 q 508 502 465 456 q 551 647 551 549 m 249 942 q 241 948 243 942 q 243 957 239 954 q 379 1043 307 992 q 453 1092 444 1086 q 491 1086 460 1096 q 547 1064 522 1076 q 558 1050 571 1051 q 250 942 394 1008 l 249 942 z "},"Ř":{"ha":946,"x_min":56,"x_max":963,"o":"m 760 0 q 631 117 725 0 q 404 443 538 233 l 497 472 q 696 201 615 299 q 838 60 776 104 q 958 17 900 17 q 963 8 963 17 q 958 0 963 0 l 760 0 m 425 872 q 603 824 540 872 q 665 692 665 775 q 622 555 665 617 q 506 458 578 493 q 351 422 433 422 q 283 425 322 422 l 283 113 q 292 51 283 71 q 323 24 300 31 q 396 17 346 17 q 400 8 400 17 q 396 0 400 0 q 328 1 353 0 l 228 3 l 131 1 q 60 0 104 0 q 56 8 56 0 q 60 17 56 17 q 133 24 110 17 q 165 51 157 31 q 174 113 174 71 l 174 756 q 165 817 174 797 q 134 844 157 836 q 61 851 111 851 q 58 860 58 851 q 61 868 58 868 l 131 867 q 228 864 192 864 q 283 865 257 864 q 329 868 310 867 q 425 872 382 872 m 551 647 q 508 803 551 758 q 382 849 465 849 q 306 828 328 849 q 283 753 283 808 l 283 460 q 365 456 324 456 q 508 502 465 456 q 551 647 551 549 m 224 1099 q 228 1104 224 1101 q 233 1106 232 1107 l 385 1035 l 535 1107 l 536 1107 q 542 1103 540 1107 q 542 1097 544 1100 l 400 954 q 385 949 394 949 q 368 954 374 949 l 225 1096 l 224 1099 z "},"Ŗ":{"ha":946,"x_min":56,"x_max":963,"o":"m 760 0 q 631 117 725 0 q 404 443 538 233 l 497 472 q 696 201 615 299 q 838 60 776 104 q 958 17 900 17 q 963 8 963 17 q 958 0 963 0 l 760 0 m 425 872 q 603 824 540 872 q 665 692 665 775 q 622 555 665 617 q 506 458 578 493 q 351 422 433 422 q 283 425 322 422 l 283 113 q 292 51 283 71 q 323 24 300 31 q 396 17 346 17 q 400 8 400 17 q 396 0 400 0 q 328 1 353 0 l 228 3 l 131 1 q 60 0 104 0 q 56 8 56 0 q 60 17 56 17 q 133 24 110 17 q 165 51 157 31 q 174 113 174 71 l 174 756 q 165 817 174 797 q 134 844 157 836 q 61 851 111 851 q 58 860 58 851 q 61 868 58 868 l 131 867 q 228 864 192 864 q 283 865 257 864 q 329 868 310 867 q 425 872 382 872 m 551 647 q 508 803 551 758 q 382 849 465 849 q 306 828 328 849 q 283 753 283 808 l 283 460 q 365 456 324 456 q 508 502 465 456 q 551 647 551 549 m 457 -383 q 449 -378 451 -383 q 450 -371 446 -374 q 513 -256 513 -317 q 503 -214 513 -226 q 478 -197 494 -201 l 507 -183 q 496 -223 510 -210 q 456 -236 482 -236 q 413 -219 429 -236 q 397 -174 397 -201 q 417 -126 397 -142 q 467 -111 436 -111 q 530 -139 508 -111 q 551 -217 551 -167 q 528 -305 551 -265 q 460 -382 504 -344 l 457 -383 z "},"Ȑ":{"ha":946,"x_min":56,"x_max":963,"o":"m 760 0 q 631 117 725 0 q 404 443 538 233 l 497 472 q 696 201 615 299 q 838 60 776 104 q 958 17 900 17 q 963 8 963 17 q 958 0 963 0 l 760 0 m 425 872 q 603 824 540 872 q 665 692 665 775 q 622 555 665 617 q 506 458 578 493 q 351 422 433 422 q 283 425 322 422 l 283 113 q 292 51 283 71 q 323 24 300 31 q 396 17 346 17 q 400 8 400 17 q 396 0 400 0 q 328 1 353 0 l 228 3 l 131 1 q 60 0 104 0 q 56 8 56 0 q 60 17 56 17 q 133 24 110 17 q 165 51 157 31 q 174 113 174 71 l 174 756 q 165 817 174 797 q 134 844 157 836 q 61 851 111 851 q 58 860 58 851 q 61 868 58 868 l 131 867 q 228 864 192 864 q 283 865 257 864 q 329 868 310 867 q 425 872 382 872 m 551 647 q 508 803 551 758 q 382 849 465 849 q 306 828 328 849 q 283 753 283 808 l 283 460 q 365 456 324 456 q 508 502 465 456 q 551 647 551 549 m 529 938 q 315 1057 424 1011 q 328 1075 304 1063 q 381 1095 351 1088 q 415 1096 411 1103 q 540 950 472 1022 q 542 946 542 949 q 538 938 542 942 q 529 938 533 935 m 346 938 q 240 1004 289 976 q 133 1057 192 1032 q 145 1075 122 1063 q 198 1095 168 1088 q 232 1096 228 1103 q 357 950 307 1001 q 358 946 358 949 q 354 938 358 942 q 346 938 350 935 z "},"Ṛ":{"ha":946,"x_min":56,"x_max":963,"o":"m 760 0 q 631 117 725 0 q 404 443 538 233 l 497 472 q 696 201 615 299 q 838 60 776 104 q 958 17 900 17 q 963 8 963 17 q 958 0 963 0 l 760 0 m 425 872 q 603 824 540 872 q 665 692 665 775 q 622 555 665 617 q 506 458 578 493 q 351 422 433 422 q 283 425 322 422 l 283 113 q 292 51 283 71 q 323 24 300 31 q 396 17 346 17 q 400 8 400 17 q 396 0 400 0 q 328 1 353 0 l 228 3 l 131 1 q 60 0 104 0 q 56 8 56 0 q 60 17 56 17 q 133 24 110 17 q 165 51 157 31 q 174 113 174 71 l 174 756 q 165 817 174 797 q 134 844 157 836 q 61 851 111 851 q 58 860 58 851 q 61 868 58 868 l 131 867 q 228 864 192 864 q 283 865 257 864 q 329 868 310 867 q 425 872 382 872 m 551 647 q 508 803 551 758 q 382 849 465 849 q 306 828 328 849 q 283 753 283 808 l 283 460 q 365 456 324 456 q 508 502 465 456 q 551 647 551 549 m 476 -271 q 426 -253 444 -271 q 408 -204 408 -236 q 426 -157 408 -174 q 476 -140 444 -140 q 524 -157 507 -140 q 542 -204 542 -174 q 525 -253 542 -236 q 476 -271 508 -271 z "},"Ṝ":{"ha":946,"x_min":56,"x_max":963,"o":"m 760 0 q 631 117 725 0 q 404 443 538 233 l 497 472 q 696 201 615 299 q 838 60 776 104 q 958 17 900 17 q 963 8 963 17 q 958 0 963 0 l 760 0 m 425 872 q 603 824 540 872 q 665 692 665 775 q 622 555 665 617 q 506 458 578 493 q 351 422 433 422 q 283 425 322 422 l 283 113 q 292 51 283 71 q 323 24 300 31 q 396 17 346 17 q 400 8 400 17 q 396 0 400 0 q 328 1 353 0 l 228 3 l 131 1 q 60 0 104 0 q 56 8 56 0 q 60 17 56 17 q 133 24 110 17 q 165 51 157 31 q 174 113 174 71 l 174 756 q 165 817 174 797 q 134 844 157 836 q 61 851 111 851 q 58 860 58 851 q 61 868 58 868 l 131 867 q 228 864 192 864 q 283 865 257 864 q 329 868 310 867 q 425 872 382 872 m 551 647 q 508 803 551 758 q 382 849 465 849 q 306 828 328 849 q 283 753 283 808 l 283 460 q 365 456 324 456 q 508 502 465 456 q 551 647 551 549 m 476 -271 q 426 -253 444 -271 q 408 -204 408 -236 q 426 -157 408 -174 q 476 -140 444 -140 q 524 -157 507 -140 q 542 -204 542 -174 q 525 -253 542 -236 q 476 -271 508 -271 m 210 999 q 200 1021 200 999 q 210 1042 200 1042 l 558 1042 q 567 1035 564 1042 q 569 1021 569 1029 q 567 1006 569 1013 q 558 999 564 999 l 210 999 z "},"Ȓ":{"ha":946,"x_min":56,"x_max":963,"o":"m 760 0 q 631 117 725 0 q 404 443 538 233 l 497 472 q 696 201 615 299 q 838 60 776 104 q 958 17 900 17 q 963 8 963 17 q 958 0 963 0 l 760 0 m 425 872 q 603 824 540 872 q 665 692 665 775 q 622 555 665 617 q 506 458 578 493 q 351 422 433 422 q 283 425 322 422 l 283 113 q 292 51 283 71 q 323 24 300 31 q 396 17 346 17 q 400 8 400 17 q 396 0 400 0 q 328 1 353 0 l 228 3 l 131 1 q 60 0 104 0 q 56 8 56 0 q 60 17 56 17 q 133 24 110 17 q 165 51 157 31 q 174 113 174 71 l 174 756 q 165 817 174 797 q 134 844 157 836 q 61 851 111 851 q 58 860 58 851 q 61 868 58 868 l 131 867 q 228 864 192 864 q 283 865 257 864 q 329 868 310 867 q 425 872 382 872 m 551 647 q 508 803 551 758 q 382 849 465 849 q 306 828 328 849 q 283 753 283 808 l 283 460 q 365 456 324 456 q 508 502 465 456 q 551 647 551 549 m 257 946 q 248 942 256 942 q 242 949 240 943 q 284 1065 247 1025 q 385 1104 321 1104 q 483 1065 447 1104 q 526 949 519 1025 q 519 942 526 943 q 511 946 511 942 q 467 1005 504 979 q 385 1031 431 1031 q 301 1006 338 1031 q 257 946 264 981 z "},"Ṟ":{"ha":946,"x_min":56,"x_max":963,"o":"m 760 0 q 631 117 725 0 q 404 443 538 233 l 497 472 q 696 201 615 299 q 838 60 776 104 q 958 17 900 17 q 963 8 963 17 q 958 0 963 0 l 760 0 m 425 872 q 603 824 540 872 q 665 692 665 775 q 622 555 665 617 q 506 458 578 493 q 351 422 433 422 q 283 425 322 422 l 283 113 q 292 51 283 71 q 323 24 300 31 q 396 17 346 17 q 400 8 400 17 q 396 0 400 0 q 328 1 353 0 l 228 3 l 131 1 q 60 0 104 0 q 56 8 56 0 q 60 17 56 17 q 133 24 110 17 q 165 51 157 31 q 174 113 174 71 l 174 756 q 165 817 174 797 q 134 844 157 836 q 61 851 111 851 q 58 860 58 851 q 61 868 58 868 l 131 867 q 228 864 192 864 q 283 865 257 864 q 329 868 310 867 q 425 872 382 872 m 551 647 q 508 803 551 758 q 382 849 465 849 q 306 828 328 849 q 283 753 283 808 l 283 460 q 365 456 324 456 q 508 502 465 456 q 551 647 551 549 m 300 -161 q 290 -140 290 -161 q 300 -118 290 -118 l 649 -118 q 657 -125 654 -118 q 660 -140 660 -132 q 657 -155 660 -149 q 649 -161 654 -161 l 300 -161 z "},"S":{"ha":693,"x_min":96,"x_max":618,"o":"m 214 713 q 240 620 214 660 q 304 552 267 581 q 408 483 342 524 q 519 409 478 440 q 589 332 560 378 q 618 224 618 286 q 583 101 618 156 q 481 15 547 46 q 328 -17 415 -17 q 218 -3 272 -17 q 124 35 164 10 q 114 44 117 39 q 111 61 111 50 l 97 260 q 103 267 96 265 q 113 263 111 268 q 206 83 146 157 q 361 10 265 10 q 471 45 426 10 q 515 161 515 81 q 488 268 515 222 q 419 345 460 314 q 313 417 379 376 q 209 488 247 458 q 144 562 171 518 q 118 664 118 606 q 156 785 118 735 q 256 859 194 835 q 386 883 318 883 q 554 851 478 883 q 575 826 575 842 l 582 653 q 574 647 582 647 q 565 651 567 646 q 501 793 550 726 q 360 860 451 860 q 252 818 290 860 q 214 713 214 776 z "},"Ś":{"ha":693,"x_min":96,"x_max":618,"o":"m 214 713 q 240 620 214 660 q 304 552 267 581 q 408 483 342 524 q 519 409 478 440 q 589 332 560 378 q 618 224 618 286 q 583 101 618 156 q 481 15 547 46 q 328 -17 415 -17 q 218 -3 272 -17 q 124 35 164 10 q 114 44 117 39 q 111 61 111 50 l 97 260 q 103 267 96 265 q 113 263 111 268 q 206 83 146 157 q 361 10 265 10 q 471 45 426 10 q 515 161 515 81 q 488 268 515 222 q 419 345 460 314 q 313 417 379 376 q 209 488 247 458 q 144 562 171 518 q 118 664 118 606 q 156 785 118 735 q 256 859 194 835 q 386 883 318 883 q 554 851 478 883 q 575 826 575 842 l 582 653 q 574 647 582 647 q 565 651 567 646 q 501 793 550 726 q 360 860 451 860 q 252 818 290 860 q 214 713 214 776 m 224 942 q 217 948 218 942 q 219 957 215 954 q 363 1049 269 985 q 429 1093 407 1079 q 467 1088 436 1097 q 523 1065 499 1078 q 535 1050 547 1053 q 377 1003 449 1029 q 226 943 306 978 l 224 942 z "},"Ꞌ":{"ha":350,"x_min":103,"x_max":249,"o":"m 104 1004 q 125 1015 103 1011 q 175 1019 147 1019 q 226 1015 203 1019 q 246 1004 249 1011 q 206 735 219 883 q 183 408 192 586 q 180 405 183 407 q 172 403 176 403 q 165 405 168 403 q 161 408 161 407 q 104 1004 146 803 z "},"Š":{"ha":693,"x_min":96,"x_max":618,"o":"m 214 713 q 240 620 214 660 q 304 552 267 581 q 408 483 342 524 q 519 409 478 440 q 589 332 560 378 q 618 224 618 286 q 583 101 618 156 q 481 15 547 46 q 328 -17 415 -17 q 218 -3 272 -17 q 124 35 164 10 q 114 44 117 39 q 111 61 111 50 l 97 260 q 103 267 96 265 q 113 263 111 268 q 206 83 146 157 q 361 10 265 10 q 471 45 426 10 q 515 161 515 81 q 488 268 515 222 q 419 345 460 314 q 313 417 379 376 q 209 488 247 458 q 144 562 171 518 q 118 664 118 606 q 156 785 118 735 q 256 859 194 835 q 386 883 318 883 q 554 851 478 883 q 575 826 575 842 l 582 653 q 574 647 582 647 q 565 651 567 646 q 501 793 550 726 q 360 860 451 860 q 252 818 290 860 q 214 713 214 776 m 200 1099 q 204 1104 200 1101 q 210 1106 208 1107 l 361 1035 l 511 1107 l 513 1107 q 519 1103 517 1107 q 518 1097 521 1100 l 376 954 q 361 949 371 949 q 344 954 350 949 l 201 1096 l 200 1099 z "},"Ş":{"ha":693,"x_min":96,"x_max":618,"o":"m 214 713 q 240 620 214 660 q 304 552 267 581 q 408 483 342 524 q 519 409 478 440 q 589 332 560 378 q 618 224 618 286 q 583 101 618 156 q 481 15 547 46 q 328 -17 415 -17 q 218 -3 272 -17 q 124 35 164 10 q 114 44 117 39 q 111 61 111 50 l 97 260 q 103 267 96 265 q 113 263 111 268 q 206 83 146 157 q 361 10 265 10 q 471 45 426 10 q 515 161 515 81 q 488 268 515 222 q 419 345 460 314 q 313 417 379 376 q 209 488 247 458 q 144 562 171 518 q 118 664 118 606 q 156 785 118 735 q 256 859 194 835 q 386 883 318 883 q 554 851 478 883 q 575 826 575 842 l 582 653 q 574 647 582 647 q 565 651 567 646 q 501 793 550 726 q 360 860 451 860 q 252 818 290 860 q 214 713 214 776 m 374 -3 q 360 -71 360 -46 q 372 -105 360 -92 q 418 -137 385 -118 q 473 -182 453 -157 q 493 -244 493 -207 q 455 -340 493 -299 q 342 -382 417 -382 q 273 -367 299 -382 q 247 -325 247 -353 q 261 -293 247 -307 q 293 -279 275 -279 q 322 -288 313 -279 q 339 -315 331 -297 q 358 -343 347 -333 q 389 -353 368 -353 q 431 -306 431 -353 q 405 -241 431 -269 q 313 -176 379 -212 q 296 -158 296 -167 q 303 -135 296 -153 q 338 -43 331 -61 l 353 -1 l 374 -3 z "},"Ŝ":{"ha":693,"x_min":96,"x_max":618,"o":"m 214 713 q 240 620 214 660 q 304 552 267 581 q 408 483 342 524 q 519 409 478 440 q 589 332 560 378 q 618 224 618 286 q 583 101 618 156 q 481 15 547 46 q 328 -17 415 -17 q 218 -3 272 -17 q 124 35 164 10 q 114 44 117 39 q 111 61 111 50 l 97 260 q 103 267 96 265 q 113 263 111 268 q 206 83 146 157 q 361 10 265 10 q 471 45 426 10 q 515 161 515 81 q 488 268 515 222 q 419 345 460 314 q 313 417 379 376 q 209 488 247 458 q 144 562 171 518 q 118 664 118 606 q 156 785 118 735 q 256 859 194 835 q 386 883 318 883 q 554 851 478 883 q 575 826 575 842 l 582 653 q 574 647 582 647 q 565 651 567 646 q 501 793 550 726 q 360 860 451 860 q 252 818 290 860 q 214 713 214 776 m 346 1110 q 363 1117 353 1117 q 378 1110 371 1117 l 519 965 q 521 963 521 965 q 517 957 521 960 q 513 956 514 954 l 363 1028 l 211 956 q 204 959 208 954 q 203 965 200 964 l 346 1110 z "},"Ș":{"ha":693,"x_min":96,"x_max":618,"o":"m 214 713 q 240 620 214 660 q 304 552 267 581 q 408 483 342 524 q 519 409 478 440 q 589 332 560 378 q 618 224 618 286 q 583 101 618 156 q 481 15 547 46 q 328 -17 415 -17 q 218 -3 272 -17 q 124 35 164 10 q 114 44 117 39 q 111 61 111 50 l 97 260 q 103 267 96 265 q 113 263 111 268 q 206 83 146 157 q 361 10 265 10 q 471 45 426 10 q 515 161 515 81 q 488 268 515 222 q 419 345 460 314 q 313 417 379 376 q 209 488 247 458 q 144 562 171 518 q 118 664 118 606 q 156 785 118 735 q 256 859 194 835 q 386 883 318 883 q 554 851 478 883 q 575 826 575 842 l 582 653 q 574 647 582 647 q 565 651 567 646 q 501 793 550 726 q 360 860 451 860 q 252 818 290 860 q 214 713 214 776 m 354 -383 q 346 -378 349 -383 q 347 -371 343 -374 q 410 -256 410 -317 q 401 -214 410 -226 q 375 -197 392 -201 l 404 -183 q 393 -223 407 -210 q 353 -236 379 -236 q 310 -219 326 -236 q 294 -174 294 -201 q 314 -126 294 -142 q 364 -111 333 -111 q 427 -139 406 -111 q 449 -217 449 -167 q 425 -305 449 -265 q 357 -382 401 -344 l 354 -383 z "},"Ṡ":{"ha":693,"x_min":96,"x_max":618,"o":"m 214 713 q 240 620 214 660 q 304 552 267 581 q 408 483 342 524 q 519 409 478 440 q 589 332 560 378 q 618 224 618 286 q 583 101 618 156 q 481 15 547 46 q 328 -17 415 -17 q 218 -3 272 -17 q 124 35 164 10 q 114 44 117 39 q 111 61 111 50 l 97 260 q 103 267 96 265 q 113 263 111 268 q 206 83 146 157 q 361 10 265 10 q 471 45 426 10 q 515 161 515 81 q 488 268 515 222 q 419 345 460 314 q 313 417 379 376 q 209 488 247 458 q 144 562 171 518 q 118 664 118 606 q 156 785 118 735 q 256 859 194 835 q 386 883 318 883 q 554 851 478 883 q 575 826 575 842 l 582 653 q 574 647 582 647 q 565 651 567 646 q 501 793 550 726 q 360 860 451 860 q 252 818 290 860 q 214 713 214 776 m 361 990 q 311 1008 329 990 q 293 1058 293 1026 q 312 1105 293 1088 q 361 1122 331 1122 q 409 1105 392 1122 q 426 1058 426 1088 q 409 1008 426 1026 q 361 990 392 990 z "},"Ṣ":{"ha":693,"x_min":96,"x_max":618,"o":"m 214 713 q 240 620 214 660 q 304 552 267 581 q 408 483 342 524 q 519 409 478 440 q 589 332 560 378 q 618 224 618 286 q 583 101 618 156 q 481 15 547 46 q 328 -17 415 -17 q 218 -3 272 -17 q 124 35 164 10 q 114 44 117 39 q 111 61 111 50 l 97 260 q 103 267 96 265 q 113 263 111 268 q 206 83 146 157 q 361 10 265 10 q 471 45 426 10 q 515 161 515 81 q 488 268 515 222 q 419 345 460 314 q 313 417 379 376 q 209 488 247 458 q 144 562 171 518 q 118 664 118 606 q 156 785 118 735 q 256 859 194 835 q 386 883 318 883 q 554 851 478 883 q 575 826 575 842 l 582 653 q 574 647 582 647 q 565 651 567 646 q 501 793 550 726 q 360 860 451 860 q 252 818 290 860 q 214 713 214 776 m 374 -271 q 324 -253 342 -271 q 306 -204 306 -236 q 324 -157 306 -174 q 374 -140 342 -140 q 422 -157 404 -140 q 439 -204 439 -174 q 422 -253 439 -236 q 374 -271 406 -271 z "},"ẞ":{"ha":939,"x_min":29,"x_max":879,"o":"m 599 -17 q 467 17 524 -17 q 455 26 457 21 q 453 42 453 32 l 447 199 q 454 206 447 204 q 463 201 461 207 q 538 70 479 119 q 664 21 597 21 q 767 67 728 21 q 806 192 806 114 q 611 436 806 343 q 603 445 604 440 q 604 457 601 450 l 754 757 q 610 811 688 790 q 469 832 533 832 q 308 766 360 832 q 256 560 256 700 l 256 113 q 263 50 256 69 q 292 24 269 31 q 363 17 314 17 q 367 8 367 17 q 363 0 367 0 l 199 1 l 33 0 q 29 8 29 0 q 33 17 29 17 q 104 24 81 17 q 137 51 128 32 q 146 113 146 71 l 146 508 q 194 683 146 597 q 343 826 242 769 q 594 882 444 882 q 731 875 660 882 q 807 868 801 868 q 824 872 818 868 q 834 881 831 876 q 839 888 838 886 l 840 888 q 849 885 844 888 q 851 881 853 882 l 681 533 q 879 269 879 435 q 850 137 879 203 q 758 27 821 71 q 599 -17 694 -17 z "},"T":{"ha":885,"x_min":53,"x_max":835,"o":"m 276 840 q 142 792 190 840 q 69 639 93 744 q 60 636 68 636 q 53 640 53 636 q 65 767 58 679 q 72 899 72 854 q 81 906 72 906 q 89 899 89 906 q 165 868 89 868 q 444 864 285 864 q 618 867 526 864 l 713 868 q 788 875 764 868 q 818 903 811 882 q 827 908 819 908 q 835 903 835 908 q 826 778 831 864 q 821 640 821 692 q 813 636 821 636 q 806 640 806 636 q 750 794 796 747 q 614 840 704 840 q 540 834 563 840 q 510 810 518 828 q 501 753 501 793 l 501 113 q 510 50 501 69 q 546 24 519 31 q 631 17 572 17 q 633 8 633 17 q 631 0 633 0 q 554 1 582 0 l 444 3 l 338 1 q 260 0 310 0 q 256 8 256 0 q 260 17 256 17 q 344 24 317 17 q 381 51 371 31 q 390 113 390 71 l 390 756 q 382 812 390 794 q 351 835 374 829 q 276 840 328 840 z "},"Ŧ":{"ha":878,"x_min":53,"x_max":835,"o":"m 256 432 q 250 449 250 432 q 256 464 250 464 l 635 464 q 640 459 638 464 q 642 449 642 454 q 640 438 642 443 q 635 432 638 432 l 256 432 m 276 840 q 142 792 190 840 q 69 639 93 744 q 60 636 68 636 q 53 640 53 636 q 65 767 58 679 q 72 899 72 854 q 81 906 72 906 q 89 899 89 906 q 165 868 89 868 q 444 864 285 864 q 618 867 526 864 l 713 868 q 788 875 764 868 q 818 903 811 882 q 827 908 819 908 q 835 903 835 908 q 826 778 831 864 q 821 640 821 692 q 813 636 821 636 q 806 640 806 636 q 750 794 796 747 q 614 840 704 840 q 540 834 563 840 q 510 810 518 828 q 501 753 501 793 l 501 113 q 510 50 501 69 q 546 24 519 31 q 631 17 572 17 q 633 8 633 17 q 631 0 633 0 q 554 1 582 0 l 444 3 l 338 1 q 260 0 310 0 q 256 8 256 0 q 260 17 256 17 q 344 24 317 17 q 381 51 371 31 q 390 113 390 71 l 390 756 q 382 812 390 794 q 351 835 374 829 q 276 840 328 840 z "},"Ť":{"ha":885,"x_min":53,"x_max":835,"o":"m 276 840 q 142 792 190 840 q 69 639 93 744 q 60 636 68 636 q 53 640 53 636 q 65 767 58 679 q 72 899 72 854 q 81 906 72 906 q 89 899 89 906 q 165 868 89 868 q 444 864 285 864 q 618 867 526 864 l 713 868 q 788 875 764 868 q 818 903 811 882 q 827 908 819 908 q 835 903 835 908 q 826 778 831 864 q 821 640 821 692 q 813 636 821 636 q 806 640 806 636 q 750 794 796 747 q 614 840 704 840 q 540 834 563 840 q 510 810 518 828 q 501 753 501 793 l 501 113 q 510 50 501 69 q 546 24 519 31 q 631 17 572 17 q 633 8 633 17 q 631 0 633 0 q 554 1 582 0 l 444 3 l 338 1 q 260 0 310 0 q 256 8 256 0 q 260 17 256 17 q 344 24 317 17 q 381 51 371 31 q 390 113 390 71 l 390 756 q 382 812 390 794 q 351 835 374 829 q 276 840 328 840 m 282 1099 q 286 1104 282 1101 q 292 1106 290 1107 l 443 1035 l 593 1107 l 594 1107 q 601 1103 599 1107 q 600 1097 603 1100 l 458 954 q 443 949 453 949 q 426 954 432 949 l 283 1096 l 282 1099 z "},"Ţ":{"ha":885,"x_min":53,"x_max":835,"o":"m 276 840 q 142 792 190 840 q 69 639 93 744 q 60 636 68 636 q 53 640 53 636 q 65 767 58 679 q 72 899 72 854 q 81 906 72 906 q 89 899 89 906 q 165 868 89 868 q 444 864 285 864 q 618 867 526 864 l 713 868 q 788 875 764 868 q 818 903 811 882 q 827 908 819 908 q 835 903 835 908 q 826 778 831 864 q 821 640 821 692 q 813 636 821 636 q 806 640 806 636 q 750 794 796 747 q 614 840 704 840 q 540 834 563 840 q 510 810 518 828 q 501 753 501 793 l 501 113 q 510 50 501 69 q 546 24 519 31 q 631 17 572 17 q 633 8 633 17 q 631 0 633 0 q 554 1 582 0 l 444 3 l 338 1 q 260 0 310 0 q 256 8 256 0 q 260 17 256 17 q 344 24 317 17 q 381 51 371 31 q 390 113 390 71 l 390 756 q 382 812 390 794 q 351 835 374 829 q 276 840 328 840 m 460 25 q 439 -69 439 -42 q 451 -106 439 -92 q 493 -137 463 -119 q 549 -182 528 -157 q 569 -244 569 -207 q 531 -340 569 -299 q 417 -382 493 -382 q 348 -367 374 -382 q 322 -325 322 -353 q 336 -293 322 -307 q 369 -279 350 -279 q 398 -288 389 -279 q 415 -315 407 -297 q 433 -343 424 -333 q 464 -353 443 -353 q 507 -306 507 -353 q 481 -241 507 -269 q 389 -176 456 -212 q 371 -158 371 -167 q 378 -135 371 -153 q 426 -8 400 -83 l 439 26 l 460 25 z "},"Ț":{"ha":885,"x_min":53,"x_max":835,"o":"m 276 840 q 142 792 190 840 q 69 639 93 744 q 60 636 68 636 q 53 640 53 636 q 65 767 58 679 q 72 899 72 854 q 81 906 72 906 q 89 899 89 906 q 165 868 89 868 q 444 864 285 864 q 618 867 526 864 l 713 868 q 788 875 764 868 q 818 903 811 882 q 827 908 819 908 q 835 903 835 908 q 826 778 831 864 q 821 640 821 692 q 813 636 821 636 q 806 640 806 636 q 750 794 796 747 q 614 840 704 840 q 540 834 563 840 q 510 810 518 828 q 501 753 501 793 l 501 113 q 510 50 501 69 q 546 24 519 31 q 631 17 572 17 q 633 8 633 17 q 631 0 633 0 q 554 1 582 0 l 444 3 l 338 1 q 260 0 310 0 q 256 8 256 0 q 260 17 256 17 q 344 24 317 17 q 381 51 371 31 q 390 113 390 71 l 390 756 q 382 812 390 794 q 351 835 374 829 q 276 840 328 840 m 432 -383 q 424 -378 426 -383 q 425 -371 421 -374 q 488 -256 488 -317 q 478 -214 488 -226 q 453 -197 469 -201 l 482 -183 q 471 -223 485 -210 q 431 -236 457 -236 q 388 -219 404 -236 q 372 -174 372 -201 q 392 -126 372 -142 q 442 -111 411 -111 q 505 -139 483 -111 q 526 -217 526 -167 q 503 -305 526 -265 q 435 -382 479 -344 l 432 -383 z "},"Ṭ":{"ha":885,"x_min":53,"x_max":835,"o":"m 276 840 q 142 792 190 840 q 69 639 93 744 q 60 636 68 636 q 53 640 53 636 q 65 767 58 679 q 72 899 72 854 q 81 906 72 906 q 89 899 89 906 q 165 868 89 868 q 444 864 285 864 q 618 867 526 864 l 713 868 q 788 875 764 868 q 818 903 811 882 q 827 908 819 908 q 835 903 835 908 q 826 778 831 864 q 821 640 821 692 q 813 636 821 636 q 806 640 806 636 q 750 794 796 747 q 614 840 704 840 q 540 834 563 840 q 510 810 518 828 q 501 753 501 793 l 501 113 q 510 50 501 69 q 546 24 519 31 q 631 17 572 17 q 633 8 633 17 q 631 0 633 0 q 554 1 582 0 l 444 3 l 338 1 q 260 0 310 0 q 256 8 256 0 q 260 17 256 17 q 344 24 317 17 q 381 51 371 31 q 390 113 390 71 l 390 756 q 382 812 390 794 q 351 835 374 829 q 276 840 328 840 m 451 -271 q 401 -253 419 -271 q 383 -204 383 -236 q 401 -157 383 -174 q 451 -140 419 -140 q 499 -157 482 -140 q 517 -204 517 -174 q 500 -253 517 -236 q 451 -271 483 -271 z "},"Ṯ":{"ha":885,"x_min":53,"x_max":835,"o":"m 276 840 q 142 792 190 840 q 69 639 93 744 q 60 636 68 636 q 53 640 53 636 q 65 767 58 679 q 72 899 72 854 q 81 906 72 906 q 89 899 89 906 q 165 868 89 868 q 444 864 285 864 q 618 867 526 864 l 713 868 q 788 875 764 868 q 818 903 811 882 q 827 908 819 908 q 835 903 835 908 q 826 778 831 864 q 821 640 821 692 q 813 636 821 636 q 806 640 806 636 q 750 794 796 747 q 614 840 704 840 q 540 834 563 840 q 510 810 518 828 q 501 753 501 793 l 501 113 q 510 50 501 69 q 546 24 519 31 q 631 17 572 17 q 633 8 633 17 q 631 0 633 0 q 554 1 582 0 l 444 3 l 338 1 q 260 0 310 0 q 256 8 256 0 q 260 17 256 17 q 344 24 317 17 q 381 51 371 31 q 390 113 390 71 l 390 756 q 382 812 390 794 q 351 835 374 829 q 276 840 328 840 m 275 -161 q 265 -140 265 -161 q 275 -118 265 -118 l 624 -118 q 632 -125 629 -118 q 635 -140 635 -132 q 632 -155 635 -149 q 624 -161 629 -161 l 275 -161 z "},"U":{"ha":972,"x_min":38,"x_max":947,"o":"m 794 708 q 763 815 794 778 q 671 851 731 851 q 667 860 667 851 q 671 868 667 868 l 733 867 q 813 864 783 864 q 885 867 838 864 l 944 868 q 947 860 947 868 q 944 851 947 851 q 860 815 889 851 q 832 708 832 779 l 832 315 q 741 71 832 160 q 499 -18 650 -18 q 318 22 396 -18 q 197 135 240 61 q 154 310 154 210 l 154 756 q 146 817 154 797 q 115 844 138 836 q 42 851 92 851 q 38 860 38 851 q 42 868 38 868 l 111 867 q 208 864 172 864 q 307 867 249 864 l 375 868 q 379 860 379 868 q 375 851 379 851 q 303 843 326 851 q 272 815 281 835 q 264 753 264 794 l 264 358 q 335 110 264 194 q 536 26 407 26 q 726 102 657 26 q 794 314 794 178 l 794 708 z "},"Ú":{"ha":972,"x_min":38,"x_max":947,"o":"m 794 708 q 763 815 794 778 q 671 851 731 851 q 667 860 667 851 q 671 868 667 868 l 733 867 q 813 864 783 864 q 885 867 838 864 l 944 868 q 947 860 947 868 q 944 851 947 851 q 860 815 889 851 q 832 708 832 779 l 832 315 q 741 71 832 160 q 499 -18 650 -18 q 318 22 396 -18 q 197 135 240 61 q 154 310 154 210 l 154 756 q 146 817 154 797 q 115 844 138 836 q 42 851 92 851 q 38 860 38 851 q 42 868 38 868 l 111 867 q 208 864 172 864 q 307 867 249 864 l 375 868 q 379 860 379 868 q 375 851 379 851 q 303 843 326 851 q 272 815 281 835 q 264 753 264 794 l 264 358 q 335 110 264 194 q 536 26 407 26 q 726 102 657 26 q 794 314 794 178 l 794 708 m 382 942 q 375 948 376 942 q 378 957 374 954 q 463 1010 419 981 q 521 1047 507 1039 q 588 1093 554 1072 q 626 1088 594 1097 q 681 1065 657 1078 q 693 1050 706 1053 q 535 1003 607 1029 q 385 943 464 978 l 382 942 z "},"Ʉ":{"ha":972,"x_min":38,"x_max":947,"o":"m 63 419 q 57 435 57 419 q 63 450 57 450 l 918 450 q 924 435 924 450 q 918 419 924 419 l 63 419 m 794 708 q 763 815 794 778 q 671 851 731 851 q 667 860 667 851 q 671 868 667 868 l 733 867 q 813 864 783 864 q 885 867 838 864 l 944 868 q 947 860 947 868 q 944 851 947 851 q 860 815 889 851 q 832 708 832 779 l 832 315 q 741 71 832 160 q 499 -18 650 -18 q 318 22 396 -18 q 197 135 240 61 q 154 310 154 210 l 154 756 q 146 817 154 797 q 115 844 138 836 q 42 851 92 851 q 38 860 38 851 q 42 868 38 868 l 111 867 q 208 864 172 864 q 307 867 249 864 l 375 868 q 379 860 379 868 q 375 851 379 851 q 303 843 326 851 q 272 815 281 835 q 264 753 264 794 l 264 358 q 335 110 264 194 q 536 26 407 26 q 726 102 657 26 q 794 314 794 178 l 794 708 z "},"Ŭ":{"ha":972,"x_min":38,"x_max":947,"o":"m 794 708 q 763 815 794 778 q 671 851 731 851 q 667 860 667 851 q 671 868 667 868 l 733 867 q 813 864 783 864 q 885 867 838 864 l 944 868 q 947 860 947 868 q 944 851 947 851 q 860 815 889 851 q 832 708 832 779 l 832 315 q 741 71 832 160 q 499 -18 650 -18 q 318 22 396 -18 q 197 135 240 61 q 154 310 154 210 l 154 756 q 146 817 154 797 q 115 844 138 836 q 42 851 92 851 q 38 860 38 851 q 42 868 38 868 l 111 867 q 208 864 172 864 q 307 867 249 864 l 375 868 q 379 860 379 868 q 375 851 379 851 q 303 843 326 851 q 272 815 281 835 q 264 753 264 794 l 264 358 q 335 110 264 194 q 536 26 407 26 q 726 102 657 26 q 794 314 794 178 l 794 708 m 519 958 q 420 999 457 958 q 376 1115 383 1040 q 382 1121 375 1121 q 392 1118 389 1121 q 435 1059 399 1085 q 519 1033 472 1033 q 602 1059 565 1033 q 646 1118 639 1085 q 653 1122 646 1122 q 661 1115 661 1121 q 618 999 654 1040 q 519 958 582 958 z "},"Ǔ":{"ha":972,"x_min":38,"x_max":947,"o":"m 794 708 q 763 815 794 778 q 671 851 731 851 q 667 860 667 851 q 671 868 667 868 l 733 867 q 813 864 783 864 q 885 867 838 864 l 944 868 q 947 860 947 868 q 944 851 947 851 q 860 815 889 851 q 832 708 832 779 l 832 315 q 741 71 832 160 q 499 -18 650 -18 q 318 22 396 -18 q 197 135 240 61 q 154 310 154 210 l 154 756 q 146 817 154 797 q 115 844 138 836 q 42 851 92 851 q 38 860 38 851 q 42 868 38 868 l 111 867 q 208 864 172 864 q 307 867 249 864 l 375 868 q 379 860 379 868 q 375 851 379 851 q 303 843 326 851 q 272 815 281 835 q 264 753 264 794 l 264 358 q 335 110 264 194 q 536 26 407 26 q 726 102 657 26 q 794 314 794 178 l 794 708 m 358 1099 q 363 1104 358 1101 q 368 1106 367 1107 l 519 1035 l 669 1107 l 671 1107 q 677 1103 675 1107 q 676 1097 679 1100 l 535 954 q 519 949 529 949 q 503 954 508 949 l 360 1096 l 358 1099 z "},"Û":{"ha":972,"x_min":38,"x_max":947,"o":"m 794 708 q 763 815 794 778 q 671 851 731 851 q 667 860 667 851 q 671 868 667 868 l 733 867 q 813 864 783 864 q 885 867 838 864 l 944 868 q 947 860 947 868 q 944 851 947 851 q 860 815 889 851 q 832 708 832 779 l 832 315 q 741 71 832 160 q 499 -18 650 -18 q 318 22 396 -18 q 197 135 240 61 q 154 310 154 210 l 154 756 q 146 817 154 797 q 115 844 138 836 q 42 851 92 851 q 38 860 38 851 q 42 868 38 868 l 111 867 q 208 864 172 864 q 307 867 249 864 l 375 868 q 379 860 379 868 q 375 851 379 851 q 303 843 326 851 q 272 815 281 835 q 264 753 264 794 l 264 358 q 335 110 264 194 q 536 26 407 26 q 726 102 657 26 q 794 314 794 178 l 794 708 m 504 1110 q 521 1117 511 1117 q 536 1110 529 1117 l 678 965 q 679 963 679 965 q 676 957 679 960 q 671 956 672 954 l 521 1028 l 369 956 q 363 959 367 954 q 361 965 358 964 l 504 1110 z "},"Ȕ":{"ha":972,"x_min":38,"x_max":947,"o":"m 794 708 q 763 815 794 778 q 671 851 731 851 q 667 860 667 851 q 671 868 667 868 l 733 867 q 813 864 783 864 q 885 867 838 864 l 944 868 q 947 860 947 868 q 944 851 947 851 q 860 815 889 851 q 832 708 832 779 l 832 315 q 741 71 832 160 q 499 -18 650 -18 q 318 22 396 -18 q 197 135 240 61 q 154 310 154 210 l 154 756 q 146 817 154 797 q 115 844 138 836 q 42 851 92 851 q 38 860 38 851 q 42 868 38 868 l 111 867 q 208 864 172 864 q 307 867 249 864 l 375 868 q 379 860 379 868 q 375 851 379 851 q 303 843 326 851 q 272 815 281 835 q 264 753 264 794 l 264 358 q 335 110 264 194 q 536 26 407 26 q 726 102 657 26 q 794 314 794 178 l 794 708 m 664 938 q 450 1057 558 1011 q 463 1075 439 1063 q 516 1095 486 1088 q 550 1096 546 1103 q 675 950 607 1022 q 676 946 676 949 q 672 938 676 942 q 664 938 668 935 m 481 938 q 375 1004 424 976 q 268 1057 326 1032 q 280 1075 257 1063 q 333 1095 303 1088 q 367 1096 363 1103 q 492 950 442 1001 q 493 946 493 949 q 489 938 493 942 q 481 938 485 935 z "},"Ü":{"ha":972,"x_min":38,"x_max":947,"o":"m 794 708 q 763 815 794 778 q 671 851 731 851 q 667 860 667 851 q 671 868 667 868 l 733 867 q 813 864 783 864 q 885 867 838 864 l 944 868 q 947 860 947 868 q 944 851 947 851 q 860 815 889 851 q 832 708 832 779 l 832 315 q 741 71 832 160 q 499 -18 650 -18 q 318 22 396 -18 q 197 135 240 61 q 154 310 154 210 l 154 756 q 146 817 154 797 q 115 844 138 836 q 42 851 92 851 q 38 860 38 851 q 42 868 38 868 l 111 867 q 208 864 172 864 q 307 867 249 864 l 375 868 q 379 860 379 868 q 375 851 379 851 q 303 843 326 851 q 272 815 281 835 q 264 753 264 794 l 264 358 q 335 110 264 194 q 536 26 407 26 q 726 102 657 26 q 794 314 794 178 l 794 708 m 399 989 q 351 1006 368 989 q 333 1053 333 1022 q 351 1098 333 1082 q 399 1114 368 1114 q 444 1098 428 1114 q 460 1053 460 1082 q 444 1006 460 1022 q 399 989 428 989 m 642 989 q 594 1006 611 989 q 576 1053 576 1022 q 594 1098 576 1082 q 642 1114 611 1114 q 687 1098 671 1114 q 703 1053 703 1082 q 687 1006 703 1022 q 642 989 671 989 z "},"Ǘ":{"ha":972,"x_min":38,"x_max":947,"o":"m 794 708 q 763 815 794 778 q 671 851 731 851 q 667 860 667 851 q 671 868 667 868 l 733 867 q 813 864 783 864 q 885 867 838 864 l 944 868 q 947 860 947 868 q 944 851 947 851 q 860 815 889 851 q 832 708 832 779 l 832 315 q 741 71 832 160 q 499 -18 650 -18 q 318 22 396 -18 q 197 135 240 61 q 154 310 154 210 l 154 756 q 146 817 154 797 q 115 844 138 836 q 42 851 92 851 q 38 860 38 851 q 42 868 38 868 l 111 867 q 208 864 172 864 q 307 867 249 864 l 375 868 q 379 860 379 868 q 375 851 379 851 q 303 843 326 851 q 272 815 281 835 q 264 753 264 794 l 264 358 q 335 110 264 194 q 536 26 407 26 q 726 102 657 26 q 794 314 794 178 l 794 708 m 350 1139 q 342 1145 344 1139 q 346 1154 340 1151 q 507 1242 414 1188 l 588 1288 q 626 1282 594 1292 q 683 1260 658 1272 q 694 1244 707 1247 q 351 1139 504 1203 l 350 1139 m 399 974 q 351 990 368 974 q 333 1038 333 1007 q 351 1081 333 1065 q 399 1097 368 1097 q 444 1081 428 1097 q 460 1038 460 1065 q 444 990 460 1007 q 399 974 428 974 m 642 974 q 594 990 611 974 q 576 1038 576 1007 q 594 1081 576 1065 q 642 1097 611 1097 q 687 1081 671 1097 q 703 1038 703 1065 q 687 990 703 1007 q 642 974 671 974 z "},"Ǚ":{"ha":972,"x_min":38,"x_max":947,"o":"m 794 708 q 763 815 794 778 q 671 851 731 851 q 667 860 667 851 q 671 868 667 868 l 733 867 q 813 864 783 864 q 885 867 838 864 l 944 868 q 947 860 947 868 q 944 851 947 851 q 860 815 889 851 q 832 708 832 779 l 832 315 q 741 71 832 160 q 499 -18 650 -18 q 318 22 396 -18 q 197 135 240 61 q 154 310 154 210 l 154 756 q 146 817 154 797 q 115 844 138 836 q 42 851 92 851 q 38 860 38 851 q 42 868 38 868 l 111 867 q 208 864 172 864 q 307 867 249 864 l 375 868 q 379 860 379 868 q 375 851 379 851 q 303 843 326 851 q 272 815 281 835 q 264 753 264 794 l 264 358 q 335 110 264 194 q 536 26 407 26 q 726 102 657 26 q 794 314 794 178 l 794 708 m 354 1274 q 353 1274 354 1274 q 353 1275 353 1275 q 356 1281 353 1278 q 363 1283 360 1285 l 524 1206 l 682 1285 l 683 1285 q 690 1281 688 1285 q 689 1275 693 1278 l 538 1132 q 522 1126 532 1126 q 507 1132 513 1126 l 354 1274 m 399 974 q 351 990 368 974 q 333 1038 333 1007 q 351 1081 333 1065 q 399 1097 368 1097 q 444 1081 428 1097 q 460 1038 460 1065 q 444 990 460 1007 q 399 974 428 974 m 642 974 q 594 990 611 974 q 576 1038 576 1007 q 594 1081 576 1065 q 642 1097 611 1097 q 687 1081 671 1097 q 703 1038 703 1065 q 687 990 703 1007 q 642 974 671 974 z "},"Ǜ":{"ha":972,"x_min":38,"x_max":947,"o":"m 794 708 q 763 815 794 778 q 671 851 731 851 q 667 860 667 851 q 671 868 667 868 l 733 867 q 813 864 783 864 q 885 867 838 864 l 944 868 q 947 860 947 868 q 944 851 947 851 q 860 815 889 851 q 832 708 832 779 l 832 315 q 741 71 832 160 q 499 -18 650 -18 q 318 22 396 -18 q 197 135 240 61 q 154 310 154 210 l 154 756 q 146 817 154 797 q 115 844 138 836 q 42 851 92 851 q 38 860 38 851 q 42 868 38 868 l 111 867 q 208 864 172 864 q 307 867 249 864 l 375 868 q 379 860 379 868 q 375 851 379 851 q 303 843 326 851 q 272 815 281 835 q 264 753 264 794 l 264 358 q 335 110 264 194 q 536 26 407 26 q 726 102 657 26 q 794 314 794 178 l 794 708 m 706 1139 q 364 1244 553 1201 q 376 1260 351 1247 q 431 1282 400 1272 q 469 1288 463 1292 l 558 1238 q 711 1154 646 1186 q 715 1147 715 1153 q 713 1140 715 1143 q 706 1139 710 1138 m 417 974 q 370 990 386 974 q 354 1038 354 1007 q 370 1081 354 1065 q 417 1097 386 1097 q 463 1081 447 1097 q 479 1038 479 1065 q 463 990 479 1007 q 417 974 447 974 m 660 974 q 613 990 629 974 q 596 1038 596 1007 q 613 1081 596 1065 q 660 1097 629 1097 q 707 1081 690 1097 q 724 1038 724 1065 q 707 990 724 1007 q 660 974 690 974 z "},"Ǖ":{"ha":972,"x_min":38,"x_max":947,"o":"m 794 708 q 763 815 794 778 q 671 851 731 851 q 667 860 667 851 q 671 868 667 868 l 733 867 q 813 864 783 864 q 885 867 838 864 l 944 868 q 947 860 947 868 q 944 851 947 851 q 860 815 889 851 q 832 708 832 779 l 832 315 q 741 71 832 160 q 499 -18 650 -18 q 318 22 396 -18 q 197 135 240 61 q 154 310 154 210 l 154 756 q 146 817 154 797 q 115 844 138 836 q 42 851 92 851 q 38 860 38 851 q 42 868 38 868 l 111 867 q 208 864 172 864 q 307 867 249 864 l 375 868 q 379 860 379 868 q 375 851 379 851 q 303 843 326 851 q 272 815 281 835 q 264 753 264 794 l 264 358 q 335 110 264 194 q 536 26 407 26 q 726 102 657 26 q 794 314 794 178 l 794 708 m 399 974 q 351 990 368 974 q 333 1038 333 1007 q 351 1081 333 1065 q 399 1097 368 1097 q 444 1081 428 1097 q 460 1038 460 1065 q 444 990 460 1007 q 399 974 428 974 m 642 974 q 594 990 611 974 q 576 1038 576 1007 q 594 1081 576 1065 q 642 1097 611 1097 q 687 1081 671 1097 q 703 1038 703 1065 q 687 990 703 1007 q 642 974 671 974 m 353 1168 q 343 1190 343 1168 q 353 1211 343 1211 l 683 1211 q 692 1205 689 1211 q 694 1190 694 1199 q 692 1175 694 1182 q 683 1168 689 1168 l 353 1168 z "},"Ụ":{"ha":972,"x_min":38,"x_max":947,"o":"m 794 708 q 763 815 794 778 q 671 851 731 851 q 667 860 667 851 q 671 868 667 868 l 733 867 q 813 864 783 864 q 885 867 838 864 l 944 868 q 947 860 947 868 q 944 851 947 851 q 860 815 889 851 q 832 708 832 779 l 832 315 q 741 71 832 160 q 499 -18 650 -18 q 318 22 396 -18 q 197 135 240 61 q 154 310 154 210 l 154 756 q 146 817 154 797 q 115 844 138 836 q 42 851 92 851 q 38 860 38 851 q 42 868 38 868 l 111 867 q 208 864 172 864 q 307 867 249 864 l 375 868 q 379 860 379 868 q 375 851 379 851 q 303 843 326 851 q 272 815 281 835 q 264 753 264 794 l 264 358 q 335 110 264 194 q 536 26 407 26 q 726 102 657 26 q 794 314 794 178 l 794 708 m 488 -271 q 438 -253 456 -271 q 419 -204 419 -236 q 438 -157 419 -174 q 488 -140 456 -140 q 535 -157 518 -140 q 553 -204 553 -174 q 536 -253 553 -236 q 488 -271 519 -271 z "},"Ù":{"ha":972,"x_min":38,"x_max":947,"o":"m 794 708 q 763 815 794 778 q 671 851 731 851 q 667 860 667 851 q 671 868 667 868 l 733 867 q 813 864 783 864 q 885 867 838 864 l 944 868 q 947 860 947 868 q 944 851 947 851 q 860 815 889 851 q 832 708 832 779 l 832 315 q 741 71 832 160 q 499 -18 650 -18 q 318 22 396 -18 q 197 135 240 61 q 154 310 154 210 l 154 756 q 146 817 154 797 q 115 844 138 836 q 42 851 92 851 q 38 860 38 851 q 42 868 38 868 l 111 867 q 208 864 172 864 q 307 867 249 864 l 375 868 q 379 860 379 868 q 375 851 379 851 q 303 843 326 851 q 272 815 281 835 q 264 753 264 794 l 264 358 q 335 110 264 194 q 536 26 407 26 q 726 102 657 26 q 794 314 794 178 l 794 708 m 657 943 q 347 1050 500 1013 q 359 1065 335 1053 q 415 1088 383 1078 q 453 1093 447 1097 q 519 1047 486 1072 q 577 1010 533 1039 q 663 957 621 981 q 665 951 665 956 q 663 944 665 947 q 657 943 660 942 z "},"Ủ":{"ha":972,"x_min":38,"x_max":947,"o":"m 794 708 q 763 815 794 778 q 671 851 731 851 q 667 860 667 851 q 671 868 667 868 l 733 867 q 813 864 783 864 q 885 867 838 864 l 944 868 q 947 860 947 868 q 944 851 947 851 q 860 815 889 851 q 832 708 832 779 l 832 315 q 741 71 832 160 q 499 -18 650 -18 q 318 22 396 -18 q 197 135 240 61 q 154 310 154 210 l 154 756 q 146 817 154 797 q 115 844 138 836 q 42 851 92 851 q 38 860 38 851 q 42 868 38 868 l 111 867 q 208 864 172 864 q 307 867 249 864 l 375 868 q 379 860 379 868 q 375 851 379 851 q 303 843 326 851 q 272 815 281 835 q 264 753 264 794 l 264 358 q 335 110 264 194 q 536 26 407 26 q 726 102 657 26 q 794 314 794 178 l 794 708 m 522 904 q 515 901 522 901 q 506 904 507 901 q 501 935 501 921 q 508 974 501 956 q 528 1017 515 993 q 547 1054 540 1039 q 553 1088 553 1069 q 538 1128 553 1114 q 501 1142 524 1142 q 458 1131 486 1142 l 457 1131 q 449 1135 453 1131 q 449 1142 444 1139 q 547 1174 493 1174 q 613 1153 589 1174 q 638 1101 638 1133 q 622 1052 638 1075 q 576 1000 606 1029 q 532 949 546 969 q 522 904 518 928 z "},"Ư":{"ha":972,"x_min":38,"x_max":1035,"o":"m 832 300 q 740 67 832 151 q 494 -18 647 -18 q 247 66 339 -18 q 154 296 154 150 l 154 756 q 146 817 154 797 q 115 844 138 836 q 42 851 92 851 q 38 860 38 851 q 42 868 38 868 l 111 867 q 208 864 172 864 q 307 867 249 864 l 375 868 q 379 860 379 868 q 375 851 379 851 q 303 843 326 851 q 272 815 281 835 q 264 753 264 794 l 264 344 q 335 107 264 188 q 531 26 406 26 q 724 99 654 26 q 794 299 794 171 l 794 708 q 763 815 794 778 q 671 851 731 851 q 667 860 667 851 q 671 868 667 868 l 733 867 q 813 864 783 864 q 911 877 881 864 q 942 924 942 890 q 936 947 942 938 q 929 958 931 956 q 915 996 915 978 q 934 1039 915 1024 q 976 1054 953 1054 q 1020 1034 1006 1054 q 1035 985 1035 1014 q 907 853 1035 901 q 853 809 874 839 q 832 708 832 779 l 832 300 z "},"Ứ":{"ha":972,"x_min":38,"x_max":1035,"o":"m 832 300 q 740 67 832 151 q 494 -18 647 -18 q 247 66 339 -18 q 154 296 154 150 l 154 756 q 146 817 154 797 q 115 844 138 836 q 42 851 92 851 q 38 860 38 851 q 42 868 38 868 l 111 867 q 208 864 172 864 q 307 867 249 864 l 375 868 q 379 860 379 868 q 375 851 379 851 q 303 843 326 851 q 272 815 281 835 q 264 753 264 794 l 264 344 q 335 107 264 188 q 531 26 406 26 q 724 99 654 26 q 794 299 794 171 l 794 708 q 763 815 794 778 q 671 851 731 851 q 667 860 667 851 q 671 868 667 868 l 733 867 q 813 864 783 864 q 911 877 881 864 q 942 924 942 890 q 936 947 942 938 q 929 958 931 956 q 915 996 915 978 q 934 1039 915 1024 q 976 1054 953 1054 q 1020 1034 1006 1054 q 1035 985 1035 1014 q 907 853 1035 901 q 853 809 874 839 q 832 708 832 779 l 832 300 m 385 942 q 377 948 379 942 q 379 957 375 954 q 515 1043 443 992 q 589 1092 581 1086 q 628 1086 596 1096 q 683 1064 660 1076 q 694 1050 707 1051 q 386 942 531 1008 l 385 942 z "},"Ự":{"ha":972,"x_min":38,"x_max":1035,"o":"m 832 300 q 740 67 832 151 q 494 -18 647 -18 q 247 66 339 -18 q 154 296 154 150 l 154 756 q 146 817 154 797 q 115 844 138 836 q 42 851 92 851 q 38 860 38 851 q 42 868 38 868 l 111 867 q 208 864 172 864 q 307 867 249 864 l 375 868 q 379 860 379 868 q 375 851 379 851 q 303 843 326 851 q 272 815 281 835 q 264 753 264 794 l 264 344 q 335 107 264 188 q 531 26 406 26 q 724 99 654 26 q 794 299 794 171 l 794 708 q 763 815 794 778 q 671 851 731 851 q 667 860 667 851 q 671 868 667 868 l 733 867 q 813 864 783 864 q 911 877 881 864 q 942 924 942 890 q 936 947 942 938 q 929 958 931 956 q 915 996 915 978 q 934 1039 915 1024 q 976 1054 953 1054 q 1020 1034 1006 1054 q 1035 985 1035 1014 q 907 853 1035 901 q 853 809 874 839 q 832 708 832 779 l 832 300 m 514 -271 q 464 -253 482 -271 q 446 -204 446 -236 q 464 -157 446 -174 q 514 -140 482 -140 q 562 -157 544 -140 q 579 -204 579 -174 q 563 -253 579 -236 q 514 -271 546 -271 z "},"Ừ":{"ha":972,"x_min":38,"x_max":1035,"o":"m 832 300 q 740 67 832 151 q 494 -18 647 -18 q 247 66 339 -18 q 154 296 154 150 l 154 756 q 146 817 154 797 q 115 844 138 836 q 42 851 92 851 q 38 860 38 851 q 42 868 38 868 l 111 867 q 208 864 172 864 q 307 867 249 864 l 375 868 q 379 860 379 868 q 375 851 379 851 q 303 843 326 851 q 272 815 281 835 q 264 753 264 794 l 264 344 q 335 107 264 188 q 531 26 406 26 q 724 99 654 26 q 794 299 794 171 l 794 708 q 763 815 794 778 q 671 851 731 851 q 667 860 667 851 q 671 868 667 868 l 733 867 q 813 864 783 864 q 911 877 881 864 q 942 924 942 890 q 936 947 942 938 q 929 958 931 956 q 915 996 915 978 q 934 1039 915 1024 q 976 1054 953 1054 q 1020 1034 1006 1054 q 1035 985 1035 1014 q 907 853 1035 901 q 853 809 874 839 q 832 708 832 779 l 832 300 m 660 943 q 350 1050 503 1013 q 362 1065 338 1053 q 417 1088 386 1078 q 456 1093 449 1097 l 513 1054 q 665 957 613 986 q 668 951 668 956 q 665 944 668 947 q 660 943 663 942 z "},"Ử":{"ha":972,"x_min":38,"x_max":1035,"o":"m 832 300 q 740 67 832 151 q 494 -18 647 -18 q 247 66 339 -18 q 154 296 154 150 l 154 756 q 146 817 154 797 q 115 844 138 836 q 42 851 92 851 q 38 860 38 851 q 42 868 38 868 l 111 867 q 208 864 172 864 q 307 867 249 864 l 375 868 q 379 860 379 868 q 375 851 379 851 q 303 843 326 851 q 272 815 281 835 q 264 753 264 794 l 264 344 q 335 107 264 188 q 531 26 406 26 q 724 99 654 26 q 794 299 794 171 l 794 708 q 763 815 794 778 q 671 851 731 851 q 667 860 667 851 q 671 868 667 868 l 733 867 q 813 864 783 864 q 911 877 881 864 q 942 924 942 890 q 936 947 942 938 q 929 958 931 956 q 915 996 915 978 q 934 1039 915 1024 q 976 1054 953 1054 q 1020 1034 1006 1054 q 1035 985 1035 1014 q 907 853 1035 901 q 853 809 874 839 q 832 708 832 779 l 832 300 m 524 904 q 517 901 525 901 q 508 904 510 901 q 504 935 504 921 q 511 974 504 956 q 531 1017 518 993 q 549 1054 543 1039 q 556 1088 556 1069 q 541 1128 556 1114 q 503 1142 526 1142 q 461 1131 486 1142 l 458 1131 q 451 1135 454 1131 q 451 1142 447 1139 q 549 1174 496 1174 q 616 1153 592 1174 q 640 1101 640 1133 q 625 1053 640 1075 q 579 1000 610 1032 q 534 949 549 971 q 524 904 519 928 z "},"Ữ":{"ha":972,"x_min":38,"x_max":1035,"o":"m 832 300 q 740 67 832 151 q 494 -18 647 -18 q 247 66 339 -18 q 154 296 154 150 l 154 756 q 146 817 154 797 q 115 844 138 836 q 42 851 92 851 q 38 860 38 851 q 42 868 38 868 l 111 867 q 208 864 172 864 q 307 867 249 864 l 375 868 q 379 860 379 868 q 375 851 379 851 q 303 843 326 851 q 272 815 281 835 q 264 753 264 794 l 264 344 q 335 107 264 188 q 531 26 406 26 q 724 99 654 26 q 794 299 794 171 l 794 708 q 763 815 794 778 q 671 851 731 851 q 667 860 667 851 q 671 868 667 868 l 733 867 q 813 864 783 864 q 911 877 881 864 q 942 924 942 890 q 936 947 942 938 q 929 958 931 956 q 915 996 915 978 q 934 1039 915 1024 q 976 1054 953 1054 q 1020 1034 1006 1054 q 1035 985 1035 1014 q 907 853 1035 901 q 853 809 874 839 q 832 708 832 779 l 832 300 m 626 1051 q 665 1060 650 1051 q 696 1089 679 1069 l 697 1089 q 705 1085 701 1089 q 706 1079 708 1082 q 646 1004 669 1024 q 594 985 622 985 q 511 1001 567 985 q 476 1011 506 1003 q 415 1019 446 1019 q 382 1013 393 1019 q 361 997 371 1007 q 346 982 351 988 l 343 982 q 336 985 339 982 q 336 992 333 989 q 456 1085 399 1085 q 524 1071 474 1085 q 626 1051 588 1051 z "},"Ű":{"ha":972,"x_min":38,"x_max":947,"o":"m 794 708 q 763 815 794 778 q 671 851 731 851 q 667 860 667 851 q 671 868 667 868 l 733 867 q 813 864 783 864 q 885 867 838 864 l 944 868 q 947 860 947 868 q 944 851 947 851 q 860 815 889 851 q 832 708 832 779 l 832 315 q 741 71 832 160 q 499 -18 650 -18 q 318 22 396 -18 q 197 135 240 61 q 154 310 154 210 l 154 756 q 146 817 154 797 q 115 844 138 836 q 42 851 92 851 q 38 860 38 851 q 42 868 38 868 l 111 867 q 208 864 172 864 q 307 867 249 864 l 375 868 q 379 860 379 868 q 375 851 379 851 q 303 843 326 851 q 272 815 281 835 q 264 753 264 794 l 264 358 q 335 110 264 194 q 536 26 407 26 q 726 102 657 26 q 794 314 794 178 l 794 708 m 368 935 q 362 941 364 935 q 363 950 360 947 q 488 1096 431 1022 q 522 1095 492 1103 q 575 1075 551 1088 q 588 1057 599 1063 q 371 936 483 1013 l 368 935 m 553 935 q 545 941 547 935 q 546 950 543 947 q 671 1096 596 1001 q 705 1095 675 1103 q 758 1075 735 1088 q 769 1057 781 1063 q 556 936 664 1011 l 553 935 z "},"Ȗ":{"ha":972,"x_min":38,"x_max":947,"o":"m 794 708 q 763 815 794 778 q 671 851 731 851 q 667 860 667 851 q 671 868 667 868 l 733 867 q 813 864 783 864 q 885 867 838 864 l 944 868 q 947 860 947 868 q 944 851 947 851 q 860 815 889 851 q 832 708 832 779 l 832 315 q 741 71 832 160 q 499 -18 650 -18 q 318 22 396 -18 q 197 135 240 61 q 154 310 154 210 l 154 756 q 146 817 154 797 q 115 844 138 836 q 42 851 92 851 q 38 860 38 851 q 42 868 38 868 l 111 867 q 208 864 172 864 q 307 867 249 864 l 375 868 q 379 860 379 868 q 375 851 379 851 q 303 843 326 851 q 272 815 281 835 q 264 753 264 794 l 264 358 q 335 110 264 194 q 536 26 407 26 q 726 102 657 26 q 794 314 794 178 l 794 708 m 392 946 q 382 942 389 942 q 376 949 375 943 q 419 1065 382 1025 q 519 1104 456 1104 q 618 1065 582 1104 q 661 949 654 1025 q 653 942 661 943 q 646 946 646 942 q 602 1005 639 979 q 519 1031 565 1031 q 435 1006 472 1031 q 392 946 399 981 z "},"Ū":{"ha":972,"x_min":38,"x_max":947,"o":"m 794 708 q 763 815 794 778 q 671 851 731 851 q 667 860 667 851 q 671 868 667 868 l 733 867 q 813 864 783 864 q 885 867 838 864 l 944 868 q 947 860 947 868 q 944 851 947 851 q 860 815 889 851 q 832 708 832 779 l 832 315 q 741 71 832 160 q 499 -18 650 -18 q 318 22 396 -18 q 197 135 240 61 q 154 310 154 210 l 154 756 q 146 817 154 797 q 115 844 138 836 q 42 851 92 851 q 38 860 38 851 q 42 868 38 868 l 111 867 q 208 864 172 864 q 307 867 249 864 l 375 868 q 379 860 379 868 q 375 851 379 851 q 303 843 326 851 q 272 815 281 835 q 264 753 264 794 l 264 358 q 335 110 264 194 q 536 26 407 26 q 726 102 657 26 q 794 314 794 178 l 794 708 m 344 999 q 335 1021 335 999 q 344 1042 335 1042 l 693 1042 q 701 1035 699 1042 q 704 1021 704 1029 q 701 1006 704 1013 q 693 999 699 999 l 344 999 z "},"Ų":{"ha":972,"x_min":38,"x_max":947,"o":"m 794 708 q 763 815 794 778 q 671 851 731 851 q 667 860 667 851 q 671 868 667 868 l 733 867 q 813 864 783 864 q 885 867 838 864 l 944 868 q 947 860 947 868 q 944 851 947 851 q 860 815 889 851 q 832 708 832 779 l 832 315 q 741 71 832 160 q 499 -18 650 -18 q 318 22 396 -18 q 197 135 240 61 q 154 310 154 210 l 154 756 q 146 817 154 797 q 115 844 138 836 q 42 851 92 851 q 38 860 38 851 q 42 868 38 868 l 111 867 q 208 864 172 864 q 307 867 249 864 l 375 868 q 379 860 379 868 q 375 851 379 851 q 303 843 326 851 q 272 815 281 835 q 264 753 264 794 l 264 358 q 335 110 264 194 q 536 26 407 26 q 726 102 657 26 q 794 314 794 178 l 794 708 m 607 1 q 531 -91 554 -47 q 507 -187 507 -135 q 541 -295 507 -256 q 638 -335 575 -335 q 719 -308 682 -335 l 722 -308 q 730 -312 726 -308 q 729 -319 733 -317 q 578 -382 656 -382 q 461 -342 504 -382 q 418 -240 418 -303 q 589 8 418 -121 l 607 1 z "},"Ů":{"ha":972,"x_min":38,"x_max":947,"o":"m 794 708 q 763 815 794 778 q 671 851 731 851 q 667 860 667 851 q 671 868 667 868 l 733 867 q 813 864 783 864 q 885 867 838 864 l 944 868 q 947 860 947 868 q 944 851 947 851 q 860 815 889 851 q 832 708 832 779 l 832 315 q 741 71 832 160 q 499 -18 650 -18 q 318 22 396 -18 q 197 135 240 61 q 154 310 154 210 l 154 756 q 146 817 154 797 q 115 844 138 836 q 42 851 92 851 q 38 860 38 851 q 42 868 38 868 l 111 867 q 208 864 172 864 q 307 867 249 864 l 375 868 q 379 860 379 868 q 375 851 379 851 q 303 843 326 851 q 272 815 281 835 q 264 753 264 794 l 264 358 q 335 110 264 194 q 536 26 407 26 q 726 102 657 26 q 794 314 794 178 l 794 708 m 507 982 q 412 1015 447 982 q 376 1092 376 1047 q 422 1171 376 1142 q 521 1200 467 1200 q 612 1167 574 1200 q 650 1089 650 1135 q 606 1011 650 1040 q 507 982 563 982 m 529 997 q 563 1013 553 997 q 574 1064 574 1029 q 550 1148 574 1113 q 493 1183 526 1183 q 461 1168 471 1183 q 451 1119 451 1153 q 473 1035 451 1072 q 529 997 494 997 z "},"Ũ":{"ha":972,"x_min":38,"x_max":947,"o":"m 794 708 q 763 815 794 778 q 671 851 731 851 q 667 860 667 851 q 671 868 667 868 l 733 867 q 813 864 783 864 q 885 867 838 864 l 944 868 q 947 860 947 868 q 944 851 947 851 q 860 815 889 851 q 832 708 832 779 l 832 315 q 741 71 832 160 q 499 -18 650 -18 q 318 22 396 -18 q 197 135 240 61 q 154 310 154 210 l 154 756 q 146 817 154 797 q 115 844 138 836 q 42 851 92 851 q 38 860 38 851 q 42 868 38 868 l 111 867 q 208 864 172 864 q 307 867 249 864 l 375 868 q 379 860 379 868 q 375 851 379 851 q 303 843 326 851 q 272 815 281 835 q 264 753 264 794 l 264 358 q 335 110 264 194 q 536 26 407 26 q 726 102 657 26 q 794 314 794 178 l 794 708 m 625 1051 q 663 1060 649 1051 q 694 1089 678 1069 l 696 1089 q 703 1085 700 1089 q 704 1079 707 1082 q 644 1004 668 1024 q 592 985 619 985 q 552 990 574 985 q 510 1001 531 994 q 474 1011 504 1003 q 413 1019 444 1019 q 378 1013 390 1019 q 358 996 367 1006 q 344 982 349 986 l 342 982 q 335 985 338 982 q 335 992 332 989 q 453 1085 397 1085 q 521 1071 471 1085 q 625 1051 585 1051 z "},"V":{"ha":922,"x_min":-3,"x_max":932,"o":"m 928 868 q 932 860 932 868 q 928 851 932 851 q 778 725 828 851 l 494 1 q 479 -4 493 -4 q 464 1 465 -4 l 115 753 q 65 828 90 806 q 1 851 39 851 q -3 860 -3 851 q 1 868 -3 868 l 44 867 q 113 864 81 864 q 257 867 188 864 q 314 868 279 868 q 318 860 318 868 q 314 851 318 851 q 228 799 228 851 q 242 749 228 776 l 526 129 l 476 49 l 744 732 q 756 783 756 763 q 650 851 756 851 q 646 860 646 851 q 650 868 646 868 l 713 867 q 804 864 765 864 q 869 867 833 864 l 928 868 z "},"W":{"ha":1285,"x_min":-3,"x_max":1294,"o":"m 494 1 q 479 -4 493 -4 q 464 1 465 -4 l 115 753 q 66 831 89 811 q 1 851 43 851 q -3 860 -3 851 q 1 868 -3 868 l 44 867 q 113 864 81 864 q 236 867 175 864 q 289 868 256 868 q 293 860 293 868 q 289 851 293 851 q 231 843 249 851 q 213 811 213 835 q 232 749 213 792 l 526 119 l 474 43 l 649 488 l 671 456 l 494 1 m 1290 868 q 1294 860 1294 868 q 1290 851 1294 851 q 1140 725 1192 851 l 857 1 q 842 -4 856 -4 q 826 1 828 -4 l 478 753 q 430 828 454 804 q 371 851 406 851 q 367 860 367 851 q 371 868 367 868 l 414 867 q 475 864 447 864 q 572 867 528 864 q 610 868 586 868 q 614 860 614 868 q 610 851 614 851 q 576 847 586 851 q 565 829 565 842 q 594 749 565 810 l 889 119 l 836 43 l 1104 725 q 1117 782 1117 758 q 1092 833 1117 815 q 1021 851 1068 851 q 1017 860 1017 851 q 1021 868 1017 868 l 1081 867 q 1167 864 1128 864 q 1232 867 1196 864 l 1290 868 m 751 732 q 771 808 771 782 q 719 851 771 851 q 717 860 717 851 q 719 868 717 868 l 747 867 q 811 864 775 864 q 872 867 836 864 l 928 868 q 931 860 931 868 q 928 851 931 851 q 846 822 881 851 q 785 725 811 793 l 678 456 l 656 488 l 751 732 z "},"Ẃ":{"ha":1285,"x_min":-3,"x_max":1294,"o":"m 494 1 q 479 -4 493 -4 q 464 1 465 -4 l 115 753 q 66 831 89 811 q 1 851 43 851 q -3 860 -3 851 q 1 868 -3 868 l 44 867 q 113 864 81 864 q 236 867 175 864 q 289 868 256 868 q 293 860 293 868 q 289 851 293 851 q 231 843 249 851 q 213 811 213 835 q 232 749 213 792 l 526 119 l 474 43 l 649 488 l 671 456 l 494 1 m 1290 868 q 1294 860 1294 868 q 1290 851 1294 851 q 1140 725 1192 851 l 857 1 q 842 -4 856 -4 q 826 1 828 -4 l 478 753 q 430 828 454 804 q 371 851 406 851 q 367 860 367 851 q 371 868 367 868 l 414 867 q 475 864 447 864 q 572 867 528 864 q 610 868 586 868 q 614 860 614 868 q 610 851 614 851 q 576 847 586 851 q 565 829 565 842 q 594 749 565 810 l 889 119 l 836 43 l 1104 725 q 1117 782 1117 758 q 1092 833 1117 815 q 1021 851 1068 851 q 1017 860 1017 851 q 1021 868 1017 868 l 1081 867 q 1167 864 1128 864 q 1232 867 1196 864 l 1290 868 m 751 732 q 771 808 771 782 q 719 851 771 851 q 717 860 717 851 q 719 868 717 868 l 747 867 q 811 864 775 864 q 872 867 836 864 l 928 868 q 931 860 931 868 q 928 851 931 851 q 846 822 881 851 q 785 725 811 793 l 678 456 l 656 488 l 751 732 m 514 942 q 507 948 508 942 q 510 957 506 954 q 649 1044 558 983 q 721 1093 696 1078 q 759 1088 728 1097 q 814 1065 790 1078 q 825 1050 838 1053 q 667 1003 739 1029 q 517 943 596 978 l 514 942 z "},"Ŵ":{"ha":1285,"x_min":-3,"x_max":1294,"o":"m 494 1 q 479 -4 493 -4 q 464 1 465 -4 l 115 753 q 66 831 89 811 q 1 851 43 851 q -3 860 -3 851 q 1 868 -3 868 l 44 867 q 113 864 81 864 q 236 867 175 864 q 289 868 256 868 q 293 860 293 868 q 289 851 293 851 q 231 843 249 851 q 213 811 213 835 q 232 749 213 792 l 526 119 l 474 43 l 649 488 l 671 456 l 494 1 m 1290 868 q 1294 860 1294 868 q 1290 851 1294 851 q 1140 725 1192 851 l 857 1 q 842 -4 856 -4 q 826 1 828 -4 l 478 753 q 430 828 454 804 q 371 851 406 851 q 367 860 367 851 q 371 868 367 868 l 414 867 q 475 864 447 864 q 572 867 528 864 q 610 868 586 868 q 614 860 614 868 q 610 851 614 851 q 576 847 586 851 q 565 829 565 842 q 594 749 565 810 l 889 119 l 836 43 l 1104 725 q 1117 782 1117 758 q 1092 833 1117 815 q 1021 851 1068 851 q 1017 860 1017 851 q 1021 868 1017 868 l 1081 867 q 1167 864 1128 864 q 1232 867 1196 864 l 1290 868 m 751 732 q 771 808 771 782 q 719 851 771 851 q 717 860 717 851 q 719 868 717 868 l 747 867 q 811 864 775 864 q 872 867 836 864 l 928 868 q 931 860 931 868 q 928 851 931 851 q 846 822 881 851 q 785 725 811 793 l 678 456 l 656 488 l 751 732 m 636 1110 q 653 1117 643 1117 q 668 1110 661 1117 l 810 965 q 811 963 811 965 q 808 957 811 960 q 803 956 804 954 l 653 1028 l 501 956 q 494 959 499 954 q 493 965 490 964 l 636 1110 z "}}}
